<svg preserveAspectRatio="none" width="100%" height="100%" overflow="visible" style="display: block;" viewBox="0 0 10.8333 7.33333" fill="none" xmlns="http://www.w3.org/2000/svg">
<g id="Right 1">
<path id="Vector" d="M0.75 2.91667C0.335786 2.91667 -5.96046e-08 3.25245 0 3.66667C5.96046e-08 4.08088 0.335786 4.41667 0.75 4.41667L0.75 3.66667L0.75 2.91667ZM10.0833 4.41667C10.4975 4.41667 10.8333 4.08088 10.8333 3.66667C10.8333 3.25245 10.4975 2.91667 10.0833 2.91667V3.66667V4.41667ZM8.27796 0.217309C7.98376 -0.0742744 7.50889 -0.0721557 7.21731 0.222041C6.92573 0.516238 6.92784 0.991107 7.22204 1.28269L7.75 0.75L8.27796 0.217309ZM8.7784 1.76926L8.25044 2.30195V2.30195L8.7784 1.76926ZM8.7784 5.56407L9.30636 6.09676V6.09676L8.7784 5.56407ZM7.22204 6.05064C6.92784 6.34223 6.92573 6.8171 7.21731 7.11129C7.50889 7.40549 7.98376 7.40761 8.27796 7.11602L7.75 6.58333L7.22204 6.05064ZM10.0717 3.48389L10.8157 3.38906L10.8157 3.38906L10.0717 3.48389ZM10.0717 3.84944L10.8157 3.94427V3.94427L10.0717 3.84944ZM0.75 3.66667L0.75 4.41667L10.0833 4.41667V3.66667V2.91667L0.75 2.91667L0.75 3.66667ZM7.75 0.75L7.22204 1.28269L8.25044 2.30195L8.7784 1.76926L9.30636 1.23657L8.27796 0.217309L7.75 0.75ZM8.7784 5.56407L8.25044 5.03138L7.22204 6.05064L7.75 6.58333L8.27796 7.11602L9.30636 6.09676L8.7784 5.56407ZM8.7784 1.76926L8.25044 2.30195C8.67303 2.72079 8.94415 2.99111 9.12417 3.21525C9.29468 3.42757 9.32085 3.52455 9.32775 3.57872L10.0717 3.48389L10.8157 3.38906C10.7595 2.94786 10.549 2.59395 10.2937 2.27601C10.0479 1.9699 9.70389 1.63058 9.30636 1.23657L8.7784 1.76926ZM8.7784 5.56407L9.30636 6.09676C9.7039 5.70276 10.0479 5.36344 10.2937 5.05732C10.549 4.73938 10.7595 4.38547 10.8157 3.94427L10.0717 3.84944L9.32775 3.75462C9.32085 3.80878 9.29468 3.90576 9.12417 4.11808C8.94415 4.34223 8.67303 4.61254 8.25044 5.03138L8.7784 5.56407ZM10.0717 3.48389L9.32775 3.57872C9.33519 3.63712 9.33519 3.69621 9.32775 3.75462L10.0717 3.84944L10.8157 3.94427C10.8392 3.75994 10.8392 3.57339 10.8157 3.38906L10.0717 3.48389Z" fill="var(--stroke-0, #7B2CBF)"/>
</g>
</svg>
