<svg preserveAspectRatio="none" width="100%" height="100%" overflow="visible" style="display: block;" viewBox="0 0 14.9612 15" fill="none" xmlns="http://www.w3.org/2000/svg">
<g id="Bag 4">
<path id="Vector" d="M10.8139 3.83333C10.8139 3.80715 10.8136 3.78103 10.813 3.75499C10.7714 1.95023 9.29538 0.5 7.48062 0.5C5.67971 0.5 4.21237 1.92817 4.14939 3.71371C4.14799 3.75341 4.14728 3.79329 4.14728 3.83333M10.8139 3.83333H4.14728M10.8139 3.83333H11.6864C13.0769 3.83333 13.7721 3.83333 14.1696 4.27744C14.5671 4.72154 14.4903 5.41252 14.3368 6.79448L14.1396 8.56954C13.8261 11.3904 13.6694 12.8009 12.7202 13.6504C11.771 14.5 10.3409 14.5 7.48062 14.5C4.62035 14.5 3.19022 14.5 2.24102 13.6504C1.29182 12.8009 1.13511 11.3904 0.821676 8.56954L0.624447 6.79449C0.470896 5.41252 0.39412 4.72154 0.791613 4.27744C1.18911 3.83333 1.88434 3.83333 3.2748 3.83333H4.14728M3.48062 6.5L3.88062 6.9C5.86884 8.88823 9.09239 8.88823 11.0806 6.9L11.4806 6.5" stroke="var(--stroke-0, #2D264B)" stroke-linecap="round"/>
</g>
</svg>
