<svg preserveAspectRatio="none" width="100%" height="100%" overflow="visible" style="display: block;" viewBox="0 0 331.439 382.749" fill="none" xmlns="http://www.w3.org/2000/svg">
<path id="Subtract" d="M191.911 380.601C192.538 380.601 192.985 381.048 192.985 381.675C192.985 382.301 192.538 382.749 191.911 382.749H191.464C190.837 382.749 190.39 382.301 190.39 381.675C190.39 381.138 190.837 380.601 191.464 380.601H191.911ZM177.769 380.153C178.395 380.153 178.843 380.69 178.843 381.316C178.753 381.853 178.306 382.302 177.68 382.302C177.053 382.212 176.605 381.764 176.605 381.138C176.695 380.511 177.232 380.064 177.769 380.153ZM205.606 380.063C205.864 380.063 206.122 380.168 206.32 380.335L205.552 382.292C205.002 382.229 204.615 381.805 204.532 381.228C204.532 380.691 204.98 380.153 205.606 380.063ZM164.163 378.632C164.79 378.721 165.237 379.348 165.147 379.885C165.058 380.422 164.61 380.779 164.073 380.779H163.895C163.268 380.69 162.91 380.153 162.999 379.616C163.089 378.99 163.626 378.632 164.163 378.632ZM149.483 377.109C149.573 376.483 150.199 376.125 150.736 376.215C151.363 376.394 151.721 376.931 151.632 377.558C151.453 378.005 151.005 378.363 150.558 378.363H150.289C149.752 378.184 149.394 377.646 149.483 377.109ZM136.235 373.529C136.325 372.992 136.952 372.635 137.578 372.813C138.115 372.992 138.384 373.619 138.295 374.156C138.116 374.604 137.668 374.962 137.221 374.962C137.101 374.962 137.012 374.932 136.952 374.872C136.326 374.693 136.056 374.156 136.235 373.529ZM123.167 369.144C123.436 368.517 124.063 368.248 124.6 368.427C125.137 368.695 125.405 369.322 125.226 369.859C125.047 370.307 124.599 370.575 124.241 370.575C124.062 370.575 123.913 370.546 123.794 370.486C123.257 370.307 122.988 369.681 123.167 369.144ZM110.546 363.684C110.814 363.147 111.441 362.967 111.979 363.146C112.515 363.415 112.784 364.041 112.516 364.578C112.337 365.026 111.888 365.205 111.53 365.205C111.351 365.205 111.202 365.175 111.083 365.115C110.546 364.847 110.278 364.221 110.546 363.684ZM98.2832 357.417C98.6413 356.88 99.2677 356.701 99.8047 356.97C100.252 357.238 100.521 357.954 100.163 358.491C99.9841 358.76 99.6256 359.028 99.2676 359.028C99.0886 359.028 98.9094 358.939 98.7305 358.85C98.1935 358.581 98.0147 357.954 98.2832 357.417ZM86.5576 350.257C86.9157 349.72 87.542 349.63 88.0791 349.898C88.5265 350.256 88.7054 350.883 88.3477 351.42C88.1686 351.778 87.8102 351.867 87.4521 351.867C87.2732 351.867 87.094 351.838 86.915 351.778C86.378 351.42 86.2891 350.704 86.5576 350.257ZM75.3682 342.2C75.7262 341.753 76.4421 341.664 76.8896 342.021C77.3371 342.379 77.4271 343.095 77.0693 343.543C76.8904 343.811 76.5322 343.99 76.2637 343.99C76.025 343.99 75.8157 343.901 75.6367 343.722C75.0999 343.364 75.0102 342.737 75.3682 342.2ZM64.8057 333.429C65.1637 332.981 65.8806 332.981 66.3281 333.339C66.7755 333.786 66.775 334.413 66.417 334.86C66.238 335.129 65.8799 335.219 65.6113 335.219C65.3429 335.219 65.0745 335.219 64.8955 334.95C64.4481 334.592 64.4479 333.876 64.8057 333.429ZM54.8701 323.94C55.3176 323.493 55.9441 323.582 56.3916 323.94C56.8392 324.388 56.8392 325.104 56.3916 325.462C56.153 325.7 55.9144 325.82 55.6758 325.82C55.3178 325.82 55.0491 325.73 54.8701 325.462C54.4227 325.014 54.4228 324.388 54.8701 323.94ZM45.6504 313.736C46.0979 313.378 46.8148 313.467 47.1729 313.915C47.5306 314.363 47.5303 315.078 47.083 315.437C46.9041 315.615 46.6356 315.705 46.3672 315.705C46.0689 315.705 45.8002 315.556 45.5615 315.258C45.1141 314.81 45.2031 314.184 45.6504 313.736ZM37.1475 302.995C37.6845 302.637 38.3109 302.726 38.6689 303.174C39.0268 303.621 38.9375 304.337 38.4902 304.695C38.2516 304.815 38.0423 304.874 37.8633 304.874C37.5052 304.874 37.1468 304.785 36.9678 304.427C36.6099 303.979 36.7 303.353 37.1475 302.995ZM29.5391 291.537C30.076 291.269 30.7026 291.359 31.0605 291.896C31.329 292.433 31.2391 293.059 30.7021 293.327C30.5232 293.446 30.3147 293.507 30.0762 293.507C29.7181 293.507 29.3597 293.327 29.1807 293.059C28.9123 292.522 29.0021 291.895 29.5391 291.537ZM22.7363 279.633C23.2734 279.364 23.8995 279.543 24.168 280.08C24.4364 280.617 24.2575 281.243 23.7207 281.512C23.6014 281.631 23.4515 281.691 23.2725 281.691C22.8251 281.691 22.467 281.422 22.2881 281.064C22.0196 280.527 22.1993 279.901 22.7363 279.633ZM16.8281 267.28C17.3651 267.012 17.9917 267.28 18.1709 267.816C18.4394 268.353 18.1708 268.98 17.6338 269.249C17.5145 269.309 17.3654 269.339 17.1865 269.339C16.8285 269.339 16.3802 269.07 16.2012 268.622C16.0224 268.085 16.2018 267.459 16.8281 267.28ZM11.7256 254.479C12.3522 254.211 12.9792 254.569 13.1582 255.106C13.3371 255.643 13.0683 256.27 12.5312 256.538H12.1738C11.7263 256.538 11.2786 256.27 11.0996 255.822C10.9207 255.285 11.1888 254.659 11.7256 254.479ZM7.69824 241.321C8.23519 241.143 8.86197 241.501 9.04102 242.127C9.22004 242.664 8.86128 243.291 8.32422 243.381C8.2051 243.44 8.08591 243.47 7.9668 243.47C7.51924 243.47 7.07096 243.112 6.98145 242.664C6.80272 242.127 7.1613 241.5 7.69824 241.321ZM4.56543 227.984C5.19184 227.806 5.72882 228.253 5.81836 228.79C5.99737 229.417 5.54973 229.953 5.0127 230.043C4.95307 230.043 4.89361 230.073 4.83398 230.133C4.29692 230.133 3.84928 229.685 3.75977 229.237C3.58097 228.611 4.02845 228.074 4.56543 227.984ZM2.41699 214.379C3.04353 214.289 3.58042 214.737 3.66992 215.274C3.75915 215.901 3.31192 216.438 2.68555 216.527H2.5957C2.05886 216.527 1.61113 216.08 1.52148 215.543C1.43197 215.006 1.87993 214.468 2.41699 214.379ZM1.25293 200.684C1.87937 200.684 2.41675 201.131 2.41699 201.668C2.50648 202.294 1.96956 202.832 1.43262 202.832H1.34277C0.805824 202.832 0.268787 202.385 0.268555 201.848C0.268555 201.221 0.716012 200.684 1.25293 200.684ZM1.07422 186.899C1.70072 186.989 2.14836 187.436 2.14844 188.062C2.14844 188.6 1.7008 189.137 1.07422 189.137C0.447654 189.047 0 188.599 0 187.973C0.000304018 187.436 0.537309 186.899 1.07422 186.899ZM1.87988 173.204C2.50629 173.294 2.95357 173.83 2.86426 174.367C2.86426 174.994 2.3271 175.353 1.79004 175.353H1.70117C1.16411 175.353 0.715828 174.815 0.71582 174.188C0.805331 173.562 1.34282 173.115 1.87988 173.204ZM2.50684 160.493C2.50693 159.867 3.1329 159.509 3.66992 159.599C4.2965 159.688 4.65494 160.225 4.56543 160.852C4.47585 161.388 4.02813 161.746 3.49121 161.746H3.31152C2.77469 161.656 2.32787 161.03 2.50684 160.493ZM5.19141 146.978C5.28092 146.351 5.90825 145.993 6.44531 146.172C7.0716 146.262 7.42898 146.888 7.25 147.425C7.16043 147.962 6.71358 148.23 6.17676 148.23H5.9082C5.3713 148.141 5.01275 147.514 5.19141 146.978ZM8.86133 133.64C9.04042 133.013 9.66716 132.745 10.2041 132.924C10.7411 133.103 11.0998 133.73 10.9209 134.267C10.7419 134.714 10.2941 134.982 9.84668 134.982H9.57812C8.95155 134.803 8.68231 134.177 8.86133 133.64ZM13.5166 120.571C13.6957 120.035 14.3215 119.766 14.8584 119.944C15.485 120.213 15.6644 120.84 15.4854 121.377C15.3063 121.824 14.9485 122.093 14.501 122.093C14.3817 122.093 14.2325 122.063 14.0537 122.004C13.5166 121.735 13.2481 121.108 13.5166 120.571ZM19.0654 107.95C19.3339 107.413 19.961 107.145 20.498 107.413C21.0351 107.682 21.3037 108.309 21.0352 108.846C20.8561 109.204 20.4087 109.472 20.0508 109.472C19.8718 109.472 19.7219 109.442 19.6025 109.383C19.0657 109.114 18.797 108.487 19.0654 107.95ZM25.5107 95.6875C25.8687 95.1505 26.4952 94.9712 27.0322 95.3291C27.5693 95.5976 27.7487 96.2247 27.3906 96.7617C27.2116 97.1197 26.8531 97.2988 26.4951 97.2988C26.3162 97.2988 26.137 97.2686 25.958 97.209C25.4211 96.8509 25.2423 96.2245 25.5107 95.6875ZM32.8506 83.9619C33.2086 83.5144 33.9245 83.3353 34.3721 83.6934C34.9091 84.0514 34.9987 84.6778 34.6406 85.2148C34.4616 85.4831 34.1039 85.662 33.7461 85.6621C33.5672 85.6621 33.3879 85.5728 33.209 85.4834C32.672 85.1254 32.5823 84.4989 32.8506 83.9619ZM41.0859 72.8623C41.444 72.3252 42.0704 72.2357 42.6074 72.5938C43.0548 73.0413 43.1441 73.6677 42.7861 74.1152C42.5177 74.3836 42.2494 74.5624 41.8916 74.5625C41.6529 74.5625 41.4437 74.5031 41.2646 74.3838C40.7276 73.9362 40.7279 73.3099 41.0859 72.8623ZM50.0371 62.2998C50.3952 61.8524 51.1111 61.7625 51.5586 62.21C52.0061 62.6575 52.0055 63.2849 51.6475 63.7324H51.5586C51.3797 64.0006 51.1111 64.0897 50.8428 64.0898C50.5445 64.0898 50.2758 64.0002 50.0371 63.8213C49.6791 63.3737 49.5896 62.7474 50.0371 62.2998ZM330.886 63.165C330.672 62.7416 330.744 62.2273 331.102 61.9414C331.203 61.8605 331.318 61.7981 331.439 61.7549L330.886 63.165ZM59.7041 52.3643C60.1516 52.0063 60.7781 52.0058 61.2256 52.4531C61.5836 52.9007 61.5833 53.528 61.1357 53.9756C60.9567 54.1544 60.6883 54.2441 60.4199 54.2441C60.1216 54.2441 59.8529 54.1546 59.6143 53.9756C59.2562 53.528 59.2566 52.8118 59.7041 52.3643ZM321.434 52.1855C321.792 51.738 322.508 51.738 322.956 52.1855C323.403 52.5437 323.403 53.2596 322.956 53.707C322.777 53.8861 322.538 53.9756 322.239 53.9756C321.971 53.9755 321.702 53.886 321.434 53.707C320.986 53.3491 320.986 52.6331 321.434 52.1855ZM70.0869 43.2344C70.5344 42.8764 71.1609 42.9657 71.6084 43.4131C71.9664 43.8606 71.8772 44.5765 71.4297 44.9346C71.191 45.1135 70.9525 45.2031 70.7139 45.2031C70.4454 45.2031 70.0873 45.0243 69.9082 44.7559C69.5502 44.3084 69.5502 43.6819 70.0869 43.2344ZM311.051 43.1445C311.409 42.697 312.125 42.6073 312.572 43.0547C313.02 43.4127 313.109 44.0391 312.751 44.5762C312.482 44.8447 312.214 44.9345 311.856 44.9346C311.618 44.9346 311.409 44.845 311.229 44.666C310.693 44.3079 310.693 43.592 311.051 43.1445ZM81.0078 34.9092C81.5448 34.5514 82.1713 34.6409 82.5293 35.1777C82.8873 35.6252 82.7976 36.2517 82.2607 36.6992C82.0817 36.8186 81.8725 36.8789 81.6338 36.8789C81.3654 36.8788 81.0077 36.6995 80.7393 36.3418C80.4707 35.8942 80.5603 35.2672 81.0078 34.9092ZM300.041 34.9092C300.399 34.4619 301.026 34.2828 301.562 34.6406C302.01 34.9986 302.189 35.7145 301.831 36.1621C301.563 36.4306 301.294 36.6104 300.936 36.6104C300.757 36.6104 300.488 36.6096 300.31 36.4307C299.862 36.0726 299.683 35.4462 300.041 34.9092ZM92.5547 27.3008C93.0917 27.0325 93.8077 27.2117 94.0762 27.6592C94.3446 28.1962 94.2548 28.9122 93.7178 29.1807C93.5388 29.2999 93.3596 29.3594 93.1807 29.3594C92.8227 29.3593 92.4647 29.1802 92.1963 28.8223C91.928 28.2853 92.1072 27.6587 92.5547 27.3008ZM288.494 27.4805C288.763 26.9434 289.479 26.8535 290.016 27.1221C290.463 27.3905 290.642 28.1061 290.374 28.5537C290.105 28.9118 289.747 29.0908 289.389 29.0908C289.21 29.0908 289.03 29.0616 288.852 29.002C288.315 28.644 288.226 28.0174 288.494 27.4805ZM104.639 20.5879C105.176 20.3195 105.892 20.588 106.16 21.125C106.428 21.5725 106.16 22.2881 105.623 22.5566C105.504 22.6163 105.355 22.6464 105.176 22.6465C104.728 22.6465 104.369 22.4674 104.19 22.1094C103.922 21.5723 104.102 20.8564 104.639 20.5879ZM276.41 20.8564C276.679 20.409 277.305 20.14 277.842 20.4082C278.379 20.6767 278.558 21.3038 278.379 21.8408C278.11 22.2883 277.753 22.4678 277.395 22.4678C277.216 22.4678 277.036 22.4376 276.857 22.3779C276.32 22.1094 276.142 21.3935 276.41 20.8564ZM117.17 14.7695C117.796 14.5905 118.334 14.7699 118.603 15.3965C118.871 15.9333 118.602 16.5591 118.065 16.7383C117.886 16.798 117.737 16.8281 117.617 16.8281C117.17 16.828 116.812 16.6486 116.633 16.2012C116.365 15.6642 116.633 15.038 117.17 14.7695ZM263.878 15.2168C264.146 14.6797 264.773 14.4118 265.311 14.5908C265.847 14.8594 266.116 15.4855 265.848 16.0225C265.758 16.4699 265.311 16.7382 264.863 16.7383C264.744 16.7383 264.624 16.7091 264.505 16.6494C263.878 16.3809 263.699 15.7539 263.878 15.2168ZM130.06 9.93555C130.686 9.75664 131.312 10.0256 131.491 10.5625C131.67 11.1891 131.402 11.7263 130.775 11.9053C130.656 11.9648 130.537 11.995 130.418 11.9951C129.97 11.9951 129.612 11.7259 129.433 11.2783C129.254 10.7413 129.523 10.1145 130.06 9.93555ZM250.989 10.3838C251.168 9.84685 251.794 9.57807 252.331 9.75684C252.958 9.93585 253.227 10.5626 253.048 11.0996C252.869 11.5471 252.421 11.8153 251.974 11.8154C251.914 11.8751 251.824 11.875 251.705 11.8154C251.079 11.6364 250.81 11.0103 250.989 10.3838ZM143.307 5.99707C143.933 5.81805 144.56 6.1768 144.649 6.71387C144.828 7.34032 144.471 7.87666 143.934 8.05566H143.665C143.128 8.05562 142.68 7.78776 142.591 7.25098C142.412 6.71404 142.77 6.08682 143.307 5.99707ZM237.741 6.62402C237.92 5.99745 238.547 5.72885 239.084 5.81836C239.71 5.99743 239.979 6.53461 239.89 7.16113C239.711 7.60865 239.352 7.96676 238.815 7.9668H238.547C238.01 7.78778 237.652 7.16108 237.741 6.62402ZM156.823 2.9541C157.45 2.8646 157.987 3.22304 158.076 3.84961C158.255 4.47603 157.807 5.01304 157.271 5.10254H157.002C156.555 5.10235 156.107 4.74395 156.018 4.20703C155.839 3.67 156.286 3.0436 156.823 2.9541ZM225.567 2.86426C226.194 3.04328 226.552 3.5811 226.463 4.11816C226.373 4.65498 225.926 5.0127 225.389 5.0127H225.21C224.583 4.92319 224.225 4.38628 224.314 3.75977C224.404 3.22281 225.03 2.77498 225.567 2.86426ZM170.519 0.984375C171.145 0.894969 171.682 1.34321 171.682 1.96973C171.771 2.50667 171.324 3.04325 170.787 3.13281H170.608C170.071 3.13281 169.624 2.77498 169.534 2.14844C169.534 1.61137 169.892 1.07389 170.519 0.984375ZM211.872 0.984375C212.499 0.984375 212.947 1.52187 212.857 2.14844C212.768 2.68542 212.32 3.13268 211.783 3.13281C211.783 3.13281 211.753 3.10352 211.693 3.04395C211.067 3.04388 210.619 2.50642 210.709 1.87988C210.798 1.34298 211.335 0.895187 211.872 0.984375ZM184.303 0C184.929 0 185.377 0.447674 185.467 1.07422C185.467 1.61128 185.019 2.14844 184.393 2.14844H184.303C183.766 2.14821 183.318 1.70063 183.229 1.07422C183.229 0.537296 183.676 0.000237401 184.303 0ZM198.088 0C198.714 1.87727e-05 199.162 0.537186 199.162 1.07422C199.162 1.70078 198.625 2.14842 198.088 2.14844C197.461 2.14844 197.014 1.61095 197.014 0.984375C197.014 0.447499 197.551 0 198.088 0Z" fill="var(--fill-0, #D6BEEB)"/>
</svg>
