<svg preserveAspectRatio="none" width="100%" height="100%" overflow="visible" style="display: block;" viewBox="0 0 195.369 197.64" fill="none" xmlns="http://www.w3.org/2000/svg">
<path id="Subtract" d="M99.0042 192.896C100.347 192.896 101.42 193.97 101.42 195.312C101.42 196.566 100.347 197.639 99.0042 197.64H98.6458C97.3032 197.64 96.2288 196.566 96.2288 195.312C96.229 193.97 97.3032 192.896 98.6458 192.896H99.0042ZM85.846 192.091C87.099 192.27 87.9941 193.434 87.9046 194.687C87.7255 195.939 86.6512 196.745 85.4876 196.745H85.2191C83.8765 196.566 82.9815 195.402 83.1605 194.06C83.3395 192.806 84.5034 191.912 85.846 192.091ZM111.804 192.001C113.057 191.822 114.311 192.717 114.49 194.06C114.669 195.313 113.773 196.476 112.431 196.745H112.161C110.998 196.745 109.925 195.85 109.745 194.687C109.566 193.433 110.461 192.18 111.804 192.001ZM70.3607 191.105C70.7188 189.853 71.9714 189.136 73.3138 189.494C74.5668 189.852 75.2829 191.105 74.9251 192.358C74.6566 193.433 73.6721 194.149 72.598 194.149C72.419 194.149 72.2097 194.119 71.971 194.06C70.7182 193.701 70.0027 192.358 70.3607 191.105ZM124.335 189.405C125.588 188.958 126.931 189.763 127.289 191.017C127.647 192.27 126.931 193.523 125.678 193.881C125.439 194 125.23 194.029 125.051 193.97C123.977 193.97 122.992 193.343 122.724 192.27C122.366 191.016 123.082 189.674 124.335 189.405ZM58.0081 186.361C58.5453 185.198 59.9774 184.661 61.141 185.108V185.198C62.3939 185.646 62.9309 187.078 62.3939 188.331C62.0358 189.137 61.1405 189.674 60.2455 189.674C59.8875 189.674 59.5594 189.613 59.2611 189.494C58.0975 188.957 57.5606 187.614 58.0081 186.361ZM136.419 185.019C137.672 184.482 139.015 185.019 139.552 186.272C140.089 187.436 139.552 188.868 138.299 189.405C138.001 189.525 137.702 189.584 137.404 189.584C136.509 189.584 135.614 189.046 135.256 188.151C134.719 186.988 135.256 185.556 136.419 185.019ZM46.5501 180.007C47.1767 178.933 48.6987 178.575 49.7728 179.201C50.8468 179.917 51.2945 181.349 50.5785 182.513C50.1309 183.229 49.3254 183.677 48.5199 183.677C48.1023 183.677 47.6845 183.557 47.2669 183.318C46.1929 182.602 45.8344 181.17 46.5501 180.007ZM147.787 179.111C148.951 178.395 150.384 178.753 151.01 179.827C151.726 180.991 151.367 182.424 150.293 183.14C149.935 183.319 149.488 183.497 149.04 183.497C148.235 183.497 147.429 183.05 146.982 182.334C146.355 181.17 146.713 179.738 147.787 179.111ZM35.9886 172.219C36.7943 171.145 38.2261 170.966 39.3001 171.861C40.2844 172.667 40.4639 174.188 39.6585 175.173C39.1215 175.799 38.4946 176.067 37.7787 176.067C37.2416 176.067 36.7037 175.889 36.2562 175.531C35.2716 174.726 35.0935 173.203 35.9886 172.219ZM157.857 174.929C157.105 173.862 157.295 172.47 158.26 171.593C158.582 171.329 158.962 171.172 159.356 171.113L157.857 174.929ZM26.5892 162.999C27.4843 162.104 29.0066 162.104 29.9017 163.089C30.7966 164.073 30.7963 165.505 29.8119 166.4C29.3643 166.848 28.7376 167.027 28.2005 167.027C27.5741 167.027 26.9475 166.848 26.4105 166.312C25.5154 165.327 25.6046 163.894 26.5892 162.999ZM18.5335 152.526C19.6077 151.81 21.0395 152.079 21.8451 153.153C22.5611 154.227 22.293 155.659 21.2191 156.465C20.8611 156.733 20.3238 156.912 19.8763 156.912C19.0708 156.912 18.3541 156.555 17.9066 155.839C17.1905 154.765 17.4594 153.332 18.5335 152.526ZM11.9095 141.158C13.0731 140.532 14.5056 141.069 15.1322 142.144C15.7584 143.307 15.311 144.739 14.1478 145.365C13.7898 145.544 13.4015 145.634 12.9837 145.634C12.1782 145.634 11.2832 145.186 10.9251 144.381C10.2986 143.217 10.7459 141.785 11.9095 141.158ZM6.98666 128.985C8.23969 128.538 9.58195 129.164 10.0296 130.417C10.4772 131.67 9.76157 133.013 8.59799 133.461C8.29967 133.521 8.03099 133.55 7.79233 133.55C6.80771 133.55 5.91209 133.013 5.55404 132.028C5.1067 130.775 5.73361 129.433 6.98666 128.985ZM3.76401 116.186C5.01708 115.917 6.27076 116.811 6.5394 118.064C6.80792 119.318 6.00208 120.571 4.65951 120.84C4.54017 120.9 4.39029 120.929 4.21127 120.929C3.13742 120.928 2.15271 120.124 1.88412 119.05C1.61561 117.707 2.42151 116.454 3.76401 116.186ZM2.24252 103.116C3.58517 103.027 4.6592 104.012 4.83822 105.354H4.74838C4.92724 106.697 3.85383 107.771 2.60092 107.86H2.42123C1.16821 107.86 0.0947203 106.965 0.00521664 105.712C0.0053965 104.369 0.989483 103.206 2.24252 103.116ZM2.60092 89.958C3.85376 90.0477 4.83765 91.2114 4.74838 92.5537C4.65887 93.8069 3.67439 94.7021 2.42123 94.7021H2.24252C0.989404 94.6126 -0.0842313 93.5389 0.00521664 92.1963C0.0947276 90.8536 1.25826 89.8685 2.60092 89.958ZM1.88412 78.8594C2.06314 77.6062 3.40636 76.711 4.65951 76.9795C5.91255 77.2481 6.80757 78.5012 6.44955 79.8438C6.27048 80.9178 5.28591 81.7235 4.1224 81.7236C4.00315 81.7236 3.85397 81.6934 3.67514 81.6338C2.42213 81.3653 1.52641 80.1124 1.88412 78.8594ZM192.542 76.6211C193.795 76.3526 195.049 77.1583 195.318 78.501C195.586 79.754 194.781 81.0067 193.528 81.2754C193.349 81.335 193.17 81.3652 192.991 81.3652C191.916 81.3652 190.932 80.5595 190.663 79.4854C190.395 78.1429 191.289 76.8898 192.542 76.6211ZM5.46518 65.8799C5.91278 64.6268 7.25503 64.0007 8.50815 64.4482C9.76116 64.8958 10.3881 66.2378 9.94076 67.4014C9.58272 68.386 8.6871 69.0127 7.70248 69.0127C7.46383 69.0127 7.19512 68.9533 6.89682 68.834C5.64379 68.4758 5.01765 67.0435 5.46518 65.8799ZM188.604 64.0898C189.857 63.6423 191.2 64.2685 191.648 65.5215C192.095 66.7746 191.468 68.1179 190.215 68.5654C189.977 68.6251 189.738 68.6543 189.499 68.6543C188.515 68.6543 187.53 68.0279 187.172 67.1328C186.725 65.8799 187.441 64.5375 188.604 64.0898ZM10.8353 53.4375C11.4619 52.274 12.8944 51.8266 14.058 52.4531C15.2216 53.0797 15.6689 54.5121 15.0423 55.6758C14.5947 56.4813 13.7889 56.9287 12.8939 56.9287C12.5361 56.9286 12.1785 56.839 11.8206 56.6602C10.657 56.0336 10.2087 54.6011 10.8353 53.4375ZM183.055 52.1846C184.218 51.5584 185.65 52.0058 186.277 53.1689C186.903 54.3326 186.456 55.765 185.292 56.3916C184.934 56.5706 184.576 56.63 184.218 56.5703C183.323 56.5703 182.517 56.1229 182.07 55.3174C181.443 54.1538 181.891 52.7216 183.055 52.1846ZM17.8177 41.9805C18.6233 40.9065 20.0552 40.6376 21.1292 41.3535C22.2034 42.1591 22.4719 43.5919 21.6663 44.666C21.2188 45.382 20.5025 45.7402 19.7865 45.7402C19.3389 45.7402 18.8017 45.5605 18.4437 45.292C17.3699 44.4863 17.1017 43.0545 17.8177 41.9805ZM175.894 41.085C176.968 40.3692 178.489 40.5484 179.205 41.6221C180.011 42.6962 179.742 44.2185 178.668 44.9346C178.251 45.2328 177.803 45.3818 177.326 45.3818C176.52 45.3817 175.804 45.0238 175.357 44.3975C174.641 43.3233 174.82 41.8906 175.894 41.085ZM26.3206 31.5078C27.2158 30.5232 28.7374 30.434 29.722 31.3291C30.6171 32.2242 30.707 33.7459 29.8119 34.7305C29.3643 35.1779 28.7377 35.4462 28.0218 35.4463C27.4848 35.4463 26.9476 35.2669 26.4105 34.8193C25.5156 33.9243 25.4258 32.4029 26.3206 31.5078ZM167.301 31.1494C168.286 30.2547 169.807 30.2548 170.702 31.2393C171.597 32.1343 171.508 33.6557 170.613 34.5508C170.165 34.9983 169.538 35.2676 169.001 35.2676C168.375 35.2676 167.659 34.9988 167.211 34.4619C166.316 33.5668 166.406 32.0445 167.301 31.1494ZM36.1673 22.2881C37.1519 21.3931 38.6733 21.5724 39.4788 22.6465C40.3739 23.6311 40.1949 25.1524 39.2103 25.958C38.7628 26.316 38.2258 26.4951 37.6888 26.4951C36.9727 26.4951 36.2565 26.2262 35.8089 25.5996C35.0036 24.615 35.1828 23.0936 36.1673 22.2881ZM157.454 22.3779C158.35 21.3933 159.782 21.214 160.856 22.0195C161.84 22.9146 162.02 24.3468 161.214 25.4209C160.677 25.9579 160.05 26.3164 159.334 26.3164C158.797 26.3164 158.26 26.1372 157.813 25.7793C156.828 24.8842 156.649 23.452 157.454 22.3779ZM47.1771 14.501C48.2512 13.7849 49.7732 14.143 50.3997 15.3066C51.1154 16.3806 50.7573 17.8123 49.5941 18.5283C49.236 18.7969 48.7881 18.8867 48.43 18.8867C47.6245 18.8867 46.819 18.4387 46.3714 17.7227C45.6556 16.6486 46.0136 15.1275 47.1771 14.501ZM146.535 15.127C147.251 13.9636 148.683 13.6054 149.846 14.3213C150.92 14.9479 151.278 16.4698 150.562 17.5439C150.114 18.2599 149.399 18.7079 148.593 18.708C148.146 18.708 147.698 18.618 147.34 18.3496C146.177 17.6335 145.818 16.2011 146.535 15.127ZM59.0824 8.23438C60.3354 7.69771 61.6782 8.23531 62.2152 9.48828C62.752 10.6519 62.2146 12.0841 61.0511 12.6211C60.6932 12.7404 60.365 12.7998 60.0667 12.7998C59.1718 12.7998 58.2764 12.2631 57.9183 11.3682C57.3812 10.2045 57.9187 8.77144 59.0824 8.23438ZM134.719 9.30859C135.256 8.14529 136.599 7.60852 137.852 8.14551C139.015 8.59321 139.552 10.025 139.015 11.1885C138.657 12.0836 137.762 12.6211 136.867 12.6211C136.598 12.6211 136.24 12.6203 135.972 12.4414C134.719 11.9043 134.182 10.5617 134.719 9.30859ZM71.7923 3.75977C73.0454 3.40176 74.3882 4.11719 74.7464 5.37012C75.1045 6.62327 74.3879 7.96617 73.0453 8.32422L73.1351 8.23438C72.8965 8.35369 72.6579 8.41403 72.4193 8.41406C71.4347 8.41406 70.4496 7.698 70.181 6.62402C69.823 5.37097 70.5394 4.02844 71.7923 3.75977ZM122.187 5.28125C122.545 4.02825 123.798 3.22236 125.051 3.58008C126.394 3.93812 127.11 5.28103 126.752 6.53418C126.484 7.60823 125.499 8.23428 124.425 8.23438H123.798C122.545 7.78676 121.829 6.5342 122.187 5.28125ZM85.0404 0.984375C86.2934 0.805539 87.4571 1.70105 87.6361 2.9541C87.9043 4.2966 86.9194 5.45967 85.6663 5.63867C85.5471 5.69825 85.4281 5.72847 85.3089 5.72852C84.1453 5.72852 83.1609 4.83348 82.9818 3.66992C82.8028 2.32726 83.6977 1.1634 85.0404 0.984375ZM111.893 0.894531C113.146 1.07354 114.131 2.32702 113.952 3.58008C113.773 4.7437 112.789 5.63863 111.535 5.63867H111.267C109.924 5.45966 109.03 4.29663 109.208 2.9541C109.387 1.61161 110.55 0.715802 111.893 0.894531ZM98.4671 0C99.7201 0.000232375 100.794 1.07447 100.794 2.41699C100.794 3.66986 99.72 4.74391 98.4671 4.74414C97.1246 4.74414 96.0503 3.75947 96.0501 2.41699C96.0501 1.07433 97.1245 0 98.4671 0Z" fill="var(--fill-0, #D6BEEB)"/>
</svg>
