<svg preserveAspectRatio="none" width="100%" height="100%" overflow="visible" style="display: block;" viewBox="0 0 74.1151 74.1151" fill="none" xmlns="http://www.w3.org/2000/svg">
<path id="&#60;Compound Path&#62;" d="M37.147 74.1151C37.0874 74.1151 37.0576 74.1151 37.0576 74.1151C35.2673 74.1151 33.8352 72.6828 33.8352 70.8926C33.8352 69.1024 35.2673 67.6703 37.0576 67.6703C37.0576 67.6703 37.0874 67.6703 37.147 67.6703C38.9373 67.6703 40.4589 69.1024 40.4589 70.8926C40.4589 72.6828 39.0267 74.1151 37.2365 74.1151C37.1769 74.1151 37.147 74.1151 37.147 74.1151V74.1151ZM22.9148 71.3402C21.2141 70.6241 20.4085 68.7444 21.1246 67.1332C21.8406 65.4325 23.7204 64.6269 25.3316 65.343C27.0323 66.0591 27.8379 67.9388 27.1219 69.55C26.5848 70.8031 25.4211 71.6088 24.0785 71.6088C23.6607 71.6088 23.2728 71.5192 22.9148 71.3402ZM47.0827 69.55C46.4562 67.8493 47.1722 65.9695 48.873 65.2534C50.4841 64.6269 52.3639 65.343 53.08 67.0437C53.7961 68.6549 52.9905 70.5346 51.3793 71.2507C50.9616 71.4297 50.5438 71.5192 50.1261 71.5192C48.873 71.5192 47.6198 70.8031 47.0827 69.55V69.55ZM10.8308 63.2842C9.57765 62.031 9.57765 59.9723 10.8308 58.7192C12.1735 57.466 14.1428 57.466 15.4854 58.7192C16.7386 59.9723 16.7386 62.031 15.4854 63.2842C14.7693 63.9108 13.9637 64.2688 13.1581 64.2688C12.3525 64.2688 11.4574 63.9108 10.8308 63.2842V63.2842ZM58.7192 63.1947C57.466 61.9416 57.466 59.8828 58.7192 58.6297C59.9723 57.3765 62.031 57.3765 63.2842 58.6297C64.6269 59.8828 64.6269 61.9416 63.3738 63.1947C62.7472 63.8213 61.852 64.1793 61.0464 64.1793C60.2408 64.1793 59.4352 63.8213 58.7192 63.1947ZM2.86431 51.2898C2.14822 49.6786 2.95384 47.7093 4.56504 47.0827C6.26574 46.3666 8.14554 47.1723 8.77212 48.7835C9.4882 50.4842 8.68258 52.3639 7.07139 52.9904C6.65367 53.1695 6.23593 53.259 5.81821 53.259C4.56506 53.259 3.31186 52.5429 2.86431 51.2898V51.2898ZM67.1332 52.9009C65.4325 52.2744 64.6269 50.3051 65.343 48.6939C66.0591 47.0827 67.9388 46.2771 69.55 46.9037C71.2507 47.6198 72.0563 49.4995 71.3402 51.1107C70.8031 52.3639 69.6395 53.1695 68.3864 53.1695C67.9687 53.1695 67.5509 53.08 67.1332 52.9009ZM0 37.147C0 35.3568 1.43215 33.9246 3.22237 33.9246C5.01259 33.9246 6.44474 35.3568 6.44474 37.147C6.44474 38.9373 5.01259 40.3694 3.22237 40.3694C1.43215 40.3694 0 38.9373 0 37.147ZM67.5808 36.968C67.5808 35.1778 69.1024 33.7456 70.8031 33.7456C72.6829 33.7456 74.1151 35.1778 74.1151 36.968C74.1151 38.7582 72.6828 40.1904 70.8926 40.1904C69.1024 40.1904 67.6703 38.7582 67.5808 36.968ZM4.56504 27.2113C2.86433 26.4952 2.14824 24.6155 2.77482 22.9148C3.4909 21.3036 5.3707 20.498 6.9819 21.2141C8.68261 21.8406 9.4882 23.7204 8.77212 25.4211C8.23505 26.6742 7.07136 27.3903 5.81821 27.3903C5.40049 27.3903 4.98275 27.3306 4.56504 27.2113V27.2113ZM65.2535 25.3316C64.5374 23.6309 65.343 21.7512 67.0437 21.0351C68.6549 20.4085 70.5346 21.1246 71.2507 22.8253C71.9668 24.4365 71.1612 26.3162 69.55 27.0323C69.1322 27.2113 68.7146 27.3008 68.2969 27.3008C66.9542 27.3008 65.7906 26.5847 65.2535 25.3316V25.3316ZM10.8308 15.4854C9.57765 14.2322 9.57765 12.1734 10.8308 10.9203C12.084 9.66714 14.1427 9.66714 15.3958 10.9203C16.649 12.1734 16.649 14.2322 15.3958 15.4854C14.7693 16.112 13.9637 16.47 13.0686 16.47C12.263 16.47 11.4574 16.112 10.8308 15.4854ZM58.6297 15.3958C57.3765 14.1427 57.3765 12.084 58.6297 10.8308C59.8828 9.57765 61.9415 9.57765 63.1947 10.8308C64.4479 12.084 64.4479 14.1427 63.1947 15.3958C62.5681 16.0224 61.7625 16.3805 60.8674 16.3805C60.0618 16.3805 59.2562 16.0224 58.6297 15.3958ZM21.0351 7.07133C20.4085 5.46014 21.1246 3.58039 22.8253 2.86431C24.4365 2.14822 26.3162 2.95384 27.0323 4.56504C27.7483 6.26574 26.9428 8.14546 25.3316 8.86155C24.9139 9.04057 24.4962 9.13007 24.0785 9.13007C22.8253 9.13007 21.5721 8.32449 21.0351 7.07133V7.07133ZM48.694 8.77206C46.9933 8.14549 46.2772 6.26574 46.9038 4.56504C47.6198 2.95384 49.4995 2.14824 51.1107 2.77482C52.8114 3.49091 53.617 5.37062 52.9009 7.07133C52.3639 8.32449 51.2003 9.04058 49.9471 9.04058C49.5294 9.04058 49.1117 8.95108 48.694 8.77206ZM33.7456 3.31186C33.7456 1.52164 35.1778 0 36.9681 0C38.7583 0 40.1904 1.52166 40.1904 3.22237C40.1904 5.1021 38.7583 6.53429 36.9681 6.53429C35.1778 6.53429 33.7456 5.10208 33.7456 3.31186Z" fill="var(--fill-0, #D6BEEB)"/>
</svg>
