<svg preserveAspectRatio="none" width="100%" height="100%" overflow="visible" style="display: block;" viewBox="0 0 42.7043 42.18" fill="none" xmlns="http://www.w3.org/2000/svg">
<path id="&#60;Compound Path&#62;" d="M21.3646 42.18C19.4849 42.18 17.8737 40.5688 17.8737 38.6891C17.8737 36.8093 19.3953 35.2876 21.1855 35.2876C21.3049 35.2876 21.3944 35.2876 21.4541 35.2876C23.3338 35.1981 24.8556 36.8093 24.8556 38.6891C24.8556 40.5688 23.3338 42.18 21.4541 42.18C21.4541 42.18 21.4243 42.18 21.3646 42.18ZM7.49041 37.0779C5.96873 35.9142 5.7897 33.6765 7.04286 32.2443C8.29601 30.8121 10.4443 30.5436 11.8765 31.7968C13.3982 33.0499 13.5772 35.1982 12.324 36.7199C11.6974 37.5255 10.7128 37.8835 9.72819 37.8835C8.92259 37.8835 8.11699 37.6149 7.49041 37.0779ZM30.4052 36.6303C29.2416 35.1981 29.4206 33.0499 30.8527 31.7968C32.2849 30.5436 34.5227 30.7226 35.6864 32.1548C36.9395 33.5869 36.7605 35.8247 35.3283 37.0779C34.6122 37.6149 33.8961 37.8835 33.0905 37.8835C32.1059 37.8835 31.1213 37.4359 30.4052 36.6303ZM0.0609601 24.2778C-0.297084 22.3981 0.956135 20.6078 2.92538 20.3393C4.71559 19.9813 6.50573 21.2344 6.86377 23.1142C7.22181 24.9939 5.96868 26.7841 4.08895 27.1422C3.85026 27.1422 3.64144 27.1422 3.46242 27.1422C1.85122 27.1422 0.419004 25.9785 0.0609601 24.2778V24.2778ZM38.6402 27.0526C36.7604 26.6946 35.5073 24.9044 35.8653 23.0246C36.1339 21.1449 37.9241 19.8918 39.8038 20.2498C41.6836 20.5183 42.9367 22.3086 42.6681 24.1883C42.3996 25.889 40.878 27.1422 39.2668 27.1422C39.0878 27.1422 38.8789 27.1123 38.6402 27.0526V27.0526ZM3.90997 14.4316C2.20927 13.5365 1.67218 11.3882 2.6568 9.77703C3.55191 8.07632 5.70013 7.53929 7.31133 8.52391C9.01203 9.41902 9.5491 11.5672 8.65399 13.1784C7.9379 14.3421 6.77435 14.9686 5.6107 14.9686C5.01396 14.9686 4.44704 14.7896 3.90997 14.4316V14.4316ZM34.0751 13.1784C33.0905 11.4777 33.6276 9.41898 35.3283 8.43436C36.9395 7.44974 39.0878 8.07634 40.0724 9.68754C40.9675 11.2987 40.4304 13.447 38.8192 14.4316C38.2822 14.7001 37.6556 14.8792 37.029 14.8792C35.8654 14.8792 34.7017 14.2526 34.0751 13.1784ZM11.8765 4.67489C11.2499 2.88467 12.1449 0.915465 13.9352 0.288889C15.7254 -0.427199 17.6946 0.467921 18.3212 2.25814C19.0373 4.13787 18.0526 6.10711 16.2624 6.73369C15.9044 6.91271 15.5464 6.91267 15.0988 6.91267C13.6667 6.91267 12.4135 6.10707 11.8765 4.67489V4.67489ZM26.3772 6.73369C24.587 6.10711 23.6023 4.04836 24.3184 2.25814C24.945 0.467921 26.9142 -0.427232 28.7045 0.199345C30.4947 0.825921 31.3898 2.88467 30.7633 4.67489C30.2262 6.01756 28.9731 6.91267 27.5409 6.91267C27.1232 6.91267 26.7352 6.85304 26.3772 6.73369V6.73369Z" fill="var(--fill-0, #D6BEEB)"/>
</svg>
