<svg preserveAspectRatio="none" width="100%" height="100%" overflow="visible" style="display: block;" viewBox="0 0 345.731 413.898" fill="none" xmlns="http://www.w3.org/2000/svg">
<path id="Subtract" d="M207.039 412.198C207.576 412.019 208.202 412.467 208.202 413.004C208.202 413.541 207.844 413.898 207.308 413.898H206.859C206.323 413.898 205.965 413.541 205.965 413.004C205.965 412.467 206.592 412.019 207.039 412.198ZM192.27 412.377C192.359 411.929 192.717 411.66 193.165 411.75C193.612 411.75 193.971 412.108 193.971 412.556C193.971 413.093 193.612 413.451 193.075 413.451H192.896C192.449 413.272 192.091 412.825 192.27 412.377ZM179.47 410.318C179.917 410.408 180.275 410.766 180.275 411.213C180.275 411.66 179.917 412.108 179.38 412.108C179.32 412.108 179.261 412.078 179.201 412.019C178.664 411.929 178.395 411.482 178.574 411.034C178.664 410.587 179.022 410.318 179.47 410.318ZM164.969 408.976C164.969 408.349 165.596 407.991 166.133 408.08C166.58 408.259 166.758 408.797 166.669 409.244C166.49 409.602 166.221 409.781 165.863 409.781H165.685C165.237 409.692 164.969 409.334 164.969 408.976ZM151.542 405.574C151.721 405.127 152.169 404.768 152.616 404.947L152.169 406.559C151.721 406.469 151.453 406.022 151.542 405.574ZM138.384 401.367C138.473 400.92 139.01 400.651 139.458 400.74L139.011 402.441C138.563 402.352 138.294 401.904 138.384 401.367ZM125.584 396.176C125.852 395.818 126.3 395.728 126.747 395.907C127.105 396.086 127.285 396.534 127.195 396.981C127.016 397.339 126.748 397.518 126.39 397.518H126.121C126.002 397.458 125.912 397.429 125.853 397.429C125.495 397.16 125.316 396.623 125.584 396.176ZM113.053 390.626C113.142 390.179 113.678 389.91 114.126 390.089C114.186 390.089 114.246 390.118 114.306 390.178C114.753 390.446 114.843 390.984 114.574 391.342C114.395 391.61 114.127 391.789 113.858 391.789C113.739 391.789 113.589 391.73 113.41 391.61C113.052 391.431 112.874 390.984 113.053 390.626ZM100.969 384.002C101.058 383.555 101.595 383.286 102.042 383.465C102.102 383.465 102.162 383.495 102.222 383.555C102.669 383.823 102.758 384.36 102.49 384.718C102.311 384.986 102.043 385.076 101.774 385.076C101.655 385.076 101.505 385.046 101.326 384.986C100.968 384.807 100.79 384.36 100.969 384.002ZM89.5107 376.215C89.8688 375.857 90.4056 375.857 90.7637 376.215C91.2111 376.483 91.2117 376.93 90.9434 377.378C90.7643 377.557 90.4951 377.736 90.2266 377.736C90.0479 377.736 89.8691 377.677 89.6904 377.558C89.6308 377.498 89.5704 377.468 89.5107 377.468C89.2423 377.11 89.2424 376.573 89.5107 376.215ZM78.501 368.069C78.7695 367.711 79.307 367.711 79.665 368.069C80.1122 368.338 80.1122 368.786 79.8438 369.144C79.754 369.412 79.3963 369.501 79.1279 369.501C78.949 369.501 78.7697 369.472 78.5908 369.412C78.5311 369.352 78.501 369.292 78.501 369.232C78.1432 368.874 78.1432 368.338 78.501 368.069ZM68.1182 359.028C68.3867 358.76 68.8344 358.85 69.1924 359.118C69.4606 359.387 69.5497 359.834 69.2812 360.192C69.1022 360.461 68.8338 360.64 68.5654 360.64C68.3866 360.64 68.2375 360.58 68.1182 360.461C67.999 360.401 67.9093 360.312 67.8496 360.192C67.5811 359.834 67.6706 359.297 68.1182 359.028ZM58.0928 349.54C58.3613 349.182 58.9872 349.182 59.2559 349.54C59.6139 349.898 59.6139 350.435 59.2559 350.793C59.0769 350.972 58.8685 351.061 58.6299 351.062C58.4509 351.062 58.2718 350.972 58.0928 350.793C57.7349 350.435 57.7348 349.898 58.0928 349.54ZM48.6943 339.515C48.9629 339.067 49.4999 338.978 49.9473 339.246C50.0069 339.306 50.0664 339.395 50.126 339.515C50.3945 339.873 50.3052 340.41 49.9473 340.679C49.7683 340.798 49.5891 340.857 49.4102 340.857C49.2312 340.857 48.9622 340.768 48.7832 340.5C48.5147 340.231 48.5153 339.783 48.6943 339.515ZM40.2803 328.595C40.6383 328.237 41.1752 328.237 41.5332 328.595L41.623 328.685C41.8912 329.132 41.8017 329.669 41.3545 329.938C41.2351 329.997 41.0853 330.026 40.9062 330.026C40.6378 330.026 40.3694 329.937 40.1904 329.669C39.9219 329.4 40.0117 328.863 40.2803 328.595ZM32.8506 317.048C33.2086 316.869 33.6559 317.048 33.835 317.406C34.1033 317.854 33.9244 318.301 33.5664 318.569C33.4471 318.689 33.2981 318.748 33.1191 318.748C32.8506 318.748 32.5823 318.569 32.4033 318.301C32.3437 318.241 32.3135 318.182 32.3135 318.122C32.1345 317.675 32.403 317.137 32.8506 317.048ZM25.7793 305.143C26.2268 305.053 26.6745 305.233 26.8535 305.591C27.0322 305.949 26.9427 306.485 26.585 306.754C26.406 306.814 26.2268 306.844 26.0479 306.844C25.7794 306.844 25.5111 306.754 25.332 306.485C25.332 306.426 25.3017 306.366 25.2422 306.307C25.0632 305.859 25.3317 305.322 25.7793 305.143ZM19.4238 292.97C19.7819 292.791 20.3194 292.88 20.5879 293.238C20.6473 293.298 20.6768 293.388 20.6768 293.507C20.8555 293.954 20.5871 294.401 20.1396 294.58H19.8711C19.5132 294.58 19.2444 294.401 19.0654 294.133C18.8866 293.685 19.066 293.238 19.4238 292.97ZM13.9639 280.349C14.4114 280.08 14.9483 280.17 15.2168 280.617C15.2764 280.677 15.3066 280.736 15.3066 280.796C15.4855 281.243 15.2169 281.781 14.7695 281.87C14.6503 281.93 14.5607 281.959 14.501 281.959C14.1431 281.959 13.8743 281.781 13.6953 281.423C13.5163 281.065 13.6059 280.617 13.9639 280.349ZM9.75684 267.19C10.2044 267.101 10.652 267.369 10.8311 267.906C10.9206 268.354 10.6517 268.801 10.2041 268.891C10.1444 268.95 10.0549 268.98 9.93555 268.98C9.5776 268.98 9.30887 268.711 9.12988 268.354V268.265C9.04037 267.817 9.30928 267.369 9.75684 267.19ZM6.35547 253.942C6.80281 253.942 7.16092 254.211 7.16113 254.658C7.25064 255.016 7.07153 255.465 6.62402 255.644H6.35547C5.99752 255.644 5.63944 255.464 5.5498 255.106C5.49021 254.987 5.46004 254.898 5.45996 254.838C5.45996 254.301 5.90791 253.942 6.35547 253.942ZM3.58008 240.427C4.02763 240.427 4.38607 240.785 4.47559 241.143C4.56504 241.59 4.29615 242.037 3.84863 242.127C3.78896 242.187 3.69936 242.217 3.58008 242.217C3.22221 242.217 2.95338 241.948 2.77441 241.59V241.321C2.77451 240.784 3.13275 240.427 3.58008 240.427ZM1.61133 226.82C2.05878 226.731 2.50617 227 2.5957 227.447C2.65537 227.507 2.68554 227.596 2.68555 227.716C2.68555 228.163 2.23759 228.521 1.79004 228.521C1.34259 228.521 0.985025 228.163 0.895508 227.716C0.895519 227.358 1.16378 226.91 1.61133 226.82ZM0.895508 213.036C1.34272 213.036 1.70092 213.483 1.70117 213.931C1.70117 214.378 1.34288 214.826 0.895508 214.826C0.358442 214.826 0 214.378 0 213.931C0.000251564 213.483 0.358631 213.036 0.895508 213.036ZM0.895508 199.251C1.34288 199.251 1.70117 199.699 1.70117 200.146C1.70117 200.594 1.34288 201.042 0.895508 201.042C0.358442 201.042 0 200.684 0 200.146C1.51164e-07 199.699 0.358442 199.251 0.895508 199.251ZM0.895508 186.183C1.0746 185.735 1.52225 185.467 1.96973 185.557C2.41695 185.736 2.68518 186.094 2.5957 186.541C2.59559 186.988 2.23753 187.347 1.79004 187.347C1.25307 187.347 0.895508 186.899 0.895508 186.451V186.183ZM3.58008 171.95C4.02755 171.95 4.47542 172.308 4.47559 172.756C4.47559 172.875 4.44542 172.965 4.38574 173.024C4.29623 173.472 3.93812 173.651 3.58008 173.651H3.31152C2.86437 173.472 2.68519 173.025 2.77441 172.667C2.77441 172.22 3.13269 171.95 3.58008 171.95ZM6.26562 158.435C6.80269 158.435 7.16113 158.793 7.16113 159.24V159.598C6.98211 159.956 6.62367 160.135 6.26562 160.135H5.99707C5.63916 159.956 5.37047 159.508 5.45996 159.15C5.54948 158.703 5.90764 158.435 6.26562 158.435ZM9.04102 145.813C9.21998 145.366 9.66687 145.008 10.1143 145.187C10.5618 145.276 10.8307 145.724 10.7412 146.172L9.04102 145.813ZM13.6953 132.565C13.8744 132.118 14.411 132.029 14.8584 132.208C15.2164 132.387 15.3957 132.924 15.2168 133.371C15.1273 133.729 14.7692 133.908 14.4111 133.908C14.3515 133.908 14.2618 133.879 14.1426 133.819C13.6952 133.73 13.4268 133.193 13.6055 132.745C13.6055 132.685 13.6356 132.625 13.6953 132.565ZM19.0654 119.766C19.334 119.408 19.8718 119.318 20.3193 119.587C20.6771 119.766 20.7668 120.303 20.5879 120.661C20.4983 120.93 20.1401 121.198 19.7822 121.198C19.7226 121.198 19.6329 121.168 19.5137 121.108C19.0661 120.929 18.7975 120.482 18.9766 120.034C19.0362 119.975 19.0654 119.885 19.0654 119.766ZM26.3164 107.145C26.7639 107.324 27.0325 107.771 26.8535 108.219C26.8535 108.338 26.8233 108.428 26.7637 108.487C26.5847 108.756 26.3163 108.846 26.0479 108.846C25.8689 108.846 25.6897 108.816 25.5107 108.756C25.1527 108.487 25.0632 107.95 25.2422 107.592C25.5107 107.234 25.869 107.055 26.3164 107.145ZM32.3135 95.6875C32.4925 95.3295 32.9398 95.1502 33.2979 95.3291C33.7454 95.5081 34.014 95.9558 33.835 96.4033C33.835 96.463 33.8057 96.5526 33.7461 96.6719C33.5671 96.8509 33.2978 97.0303 33.0293 97.0303C32.8504 97.0302 32.7013 96.9699 32.582 96.8506C32.2241 96.5821 32.0452 96.1349 32.3135 95.6875ZM40.2803 84.1406C40.5488 83.8721 41.1748 83.8721 41.4434 84.1406C41.8013 84.4987 41.8014 85.0355 41.4434 85.3936C41.3538 85.6619 41.0857 85.7519 40.8174 85.752C40.6384 85.752 40.4592 85.6916 40.2803 85.5723C39.9223 85.3038 39.8322 84.6774 40.1006 84.3193C40.1603 84.2597 40.2206 84.2003 40.2803 84.1406ZM48.9629 73.2197C49.3209 72.9517 49.8575 73.1305 50.126 73.4883C50.3049 73.8462 50.3053 74.2939 50.0371 74.5625C49.8581 74.7415 49.5892 74.831 49.4102 74.8311C49.2311 74.8311 49.0521 74.8009 48.873 74.7412C48.5151 74.4726 48.4258 73.9358 48.6943 73.4883L48.9629 73.2197ZM58.0029 63.1055C58.3609 62.837 58.8978 62.837 59.2559 63.1055C59.6139 63.4635 59.6139 64.0004 59.2559 64.3584C59.0769 64.5372 58.8684 64.6269 58.6299 64.627C58.3912 64.627 58.182 64.5374 58.0029 64.3584C57.645 64.0004 57.6449 63.4629 58.0029 63.1943V63.1055ZM67.9385 53.5273C68.207 53.2588 68.6547 53.2595 69.0127 53.4385C69.3707 53.707 69.5498 54.2439 69.2812 54.6914C69.162 54.751 69.0723 54.8105 69.0127 54.8701C68.8337 54.9894 68.6546 55.0488 68.4756 55.0488C68.2072 55.0488 67.9387 54.9598 67.7598 54.6914C67.5808 54.3334 67.5805 53.7959 67.9385 53.5273ZM344.17 53.4385C344.349 53.0805 344.886 52.9904 345.333 53.2588C345.452 53.3184 345.542 53.4081 345.602 53.5273C345.87 53.8854 345.691 54.4229 345.333 54.6914C345.214 54.8106 345.065 54.8701 344.886 54.8701C344.647 54.8701 344.438 54.7806 344.259 54.6016C343.99 54.333 343.902 53.8858 344.17 53.4385ZM78.501 44.5762C78.859 44.3077 79.307 44.3975 79.665 44.666C79.9334 45.024 79.9333 45.561 79.665 45.9189C79.6054 45.9189 79.545 45.9491 79.4854 46.0088C79.366 46.128 79.217 46.1875 79.0381 46.1875C78.7696 46.1875 78.5013 46.0087 78.3223 45.7402C78.0537 45.3822 78.1429 44.8447 78.501 44.5762ZM333.518 44.5762C333.786 44.1289 334.412 44.1292 334.771 44.3975C334.83 44.3975 334.891 44.4276 334.95 44.4873C335.308 44.8453 335.308 45.3819 334.95 45.6504C334.771 45.8294 334.562 45.9189 334.323 45.9189C334.085 45.9189 333.876 45.8293 333.697 45.6504C333.339 45.4714 333.249 44.9342 333.518 44.5762ZM89.6006 36.4307C89.8692 36.1623 90.4063 36.1626 90.6748 36.5205C91.0327 36.7891 91.0328 37.4161 90.6748 37.6846C90.6747 37.7441 90.6445 37.8038 90.585 37.8633C90.406 37.9229 90.2268 37.9531 90.0479 37.9531C89.7794 37.9531 89.511 37.8631 89.332 37.5947C89.153 37.2367 89.2425 36.6992 89.6006 36.4307ZM322.418 36.3418C322.687 35.9838 323.314 35.8936 323.672 36.1621C323.732 36.2218 323.791 36.2821 323.851 36.3418C324.208 36.6103 324.208 37.1469 323.851 37.5049C323.672 37.6839 323.462 37.7734 323.224 37.7734C322.985 37.7733 322.777 37.6838 322.598 37.5049C322.24 37.2364 322.15 36.7892 322.418 36.3418ZM101.416 28.9121C101.864 28.7332 102.311 29.0017 102.49 29.4492C102.669 29.8072 102.489 30.2546 102.042 30.4336C101.923 30.4931 101.804 30.5234 101.685 30.5234C101.416 30.5234 101.148 30.4335 100.969 30.165C100.7 29.807 100.79 29.2705 101.147 29.002C101.267 28.9423 101.356 28.9121 101.416 28.9121ZM310.871 29.002C311.14 28.6439 311.677 28.5544 312.035 28.7334C312.393 28.9125 312.572 29.3601 312.482 29.8076C312.303 30.1653 312.035 30.3438 311.677 30.3438H311.319C311.26 30.2841 311.199 30.2549 311.14 30.2549C310.782 29.9864 310.603 29.4493 310.871 29.002ZM113.5 22.1992C113.948 22.1097 114.395 22.3777 114.574 22.8252C114.664 23.1832 114.484 23.6305 114.126 23.8096C114.007 23.8692 113.858 23.8994 113.679 23.8994C113.41 23.8994 113.142 23.8095 112.963 23.541C112.695 23.183 112.873 22.6464 113.231 22.3779C113.291 22.3183 113.381 22.2589 113.5 22.1992ZM298.787 22.3779C299.056 22.0199 299.593 21.9304 299.951 22.1094C300.309 22.2884 300.488 22.7361 300.398 23.1836C300.219 23.5414 299.951 23.7207 299.593 23.7207H299.235C299.176 23.661 299.115 23.6309 299.056 23.6309C298.698 23.3623 298.519 22.8253 298.787 22.3779ZM125.853 16.4697C126.211 16.2909 126.658 16.3804 126.927 16.7383C127.195 17.1858 127.106 17.7237 126.658 17.9922C126.599 18.0518 126.538 18.0811 126.479 18.0811H126.21C125.852 18.0809 125.495 17.9018 125.405 17.5439C125.226 17.0964 125.405 16.6487 125.853 16.4697ZM286.166 16.8281C286.345 16.3806 286.883 16.1121 287.33 16.291C287.39 16.291 287.449 16.3212 287.509 16.3809C287.956 16.6494 288.046 17.1859 287.777 17.5439C287.598 17.8125 287.33 17.9922 287.062 17.9922C286.942 17.9922 286.822 17.962 286.703 17.9023C286.256 17.7233 286.077 17.2755 286.166 16.8281ZM138.831 11.457C139.279 11.3675 139.727 11.6364 139.816 12.084C139.995 12.5315 139.726 12.9792 139.189 13.1582H139.011C138.653 13.1582 138.295 12.8893 138.205 12.5312C138.026 12.0838 138.295 11.636 138.742 11.457H138.831ZM274.352 11.2783C274.888 11.4574 275.157 11.9051 274.978 12.3525C274.888 12.7106 274.53 12.9795 274.172 12.9795H273.993L274.352 11.2783ZM151.989 7.33984C152.437 7.25033 152.885 7.51924 152.975 7.9668C153.153 8.50369 152.795 8.95153 152.348 9.04102H152.169C151.811 9.04102 151.453 8.86157 151.363 8.41406C151.184 8.05602 151.453 7.5192 151.9 7.42969C151.902 7.42849 151.931 7.39821 151.989 7.33984ZM261.193 7.25C261.73 7.33968 261.998 7.87681 261.819 8.32422C261.73 8.68226 261.372 8.95117 261.014 8.95117H260.835L261.193 7.25ZM165.237 4.20703C165.774 4.02807 166.4 4.47565 166.4 5.0127C166.4 5.46023 166.132 5.8187 165.685 5.9082H165.506C165.148 5.9082 164.879 5.63926 164.7 5.28125C164.611 4.8337 164.79 4.38605 165.237 4.20703ZM247.767 4.11719C248.214 4.11736 248.482 4.47552 248.482 4.92285C248.482 5.37041 248.124 5.81836 247.587 5.81836C247.527 5.81823 247.437 5.78806 247.318 5.72852C246.871 5.63877 246.602 5.10172 246.781 4.6543C246.96 4.20681 247.319 4.02768 247.767 4.11719ZM179.021 1.87988C179.469 1.79037 179.828 2.05928 180.007 2.50684C180.096 2.95427 179.827 3.49057 179.38 3.58008H179.111C178.664 3.58003 178.217 3.22194 178.217 2.77441C178.217 2.32716 178.574 1.88018 179.021 1.87988ZM234.25 1.79004C234.698 1.96904 234.966 2.41675 234.877 2.86426C234.787 3.31176 234.429 3.58002 234.071 3.58008C234.012 3.58008 233.982 3.55071 233.981 3.49121C233.534 3.49115 233.176 3.13296 233.176 2.68555C233.176 2.14854 233.713 1.70065 234.25 1.79004ZM192.717 0.537109C193.164 0.447598 193.522 0.716508 193.701 1.16406C193.791 1.61145 193.523 2.05826 193.075 2.2373H192.807C192.359 2.2373 191.911 1.79029 191.911 1.34277C191.911 0.895302 192.269 0.537242 192.717 0.537109ZM220.555 0.447266C221.002 0.626258 221.271 1.074 221.182 1.52148C221.092 1.96903 220.734 2.14843 220.376 2.14844H220.286C219.839 2.14826 219.481 1.79017 219.48 1.34277C219.48 0.805801 220.018 0.357957 220.555 0.447266ZM206.591 0C207.038 0 207.486 0.447953 207.486 0.895508C207.486 1.34293 207.038 1.79004 206.591 1.79004C206.144 1.78976 205.697 1.34279 205.696 0.895508C205.696 0.44807 206.054 0.000234237 206.591 0Z" fill="var(--fill-0, #D6BEEB)"/>
</svg>
