<svg preserveAspectRatio="none" width="100%" height="100%" overflow="visible" style="display: block;" viewBox="0 0 166.247 166.759" fill="none" xmlns="http://www.w3.org/2000/svg">
<path id="&#60;Compound Path&#62;" d="M80.4899 164.163C80.4899 162.731 81.6535 161.567 83.0857 161.567C83.1454 161.567 83.1752 161.567 83.1752 161.567C83.2945 161.567 83.3841 161.567 83.4438 161.567C84.876 161.567 86.0395 162.731 86.0395 164.163C86.0395 165.595 84.876 166.759 83.4438 166.759C83.3841 166.759 83.3244 166.759 83.2647 166.759C83.205 166.759 83.1454 166.759 83.0857 166.759C81.6535 166.759 80.4899 165.595 80.4899 164.163V164.163ZM69.3905 165.595C67.9583 165.416 66.9737 164.074 67.2422 162.641C67.5107 161.209 68.7639 160.314 70.1961 160.493C71.6283 160.762 72.6129 162.104 72.3444 163.447C72.1654 164.7 71.0017 165.685 69.838 165.685C69.659 165.685 69.5098 165.655 69.3905 165.595ZM94.1851 163.447C93.9166 162.015 94.9011 160.672 96.2438 160.404C97.6759 160.225 99.0186 161.12 99.2872 162.552C99.4662 163.984 98.5711 165.327 97.1389 165.595C97.0195 165.595 96.8703 165.595 96.6913 165.595C95.4382 165.595 94.3641 164.7 94.1851 163.447ZM56.0533 162.283C54.7107 161.746 53.9051 160.314 54.4422 158.971C54.8898 157.629 56.3219 156.913 57.6646 157.36C59.0968 157.808 59.7234 159.329 59.2758 160.672C58.9178 161.746 57.9331 162.373 56.859 162.373C56.5606 162.373 56.292 162.343 56.0533 162.283V162.283ZM107.164 160.493C106.717 159.15 107.433 157.718 108.775 157.271C110.118 156.734 111.55 157.45 112.087 158.882C112.535 160.225 111.819 161.657 110.476 162.104C110.178 162.224 109.879 162.283 109.581 162.283C108.596 162.283 107.522 161.567 107.164 160.493ZM43.4323 156.734C42.1792 156.018 41.6421 154.496 42.3582 153.243C43.0743 151.99 44.596 151.453 45.8492 152.169C47.1023 152.885 47.6394 154.406 46.9233 155.66C46.4757 156.555 45.5806 157.002 44.596 157.002C44.238 157.002 43.7904 156.913 43.4323 156.734V156.734ZM119.517 155.481C118.801 154.227 119.338 152.706 120.591 151.99C121.844 151.273 123.366 151.811 124.082 153.064C124.798 154.317 124.261 155.839 123.008 156.555C122.65 156.734 122.202 156.913 121.844 156.913C120.859 156.913 119.964 156.376 119.517 155.481V155.481ZM31.8854 149.215C30.7218 148.32 30.5427 146.708 31.4378 145.545C32.3329 144.381 33.9442 144.202 35.1079 145.097C36.182 145.992 36.361 147.604 35.5554 148.767C35.0184 149.394 34.2127 149.752 33.4966 149.752C32.8701 149.752 32.3329 149.573 31.8854 149.215ZM130.885 148.499C129.989 147.424 130.168 145.813 131.332 144.918C132.496 144.023 134.107 144.202 135.002 145.366C135.897 146.44 135.629 148.051 134.554 148.946C134.017 149.304 133.48 149.573 132.943 149.573C132.138 149.573 131.422 149.215 130.885 148.499ZM21.7707 139.816C20.7861 138.831 20.8756 137.131 21.9497 136.236C22.9343 135.251 24.635 135.341 25.5301 136.325C26.5148 137.399 26.5148 139.01 25.4406 139.995C24.9036 140.443 24.277 140.711 23.6504 140.711C22.9343 140.711 22.3078 140.443 21.7707 139.816ZM140.999 139.816C139.925 138.831 139.836 137.131 140.82 136.146C141.805 135.072 143.416 134.982 144.49 135.967C145.475 136.952 145.564 138.563 144.669 139.637C144.669 139.637 144.639 139.637 144.58 139.637C144.132 140.174 143.416 140.443 142.7 140.443C142.073 140.443 141.447 140.264 140.999 139.816V139.816ZM13.2672 128.985C12.5511 127.822 12.8196 126.21 14.0727 125.405C15.2364 124.599 16.8476 124.957 17.6532 126.121C18.4588 127.374 18.1008 128.985 16.8476 129.791C16.4299 130.03 15.9823 130.149 15.505 130.149C14.6098 130.149 13.8042 129.791 13.2672 128.985ZM149.503 129.522C148.25 128.717 147.892 127.106 148.697 125.942C149.503 124.689 151.114 124.331 152.278 125.136C153.531 125.942 153.799 127.553 152.994 128.717C152.546 129.522 151.741 129.88 150.845 129.88C150.368 129.88 149.92 129.761 149.503 129.522V129.522ZM6.73284 116.901C6.19577 115.648 6.73284 114.126 8.0755 113.5C9.41817 112.963 10.8504 113.5 11.477 114.843C12.014 116.185 11.477 117.707 10.1343 118.244C9.77626 118.363 9.4182 118.423 9.06016 118.423C8.07554 118.423 7.18039 117.886 6.73284 116.901V116.901ZM156.127 117.975C154.873 117.349 154.247 115.827 154.784 114.484C155.411 113.231 156.932 112.605 158.185 113.231C159.528 113.768 160.155 115.29 159.528 116.633C159.17 117.617 158.185 118.154 157.201 118.154C156.843 118.154 156.485 118.095 156.127 117.975ZM2.25729 103.922C1.89925 102.49 2.70488 101.147 4.13706 100.789C5.47972 100.431 6.91189 101.237 7.26994 102.669C7.62798 104.012 6.82235 105.444 5.39018 105.802C5.15148 105.862 4.94266 105.891 4.76364 105.891C3.6 105.891 2.52583 105.086 2.25729 103.922ZM160.871 105.444C159.439 105.086 158.633 103.654 158.991 102.311C159.349 100.879 160.692 100.073 162.124 100.431C163.466 100.789 164.362 102.132 164.004 103.564C163.735 104.728 162.661 105.533 161.497 105.533C161.259 105.533 161.05 105.504 160.871 105.444ZM0.0195198 90.3165C-0.159502 88.8843 0.914662 87.6312 2.34684 87.5417C3.77901 87.4522 5.03214 88.5263 5.12165 89.869C5.30068 91.3011 4.22657 92.5543 2.79439 92.7333C2.73472 92.7333 2.67503 92.7333 2.61536 92.7333C1.27269 92.7333 0.109031 91.6592 0.0195198 90.3165ZM163.377 92.3753C161.945 92.2858 160.871 90.9431 161.05 89.6004C161.139 88.1683 162.392 87.0941 163.825 87.1836C165.257 87.2731 166.331 88.5263 166.241 89.9585C166.062 91.3012 164.988 92.3753 163.646 92.3753C163.586 92.3753 163.496 92.3753 163.377 92.3753ZM2.34684 79.3962C0.914662 79.2172 -0.159502 77.964 0.0195198 76.5319C0.109031 75.1892 1.36222 74.115 2.79439 74.2045C4.22657 74.2941 5.21117 75.5472 5.12165 76.9794C5.03214 78.3221 3.86853 79.3962 2.52587 79.3962C2.4662 79.3962 2.40651 79.3962 2.34684 79.3962ZM160.96 76.6213C160.871 75.2787 161.945 73.936 163.377 73.8465C164.809 73.757 166.062 74.8312 166.152 76.2633C166.241 77.606 165.257 78.8591 163.825 79.0382C163.705 79.0382 163.616 79.0382 163.556 79.0382C162.213 79.0382 161.139 77.964 160.96 76.6213ZM4.04751 66.1486C2.70485 65.7905 1.89927 64.3583 2.1678 63.0157C2.52585 61.5835 3.958 60.7779 5.39018 61.136C6.73284 61.494 7.53847 62.8367 7.26994 64.2688C6.91189 65.4325 5.92725 66.2381 4.6741 66.2381C4.49508 66.2381 4.28621 66.2082 4.04751 66.1486ZM158.812 63.9108C158.454 62.5681 159.349 61.1359 160.692 60.7779C162.124 60.4199 163.466 61.2255 163.825 62.6577C164.183 64.0003 163.377 65.4325 162.034 65.7905C161.796 65.8502 161.557 65.88 161.318 65.88C160.155 65.88 159.17 65.0744 158.812 63.9108ZM7.98601 53.3485C6.64335 52.8114 6.10629 51.2898 6.64335 49.9471C7.26993 48.6044 8.7916 48.0674 10.0448 48.6044C11.3874 49.231 12.014 50.7527 11.3874 52.0058C10.9399 52.9905 10.0448 53.617 9.06016 53.617C8.70211 53.617 8.34406 53.5275 7.98601 53.3485V53.3485ZM154.605 51.7373C154.068 50.3947 154.605 48.873 155.948 48.3359C157.201 47.7093 158.812 48.3359 159.349 49.6786C159.886 50.9317 159.349 52.4534 158.006 53.08C157.648 53.1993 157.32 53.259 157.022 53.259C155.948 53.259 155.053 52.7219 154.605 51.7373ZM13.9833 41.4436C12.7301 40.638 12.4616 39.0268 13.1776 37.8631C13.9832 36.6995 15.5944 36.3414 16.7581 37.0575C18.0112 37.8631 18.2798 39.4743 17.5637 40.6379C17.0266 41.4435 16.221 41.8911 15.4154 41.8911C14.8783 41.8911 14.401 41.7419 13.9833 41.4436ZM148.429 40.3694C147.623 39.2058 147.981 37.5946 149.145 36.789C150.398 36.0729 152.009 36.3414 152.725 37.5946C153.531 38.7582 153.173 40.3694 152.009 41.175C151.562 41.4436 151.114 41.6226 150.577 41.6226C149.771 41.6226 148.966 41.175 148.429 40.3694ZM21.7707 30.6128C20.7861 29.7176 20.6966 28.0169 21.6812 26.9428C22.5763 25.9582 24.277 25.8687 25.3512 26.8533C26.3358 27.7484 26.4253 29.4491 25.4406 30.4337C24.9931 31.0603 24.277 31.3288 23.5609 31.3288C22.9344 31.3288 22.3078 31.0603 21.7707 30.6128ZM140.462 30.2547C139.478 29.1806 139.567 27.5694 140.641 26.5848C141.626 25.6001 143.327 25.6896 144.311 26.7637C145.206 27.7484 145.206 29.4491 144.132 30.3442C143.595 30.8812 142.968 31.0603 142.342 31.0603C141.715 31.0603 140.999 30.7918 140.462 30.2547ZM31.3483 21.3036C30.4532 20.14 30.6323 18.5288 31.7959 17.6337C32.87 16.7386 34.4812 16.9176 35.3763 18.0812C36.2714 19.2449 36.0924 20.856 34.9288 21.7511C34.4812 22.1092 33.9442 22.2882 33.3177 22.2882C32.6016 22.2882 31.7959 21.9302 31.3483 21.3036ZM130.974 21.5721C129.81 20.677 129.631 19.0658 130.527 17.9022C131.332 16.7385 133.033 16.5595 134.107 17.4546C135.271 18.3497 135.45 19.9609 134.554 21.0351C134.107 21.7512 133.301 22.1092 132.496 22.1092C131.959 22.1092 131.422 21.9302 130.974 21.5721ZM42.1791 13.6057C41.5526 12.3525 42.0002 10.7413 43.2533 10.1147C44.5065 9.39864 46.1177 9.84617 46.7443 11.0993C47.4604 12.3525 47.0127 13.9637 45.7596 14.6798C45.3419 14.8588 44.9242 14.9483 44.5065 14.9483C43.6114 14.9483 42.7162 14.5008 42.1791 13.6057V13.6057ZM120.143 14.5008C118.89 13.7847 118.353 12.263 119.069 11.0098C119.785 9.75668 121.307 9.21961 122.56 9.93569C123.813 10.5623 124.35 12.1735 123.634 13.4266C123.187 14.3218 122.291 14.7693 121.307 14.7693C120.889 14.7693 120.501 14.6798 120.143 14.5008V14.5008ZM54.2631 7.87695C53.8156 6.44478 54.5317 5.01259 55.8744 4.56504C57.217 4.02797 58.6492 4.74405 59.1862 6.17622C59.6338 7.51889 58.9178 8.95109 57.5751 9.39865C57.2767 9.518 56.9784 9.57768 56.68 9.57768C55.6059 9.57768 54.6212 8.86157 54.2631 7.87695ZM108.328 9.30911C106.985 8.86155 106.18 7.42942 106.717 5.99724C107.164 4.65458 108.596 3.93845 109.939 4.386C111.371 4.92307 111.998 6.35526 111.55 7.69792C111.192 8.77205 110.208 9.48814 109.133 9.48814C108.835 9.48814 108.566 9.42845 108.328 9.30911V9.30911ZM67.0632 4.11748C66.7947 2.68531 67.7793 1.34265 69.2115 1.16363C70.5542 0.895099 71.8968 1.87971 72.1653 3.22237C72.4338 4.65455 71.4493 5.99723 70.0171 6.26577C69.8978 6.26577 69.7486 6.26577 69.5696 6.26577C68.4059 6.26577 67.2423 5.37063 67.0632 4.11748ZM95.7962 6.17622C94.364 5.90769 93.3794 4.65455 93.6479 3.22237C93.9165 1.7902 95.1697 0.805609 96.6018 1.07414C98.034 1.34268 99.0187 2.59582 98.7501 4.02799C98.5711 5.37066 97.4074 6.26577 96.2438 6.26577C96.0648 6.26577 95.9156 6.2359 95.7962 6.17622ZM82.9066 5.19162C81.4744 5.19162 80.3109 4.02796 80.3109 2.59578C80.3109 1.16361 81.4744 0 82.9066 0C84.3388 0 85.5025 1.16361 85.5025 2.59578C85.5025 4.02796 84.3388 5.19162 82.9066 5.19162Z" fill="var(--fill-0, #D6BEEB)"/>
</svg>
