<svg preserveAspectRatio="none" width="100%" height="100%" overflow="visible" style="display: block;" viewBox="0 0 9.50001 9.50059" fill="none" xmlns="http://www.w3.org/2000/svg">
<path id="Vector" d="M8.75001 4.0473C8.75001 2.949 8.75001 2.3998 8.56261 1.9739C8.36391 1.5222 8.02141 1.1592 7.59521 0.948603C7.19341 0.750003 6.67521 0.750003 5.63891 0.750003H4.75001C2.86441 0.750003 1.92161 0.750003 1.33581 1.3709C0.750011 1.9917 0.750011 2.9909 0.750011 4.9894V7.2485C0.750011 8.1203 0.750011 8.5561 1.01411 8.7059C1.27811 8.8557 1.62031 8.6139 2.30471 8.1304L2.40901 8.0567C2.90911 7.7033 3.15921 7.5266 3.44261 7.4356C3.72611 7.3447 4.02661 7.3447 4.62781 7.3447H5.63891C6.67521 7.3447 7.19341 7.3447 7.59521 7.1461C8.02141 6.9355 8.36391 6.5725 8.56261 6.1208C8.75001 5.6949 8.75001 5.1457 8.75001 4.0473Z" stroke="var(--stroke-0, #D6BEEB)" stroke-width="1.5"/>
</svg>
