<svg preserveAspectRatio="none" width="100%" height="100%" overflow="visible" style="display: block;" viewBox="0 0 11.5 21.5" fill="none" xmlns="http://www.w3.org/2000/svg">
<path id="Vector" d="M5.75 20.75C8.5114 20.75 10.75 18.5114 10.75 15.75C10.75 14.1144 9.9647 12.6622 8.7505 11.75V3.75049C8.7505 2.81815 8.7505 2.35198 8.5981 1.98428C8.3951 1.49451 8.006 1.10537 7.5162 0.902391C7.1485 0.750001 6.6823 0.750001 5.75 0.750001C4.8177 0.750001 4.3515 0.750001 3.9838 0.902391C3.49402 1.10537 3.10488 1.49451 2.9019 1.98428C2.74951 2.35198 2.74951 2.81815 2.74951 3.75049V11.75C1.53534 12.6622 0.75 14.1144 0.75 15.75C0.75 18.5114 2.98858 20.75 5.75 20.75Z" stroke="var(--stroke-0, #D6BEEB)" stroke-width="1.5" stroke-linejoin="round"/>
</svg>
