<svg preserveAspectRatio="none" width="100%" height="100%" overflow="visible" style="display: block;" viewBox="0 0 13 11.3333" fill="none" xmlns="http://www.w3.org/2000/svg">
<g id="Map">
<path id="Vector" d="M4.5 0.5C3.7963 0.5 3.09259 0.722222 2.5 1.16667L1.03333 2.26667C0.697592 2.51847 0.5 2.91366 0.5 3.33333V9.08602C0.5 10.1493 1.71389 10.7563 2.56452 10.1183C3.13799 9.68817 3.819 9.47312 4.5 9.47312M4.5 0.5C5.2037 0.5 5.90741 0.722222 6.5 1.16667L6.56452 1.21505C7.13799 1.64516 7.819 1.86022 8.5 1.86022M4.5 0.5V1V9V9.47312M8.5 1.86022C9.181 1.86022 9.86201 1.64516 10.4355 1.21505C11.2861 0.577083 12.5 1.18403 12.5 2.24731V8C12.5 8.41968 12.3024 8.81486 11.9667 9.06667L10.5 10.1667C9.90741 10.6111 9.2037 10.8333 8.5 10.8333M8.5 1.86022V2.33333V10.3333V10.8333M8.5 10.8333C7.7963 10.8333 7.09259 10.6111 6.5 10.1667L6.43548 10.1183C5.86201 9.68817 5.181 9.47312 4.5 9.47312" stroke="var(--stroke-0, #FEFEFE)" stroke-linecap="round"/>
</g>
</svg>
