<svg preserveAspectRatio="none" width="100%" height="100%" overflow="visible" style="display: block;" viewBox="0 0 15.6667 11" fill="none" xmlns="http://www.w3.org/2000/svg">
<g id="Group 3">
<path id="Vector" d="M9.83333 2.5H9.33333C9.33333 3.32843 8.66176 4 7.83333 4V4.5V5C9.21405 5 10.3333 3.88071 10.3333 2.5H9.83333ZM7.83333 4.5V4C7.00491 4 6.33333 3.32843 6.33333 2.5H5.83333H5.33333C5.33333 3.88071 6.45262 5 7.83333 5V4.5ZM5.83333 2.5H6.33333C6.33333 1.67157 7.00491 1 7.83333 1V0.5V5.96046e-08C6.45262 5.96046e-08 5.33333 1.11929 5.33333 2.5H5.83333ZM7.83333 0.5V1C8.66176 1 9.33333 1.67157 9.33333 2.5H9.83333H10.3333C10.3333 1.11929 9.21405 5.96046e-08 7.83333 5.96046e-08V0.5ZM5.83333 6.5V7H9.83333V6.5V6H5.83333V6.5ZM9.83333 10.5V10H5.83333V10.5V11H9.83333V10.5ZM5.83333 10.5V10C5.00491 10 4.33333 9.32843 4.33333 8.5H3.83333H3.33333C3.33333 9.88071 4.45262 11 5.83333 11V10.5ZM11.8333 8.5H11.3333C11.3333 9.32843 10.6618 10 9.83333 10V10.5V11C11.214 11 12.3333 9.88071 12.3333 8.5H11.8333ZM9.83333 6.5V7C10.6618 7 11.3333 7.67157 11.3333 8.5H11.8333H12.3333C12.3333 7.11929 11.214 6 9.83333 6V6.5ZM5.83333 6.5V6C4.45262 6 3.33333 7.11929 3.33333 8.5H3.83333H4.33333C4.33333 7.67157 5.00491 7 5.83333 7V6.5Z" fill="var(--stroke-0, #371456)"/>
<g id="Vector_2">
<path d="M5.00143 4.2591C4.89628 4.09018 4.69898 4 4.5 4C3.67157 4 3 3.32843 3 2.5C3 1.67157 3.67157 1 4.5 1C4.69897 1 4.89628 0.909818 5.00143 0.740898C5.00608 0.733427 5.01076 0.725976 5.01546 0.718545C5.19053 0.442205 5.10183 0.0509337 4.77667 0.0151355C4.68582 0.00513399 4.59351 0 4.5 0C3.11929 0 2 1.11929 2 2.5C2 3.88071 3.11929 5 4.5 5C4.59351 5 4.68582 4.99487 4.77667 4.98486C5.10183 4.94907 5.19053 4.55779 5.01547 4.28146C5.01076 4.27402 5.00608 4.26657 5.00143 4.2591Z" fill="#371456"/>
<path d="M2.97219 9.54458C2.89651 9.41832 2.76293 9.33333 2.61572 9.33333H2.5C1.67157 9.33333 1 8.66176 1 7.83333C1 7.00491 1.67157 6.33333 2.5 6.33333H2.61572C2.76293 6.33333 2.89651 6.24835 2.97219 6.12209C3.15693 5.81388 2.95646 5.33333 2.59713 5.33333H2.5C1.11929 5.33333 0 6.45262 0 7.83333C0 9.21404 1.11929 10.3333 2.5 10.3333H2.59713C2.95646 10.3333 3.15693 9.85278 2.97219 9.54458Z" fill="var(--fill-0, #371456)"/>
<path d="M10.6512 4.28146C10.4761 4.55779 10.5648 4.94907 10.89 4.98486C10.9808 4.99487 11.0732 5 11.1667 5C12.5474 5 13.6667 3.88071 13.6667 2.5C13.6667 1.11929 12.5474 0 11.1667 0C11.0732 0 10.9808 0.00513403 10.89 0.0151356C10.5648 0.0509339 10.4761 0.442205 10.6512 0.718544C10.6559 0.725975 10.6606 0.733425 10.6652 0.740895C10.7704 0.909816 10.9677 1 11.1667 1C11.9951 1 12.6667 1.67157 12.6667 2.5C12.6667 3.32843 11.9951 4 11.1667 4C10.9677 4 10.7704 4.09018 10.6652 4.2591C10.6606 4.26657 10.6559 4.27402 10.6512 4.28146Z" fill="#371456"/>
<path d="M12.6945 9.54458C12.5097 9.85278 12.7102 10.3333 13.0695 10.3333H13.1667C14.5474 10.3333 15.6667 9.21404 15.6667 7.83333C15.6667 6.45262 14.5474 5.33333 13.1667 5.33333H13.0695C12.7102 5.33333 12.5097 5.81388 12.6945 6.12209C12.7702 6.24835 12.9037 6.33333 13.0509 6.33333H13.1667C13.9951 6.33333 14.6667 7.00491 14.6667 7.83333C14.6667 8.66176 13.9951 9.33333 13.1667 9.33333H13.0509C12.9037 9.33333 12.7702 9.41832 12.6945 9.54458Z" fill="var(--fill-0, #371456)"/>
</g>
</g>
</svg>
