<svg preserveAspectRatio="none" width="100%" height="100%" overflow="visible" style="display: block;" viewBox="0 0 14.3333 14.8334" fill="none" xmlns="http://www.w3.org/2000/svg">
<g id="Time Circle 3">
<path id="Vector" d="M7.66667 5.00002C7.66667 4.72388 7.44281 4.50002 7.16667 4.50002C6.89052 4.50002 6.66667 4.72388 6.66667 5.00002L7.16667 5.00002H7.66667ZM8.64877 9.76637C8.88792 9.90444 9.19371 9.82249 9.33178 9.58335C9.46985 9.3442 9.38791 9.0384 9.14876 8.90034L8.89876 9.33335L8.64877 9.76637ZM0.854319 1.44292C0.638688 1.61542 0.603727 1.93007 0.776232 2.1457C0.948737 2.36133 1.26338 2.39629 1.47901 2.22379L1.16667 1.83335L0.854319 1.44292ZM3.14568 0.890453C3.36131 0.717948 3.39627 0.403302 3.22377 0.187671C3.05126 -0.0279601 2.73662 -0.0629207 2.52099 0.109584L2.83333 0.500018L3.14568 0.890453ZM12.8543 2.22379C13.0699 2.39629 13.3846 2.36133 13.5571 2.1457C13.7296 1.93007 13.6946 1.61542 13.479 1.44292L13.1667 1.83335L12.8543 2.22379ZM11.8123 0.109584C11.5967 -0.0629207 11.2821 -0.0279601 11.1096 0.187671C10.9371 0.403302 10.972 0.717948 11.1877 0.890453L11.5 0.500018L11.8123 0.109584ZM7.3118 7.92662L7.77552 7.73963L7.3118 7.92662ZM7.59147 8.41102L7.19768 8.71911L7.59147 8.41102ZM7.16667 5.00002L6.66667 5.00002V6.33331H7.16667H7.66667L7.66667 5.00002H7.16667ZM13.8333 7.66668H13.3333C13.3333 11.0724 10.5724 13.8334 7.16667 13.8334V14.3334V14.8334C11.1247 14.8334 14.3333 11.6247 14.3333 7.66668H13.8333ZM7.16667 14.3334V13.8334C3.76091 13.8334 1 11.0724 1 7.66668H0.5H0C0 11.6247 3.20863 14.8334 7.16667 14.8334V14.3334ZM0.5 7.66668H1C1 4.26093 3.76091 1.50002 7.16667 1.50002V1.00002V0.500018C3.20863 0.500018 0 3.70864 0 7.66668H0.5ZM7.16667 1.00002V1.50002C10.5724 1.50002 13.3333 4.26093 13.3333 7.66668H13.8333H14.3333C14.3333 3.70864 11.1247 0.500018 7.16667 0.500018V1.00002ZM1.16667 1.83335L1.47901 2.22379L3.14568 0.890453L2.83333 0.500018L2.52099 0.109584L0.854319 1.44292L1.16667 1.83335ZM13.1667 1.83335L13.479 1.44292L11.8123 0.109584L11.5 0.500018L11.1877 0.890453L12.8543 2.22379L13.1667 1.83335ZM7.16667 6.33331H6.66667C6.66667 7.11388 6.65805 7.64237 6.84809 8.11362L7.3118 7.92662L7.77552 7.73963C7.67528 7.49105 7.66667 7.19728 7.66667 6.33331H7.16667ZM8.89876 9.33335L9.14876 8.90034C8.40054 8.46836 8.15043 8.31402 7.98527 8.10292L7.59147 8.41102L7.19768 8.71911C7.51078 9.11931 7.97277 9.37609 8.64877 9.76637L8.89876 9.33335ZM7.3118 7.92662L6.84809 8.11362C6.93568 8.33083 7.05336 8.53465 7.19768 8.71911L7.59147 8.41102L7.98527 8.10292C7.89868 7.99225 7.82807 7.86995 7.77552 7.73963L7.3118 7.92662Z" fill="var(--stroke-0, #371456)"/>
</g>
</svg>
