<svg width="20" height="20" viewBox="0 0 20 20" fill="none" xmlns="http://www.w3.org/2000/svg">
<path d="M4.21756 16.7042L4.51145 16.2997L4.21756 16.7042ZM3.29576 15.7824L3.70027 15.4885L3.29576 15.7824ZM16.7042 15.7824L16.2997 15.4885L16.7042 15.7824ZM15.7824 16.7042L15.4885 16.2997L15.7824 16.7042ZM15.7824 3.29576L15.4885 3.70027L15.7824 3.29576ZM16.7042 4.21756L16.2997 4.51145L16.7042 4.21756ZM4.21756 3.29576L4.51145 3.70027L4.21756 3.29576ZM3.29576 4.21756L3.70027 4.51145L3.29576 4.21756ZM8.58579 8.08088C8.39052 7.88562 8.07394 7.88562 7.87868 8.08088C7.68342 8.27614 7.68342 8.59272 7.87868 8.78799L8.23223 8.43443L8.58579 8.08088ZM11.4142 12.3235C11.6095 12.5188 11.9261 12.5188 12.1213 12.3235C12.3166 12.1283 12.3166 11.8117 12.1213 11.6164L11.7678 11.97L11.4142 12.3235ZM7.87868 11.6164C7.68342 11.8117 7.68342 12.1283 7.87868 12.3235C8.07394 12.5188 8.39052 12.5188 8.58579 12.3235L8.23223 11.97L7.87868 11.6164ZM12.1213 8.78799C12.3166 8.59272 12.3166 8.27614 12.1213 8.08088C11.9261 7.88562 11.6095 7.88562 11.4142 8.08088L11.7678 8.43443L12.1213 8.78799ZM10 17.5V17C8.42647 17 7.28649 16.9993 6.40157 16.9034C5.52601 16.8086 4.95965 16.6254 4.51145 16.2997L4.21756 16.7042L3.92367 17.1087C4.57075 17.5789 5.33322 17.7935 6.29386 17.8976C7.24515 18.0007 8.44875 18 10 18V17.5ZM2.5 10H2C2 11.5513 1.99931 12.7549 2.10238 13.7061C2.20646 14.6668 2.42113 15.4293 2.89125 16.0763L3.29576 15.7824L3.70027 15.4885C3.37464 15.0403 3.19142 14.474 3.09656 13.5984C3.00069 12.7135 3 11.5735 3 10H2.5ZM4.21756 16.7042L4.51145 16.2997C4.20017 16.0736 3.92643 15.7998 3.70027 15.4885L3.29576 15.7824L2.89125 16.0763C3.17909 16.4725 3.52749 16.8209 3.92367 17.1087L4.21756 16.7042ZM17.5 10H17C17 11.5735 16.9993 12.7135 16.9034 13.5984C16.8086 14.474 16.6254 15.0403 16.2997 15.4885L16.7042 15.7824L17.1087 16.0763C17.5789 15.4293 17.7935 14.6668 17.8976 13.7061C18.0007 12.7549 18 11.5513 18 10H17.5ZM10 17.5V18C11.5513 18 12.7549 18.0007 13.7061 17.8976C14.6668 17.7935 15.4293 17.5789 16.0763 17.1087L15.7824 16.7042L15.4885 16.2997C15.0403 16.6254 14.474 16.8086 13.5984 16.9034C12.7135 16.9993 11.5735 17 10 17V17.5ZM16.7042 15.7824L16.2997 15.4885C16.0736 15.7998 15.7998 16.0736 15.4885 16.2997L15.7824 16.7042L16.0763 17.1087C16.4725 16.8209 16.8209 16.4725 17.1087 16.0763L16.7042 15.7824ZM10 2.5V3C11.5735 3 12.7135 3.00069 13.5984 3.09656C14.474 3.19142 15.0403 3.37464 15.4885 3.70027L15.7824 3.29576L16.0763 2.89125C15.4293 2.42113 14.6668 2.20646 13.7061 2.10238C12.7549 1.99931 11.5513 2 10 2V2.5ZM17.5 10H18C18 8.44875 18.0007 7.24515 17.8976 6.29386C17.7935 5.33322 17.5789 4.57075 17.1087 3.92367L16.7042 4.21756L16.2997 4.51145C16.6254 4.95965 16.8086 5.52601 16.9034 6.40157C16.9993 7.28649 17 8.42647 17 10H17.5ZM15.7824 3.29576L15.4885 3.70027C15.7998 3.92643 16.0736 4.20017 16.2997 4.51145L16.7042 4.21756L17.1087 3.92367C16.8209 3.52749 16.4725 3.17909 16.0763 2.89125L15.7824 3.29576ZM10 2.5V2C8.44875 2 7.24515 1.99931 6.29386 2.10238C5.33321 2.20646 4.57075 2.42113 3.92367 2.89125L4.21756 3.29576L4.51145 3.70027C4.95965 3.37464 5.52601 3.19142 6.40157 3.09656C7.28649 3.00069 8.42647 3 10 3V2.5ZM2.5 10H3C3 8.42647 3.00069 7.28649 3.09656 6.40157C3.19142 5.52601 3.37464 4.95965 3.70027 4.51145L3.29576 4.21756L2.89125 3.92367C2.42113 4.57075 2.20646 5.33321 2.10238 6.29386C1.99931 7.24515 2 8.44875 2 10H2.5ZM4.21756 3.29576L3.92367 2.89125C3.52749 3.17909 3.17909 3.52749 2.89125 3.92367L3.29576 4.21756L3.70027 4.51145C3.92643 4.20017 4.20017 3.92643 4.51145 3.70027L4.21756 3.29576ZM8.23223 8.43443L7.87868 8.78799L11.4142 12.3235L11.7678 11.97L12.1213 11.6164L8.58579 8.08088L8.23223 8.43443ZM8.23223 11.97L8.58579 12.3235L12.1213 8.78799L11.7678 8.43443L11.4142 8.08088L7.87868 11.6164L8.23223 11.97Z" fill="#6F6F6F"/>
</svg>
