<svg width="20" height="20" viewBox="0 0 20 20" fill="none" xmlns="http://www.w3.org/2000/svg">
<path d="M4.81486 13.3334C3.88834 13.8606 3.33337 14.5321 3.33337 15.2632C3.33337 16.9588 6.31814 18.3334 10 18.3334C13.682 18.3334 16.6667 16.9588 16.6667 15.2632C16.6667 14.5321 16.1117 13.8606 15.1852 13.3334" stroke="#F2EAF9" stroke-width="1.5" stroke-linecap="round"/>
<path d="M10.8318 5.83337H9.16829C6.77667 5.83337 5.16422 8.39096 6.10632 10.69C6.23755 11.0104 6.53865 11.218 6.87181 11.218H7.45762C7.65508 11.218 7.8272 11.3585 7.87509 11.5589L8.62929 14.714C8.78654 15.3719 9.35171 15.8334 10 15.8334C10.6484 15.8334 11.2135 15.3719 11.3708 14.714L12.125 11.5589C12.1729 11.3585 12.345 11.218 12.5425 11.218H13.1283C13.4615 11.218 13.7625 11.0104 13.8938 10.69C14.8359 8.39096 13.2234 5.83337 10.8318 5.83337Z" stroke="#F2EAF9" stroke-width="1.5"/>
<path d="M12.0833 3.74996C12.0833 4.90055 11.1505 5.83329 9.99996 5.83329C8.84938 5.83329 7.91663 4.90055 7.91663 3.74996C7.91663 2.59937 8.84938 1.66663 9.99996 1.66663C11.1505 1.66663 12.0833 2.59937 12.0833 3.74996Z" stroke="#F2EAF9" stroke-width="1.5"/>
</svg>
