<svg width="20" height="20" viewBox="0 0 20 20" fill="none" xmlns="http://www.w3.org/2000/svg">
<path d="M4.37783 3.49653L3.35461 4.09011C2.53112 4.56781 2.11937 4.80667 1.89299 5.20403C1.66663 5.60138 1.66663 6.08528 1.66663 7.05307V13.8569C1.66663 15.1285 1.66663 15.7643 1.95184 16.1182C2.14163 16.3537 2.40759 16.5119 2.70163 16.5644C3.14351 16.6433 3.68453 16.3294 4.76652 15.7018C5.50126 15.2755 6.20838 14.8328 7.08735 14.9529C7.48718 15.0075 7.86855 15.1972 8.63129 15.5764L11.8095 17.1567C12.497 17.4985 12.5033 17.5 13.2678 17.5H15C16.5713 17.5 17.357 17.5 17.8451 17.0011C18.3333 16.5022 18.3333 15.6991 18.3333 14.0931V8.47625C18.3333 6.87019 18.3333 6.06717 17.8451 5.56824C17.357 5.0693 16.5713 5.0693 15 5.0693H13.2678C12.5033 5.0693 12.497 5.06783 11.8095 4.726L9.03321 3.34553C7.87399 2.76914 7.29439 2.48095 6.67694 2.50098C6.05948 2.52101 5.49893 2.84618 4.37783 3.49653Z" stroke="#F2EAF9" stroke-width="1.5" stroke-linecap="round" stroke-linejoin="round"/>
<path d="M6.66663 2.5V14.5833" stroke="#F2EAF9" stroke-width="1.5" stroke-linecap="round" stroke-linejoin="round"/>
<path d="M12.5 5.41663V17.0833" stroke="#F2EAF9" stroke-width="1.5" stroke-linecap="round" stroke-linejoin="round"/>
</svg>
