<svg preserveAspectRatio="none" width="100%" height="100%" overflow="visible" style="display: block;" viewBox="0 0 11.6667 15.6673" fill="none" xmlns="http://www.w3.org/2000/svg">
<g id="Award 4">
<path id="Vector" d="M4.96001 3.8221L4.48305 3.67208L4.96001 3.8221ZM3.54695 6.1935L3.84708 5.7936L3.54695 6.1935ZM3.88053 7.25402L4.35749 7.40405L3.88053 7.25402ZM5.29359 8.31454L4.99346 7.91464V7.91464L5.29359 8.31454ZM6.37308 8.31454L6.67321 7.91464L6.37308 8.31454ZM7.78614 7.25402L7.30918 7.40405V7.40405L7.78614 7.25402ZM8.11972 6.1935L7.81959 5.7936L8.11972 6.1935ZM6.70665 3.8221L7.18362 3.67208L6.70665 3.8221ZM7.94672 14.2629L7.62658 14.647H7.62658L7.94672 14.2629ZM7.32086 13.7413L7.64099 13.3572H7.64099L7.32086 13.7413ZM4.34581 13.7413L4.02568 13.3572H4.02568L4.34581 13.7413ZM3.71995 14.2629L4.04008 14.647H4.04008L3.71995 14.2629ZM9.8331 9.37502L9.33308 9.36655L9.3331 9.3761L9.8331 9.37502ZM9.83333 9.3611L9.45846 9.03023V9.03023L9.83333 9.3611ZM1.8336 9.3614L2.20844 9.03051V9.03051L1.8336 9.3614ZM4.08669 4.47754V4.97754C4.71172 4.97754 5.25123 4.56266 5.43697 3.97213L4.96001 3.8221L4.48305 3.67208C4.42293 3.8632 4.25729 3.97754 4.08669 3.97754V4.47754ZM3.54695 6.1935L3.84708 5.7936C3.67952 5.66784 3.6313 5.47068 3.69033 5.283C3.749 5.09647 3.89332 4.97754 4.08669 4.97754V4.47754V3.97754C2.68065 3.97754 2.17193 5.78669 3.24682 6.5934L3.54695 6.1935ZM3.88053 7.25402L4.35749 7.40405C4.54247 6.81594 4.34264 6.16552 3.84708 5.7936L3.54695 6.1935L3.24682 6.5934C3.39494 6.70457 3.46445 6.91045 3.40357 7.104L3.88053 7.25402ZM5.29359 8.31454L4.99346 7.91464C4.83174 8.03601 4.65521 8.02044 4.51424 7.91464C4.37093 7.80708 4.2892 7.62117 4.35749 7.40405L3.88053 7.25402L3.40357 7.104C3.19698 7.76079 3.46195 8.37519 3.91398 8.71444C4.36834 9.05545 5.03579 9.13318 5.59372 8.71444L5.29359 8.31454ZM6.37308 8.31454L6.67321 7.91464C6.17354 7.53963 5.49313 7.53963 4.99346 7.91464L5.29359 8.31454L5.59372 8.71444C5.73773 8.60636 5.92894 8.60636 6.07294 8.71444L6.37308 8.31454ZM7.78614 7.25402L7.30918 7.40405C7.37747 7.62117 7.29574 7.80708 7.15243 7.91464C7.01146 8.02044 6.83493 8.03601 6.67321 7.91464L6.37308 8.31454L6.07294 8.71444C6.63088 9.13318 7.29832 9.05545 7.75269 8.71444C8.20472 8.37519 8.46969 7.76079 8.2631 7.104L7.78614 7.25402ZM8.11972 6.1935L7.81959 5.7936C7.32402 6.16552 7.12419 6.81594 7.30918 7.40405L7.78614 7.25402L8.2631 7.104C8.20222 6.91045 8.27173 6.70457 8.41985 6.5934L8.11972 6.1935ZM7.57998 4.47754V4.97754C7.77335 4.97754 7.91766 5.09647 7.97634 5.283C8.03537 5.47068 7.98715 5.66784 7.81959 5.7936L8.11972 6.1935L8.41985 6.5934C9.49473 5.78669 8.98602 3.97754 7.57998 3.97754V4.47754ZM6.70665 3.8221L6.22969 3.97213C6.41544 4.56266 6.95494 4.97754 7.57998 4.97754V4.47754V3.97754C7.40938 3.97754 7.24373 3.8632 7.18362 3.67208L6.70665 3.8221ZM6.70665 3.8221L7.18362 3.67208C6.76196 2.33153 4.90471 2.33153 4.48305 3.67208L4.96001 3.8221L5.43697 3.97213C5.56508 3.56485 6.10158 3.56485 6.22969 3.97213L6.70665 3.8221ZM0.5 5.83333H1C1 3.16396 3.16396 1 5.83333 1V0.5V2.98023e-08C2.61167 2.98023e-08 0 2.61167 0 5.83333H0.5ZM5.83333 0.5V1C8.50271 1 10.6667 3.16396 10.6667 5.83333H11.1667H11.6667C11.6667 2.61167 9.05499 2.98023e-08 5.83333 2.98023e-08V0.5ZM9.83333 9.72304H9.33333V13.4191H9.83333H10.3333V9.72304H9.83333ZM1.83333 13.4191H2.33333V9.72304H1.83333H1.33333V13.4191H1.83333ZM7.94672 14.2629L8.26685 13.8788L7.64099 13.3572L7.32086 13.7413L7.00072 14.1253L7.62658 14.647L7.94672 14.2629ZM4.34581 13.7413L4.02568 13.3572L3.39982 13.8788L3.71995 14.2629L4.04008 14.647L4.66594 14.1253L4.34581 13.7413ZM7.32086 13.7413L7.64099 13.3572C7.29587 13.0695 7.0022 12.8236 6.73964 12.6549C6.46508 12.4786 6.1761 12.3538 5.83333 12.3538V12.8538V13.3538C5.91333 13.3538 6.01321 13.3769 6.19925 13.4964C6.3973 13.6236 6.63601 13.8213 7.00073 14.1253L7.32086 13.7413ZM4.34581 13.7413L4.66594 14.1253C5.03066 13.8213 5.26937 13.6236 5.46742 13.4964C5.65346 13.3769 5.75333 13.3538 5.83333 13.3538V12.8538V12.3538C5.49056 12.3538 5.20159 12.4786 4.92702 12.6549C4.66446 12.8236 4.37079 13.0695 4.02568 13.3572L4.34581 13.7413ZM1.83333 13.4191H1.33333C1.33333 13.9231 1.33198 14.3595 1.38037 14.6845C1.42787 15.0036 1.54961 15.4042 1.96185 15.5885L2.16599 15.1321L2.37013 14.6757C2.44971 14.7113 2.40512 14.7768 2.36946 14.5372C2.33469 14.3037 2.33333 13.958 2.33333 13.4191H1.83333ZM3.71995 14.2629L3.39982 13.8788C2.97987 14.2289 2.70726 14.4545 2.50007 14.5821C2.28557 14.7143 2.29683 14.6429 2.37013 14.6757L2.16599 15.1321L1.96185 15.5885C2.3678 15.7701 2.74894 15.6034 3.0247 15.4335C3.30778 15.259 3.64583 14.9756 4.04008 14.647L3.71995 14.2629ZM9.83333 13.4191H9.33333C9.33333 13.958 9.33198 14.3037 9.2972 14.5372C9.26155 14.7768 9.21696 14.7113 9.29654 14.6757L9.50068 15.1321L9.70482 15.5885C10.1171 15.4042 10.2388 15.0036 10.2863 14.6845C10.3347 14.3595 10.3333 13.9231 10.3333 13.4191H9.83333ZM7.94672 14.2629L7.62658 14.647C8.02084 14.9756 8.35889 15.259 8.64196 15.4335C8.91773 15.6034 9.29887 15.7701 9.70482 15.5885L9.50068 15.1321L9.29654 14.6757C9.36984 14.6429 9.3811 14.7143 9.1666 14.5821C8.95941 14.4545 8.6868 14.2289 8.26685 13.8788L7.94672 14.2629ZM9.83333 9.72304H10.3333C10.3333 9.60006 10.3333 9.48373 10.3331 9.37394L9.8331 9.37502L9.3331 9.3761C9.33333 9.48461 9.33333 9.59982 9.33333 9.72304H9.83333ZM11.1667 5.83333H10.6667C10.6667 7.05946 10.2108 8.17789 9.45846 9.03023L9.83333 9.3611L10.2082 9.69197C11.1155 8.66395 11.6667 7.31239 11.6667 5.83333H11.1667ZM9.83333 9.3611L9.45846 9.03023C8.57209 10.0345 7.27685 10.6667 5.83333 10.6667V11.1667V11.6667C7.57566 11.6667 9.14006 10.9022 10.2082 9.69197L9.83333 9.3611ZM9.8331 9.37502L10.333 9.38349L10.3333 9.36957L9.83333 9.3611L9.33341 9.35263L9.33317 9.36655L9.8331 9.37502ZM1.83333 9.72304H2.33333C2.33333 9.59467 2.33333 9.47501 2.3336 9.36258L1.8336 9.3614L1.3336 9.36022C1.33333 9.47405 1.33333 9.59494 1.33333 9.72304H1.83333ZM5.83333 11.1667V10.6667C4.38995 10.6667 3.09481 10.0346 2.20844 9.03051L1.8336 9.3614L1.45876 9.6923C2.52689 10.9023 4.09116 11.6667 5.83333 11.6667V11.1667ZM1.8336 9.3614L2.20844 9.03051C1.45601 8.17813 1 7.0596 1 5.83333H0.5H0C0 7.31255 0.551236 8.66424 1.45876 9.6923L1.8336 9.3614Z" fill="var(--stroke-0, #2D264B)"/>
</g>
</svg>
