<svg preserveAspectRatio="none" width="100%" height="100%" overflow="visible" style="display: block;" viewBox="0 0 135.878 135.878" fill="none" xmlns="http://www.w3.org/2000/svg">
<path id="&#60;Compound Path&#62;" d="M65.0744 133.103C65.0744 131.581 66.4171 130.238 67.9388 130.238V130.328C67.9985 130.328 68.0283 130.328 68.0283 130.328C68.088 130.268 68.1476 130.238 68.2073 130.238C69.729 130.238 70.9822 131.492 70.9822 133.103C70.9822 134.624 69.729 135.878 68.2073 135.878C68.1476 135.878 68.088 135.878 68.0283 135.878C68.0283 135.878 67.9985 135.878 67.9388 135.878C66.4171 135.878 65.0744 134.624 65.0744 133.103ZM54.6912 134.624C53.1695 134.266 52.1849 132.834 52.4534 131.313C52.8114 129.791 54.2437 128.806 55.7654 129.075C57.287 129.433 58.2717 130.865 58.0031 132.387C57.7346 133.729 56.5709 134.624 55.2282 134.624C55.0492 134.624 54.8702 134.624 54.6912 134.624V134.624ZM78.1431 132.387C77.8746 130.865 78.8592 129.343 80.3809 129.075C81.9026 128.717 83.3347 129.701 83.6032 131.223C83.9613 132.745 82.9766 134.266 81.455 134.535C81.2759 134.595 81.0969 134.624 80.9179 134.624C79.5752 134.624 78.4116 133.64 78.1431 132.387ZM41.9807 130.775C40.5485 130.149 39.8323 128.538 40.4589 127.106C40.996 125.673 42.6968 124.957 44.1289 125.584C45.5611 126.121 46.1877 127.822 45.5611 129.254C45.203 130.328 44.1289 130.954 43.0547 130.954C42.637 130.954 42.279 130.895 41.9807 130.775V130.775ZM90.4955 129.164C89.869 127.732 90.5851 126.031 92.0173 125.494C93.4495 124.868 95.0606 125.494 95.6872 126.927C96.3138 128.359 95.5976 130.059 94.1655 130.686C93.8074 130.805 93.4494 130.865 93.0914 130.865C92.0172 130.865 90.9431 130.238 90.4955 129.164V129.164ZM30.1651 124.51C28.912 123.615 28.554 121.914 29.4491 120.571C30.2547 119.318 32.0449 118.96 33.298 119.855C34.6407 120.661 34.9988 122.451 34.1036 123.704C33.5666 124.51 32.6715 124.957 31.7764 124.957C31.2393 124.957 30.7022 124.808 30.1651 124.51V124.51ZM101.953 123.525C101.147 122.272 101.505 120.482 102.759 119.676C104.012 118.781 105.802 119.139 106.608 120.392C107.503 121.735 107.145 123.436 105.891 124.331C105.414 124.629 104.877 124.778 104.28 124.778C103.385 124.778 102.58 124.331 101.953 123.525V123.525ZM19.961 116.006C18.7973 114.932 18.7973 113.142 19.8714 112.068C21.035 110.994 22.8252 110.994 23.8994 112.068C24.9735 113.142 24.9735 114.932 23.8994 116.006C23.3623 116.543 22.6463 116.812 21.9302 116.812C21.2141 116.812 20.498 116.543 19.961 116.006ZM112.157 115.827C111.083 114.753 111.083 112.963 112.157 111.889C113.231 110.725 115.022 110.725 116.096 111.889C117.259 112.963 117.259 114.753 116.185 115.827C115.559 116.364 114.843 116.633 114.126 116.633C113.41 116.633 112.694 116.364 112.157 115.827ZM11.4574 105.712C10.5623 104.459 10.9203 102.759 12.263 101.863C13.5162 100.968 15.3064 101.326 16.112 102.58C17.0071 103.922 16.649 105.623 15.3959 106.518C14.8588 106.787 14.3218 106.966 13.7847 106.966C12.8896 106.966 11.9945 106.518 11.4574 105.712V105.712ZM120.661 106.339C119.408 105.444 119.05 103.743 119.855 102.4C120.75 101.147 122.451 100.789 123.794 101.595C125.047 102.49 125.405 104.191 124.599 105.533C123.973 106.339 123.167 106.787 122.182 106.787C121.645 106.787 121.108 106.608 120.661 106.339ZM5.19162 93.9865C4.56505 92.5543 5.28115 90.9431 6.71332 90.3165C8.1455 89.7794 9.75667 90.406 10.3832 91.8382C10.9203 93.2704 10.2938 94.9711 8.86161 95.5081C8.50356 95.6872 8.14551 95.7767 7.78746 95.7767C6.62382 95.7767 5.63918 95.0606 5.19162 93.9865ZM127.106 95.2396C125.673 94.7025 125.047 93.0913 125.584 91.6592C126.21 90.1375 127.822 89.5109 129.254 90.1375C130.686 90.6745 131.402 92.2857 130.775 93.7179C130.328 94.8816 129.343 95.5081 128.18 95.5081C127.822 95.5081 127.464 95.4186 127.106 95.2396V95.2396ZM1.25318 81.2759C0.984642 79.7542 1.96926 78.3221 3.49095 77.964C5.01263 77.6955 6.53428 78.6801 6.80281 80.2018C7.07134 81.7235 6.08672 83.1557 4.56504 83.5137C4.38601 83.5137 4.20701 83.5137 4.02799 83.5137C2.77484 83.5137 1.52171 82.6186 1.25318 81.2759ZM131.313 83.2452C129.791 82.8871 128.806 81.4549 129.075 79.9333C129.433 78.4116 130.865 77.427 132.387 77.6955C133.908 77.964 134.893 79.4857 134.624 81.0074C134.356 82.3501 133.192 83.2452 131.85 83.2452C131.671 83.2452 131.492 83.2452 131.313 83.2452V83.2452ZM0 68.0283C0 66.5066 1.25313 65.2534 2.77482 65.2534C4.38601 65.2534 5.63918 66.5066 5.63918 68.0283C5.63918 69.55 4.38601 70.8031 2.77482 70.8031C1.25313 70.8031 0 69.55 0 68.0283ZM130.238 67.7597C130.238 66.2381 131.492 64.9849 133.013 64.9849C134.624 64.9849 135.878 66.2381 135.878 67.7597C135.878 69.2814 134.624 70.5346 133.103 70.5346C131.492 70.5346 130.238 69.2814 130.238 67.7597ZM3.49095 58.0926C1.96926 57.824 0.984642 56.3023 1.25318 54.7807C1.52171 53.259 3.04335 52.2743 4.56504 52.5429C6.08672 52.9009 7.07134 54.3331 6.80281 55.8548C6.53428 57.1975 5.37066 58.1821 4.02799 58.1821C3.84897 58.1821 3.66997 58.1522 3.49095 58.0926ZM129.075 55.5863C128.717 54.0646 129.701 52.6324 131.223 52.2744C132.745 52.0058 134.266 52.9904 134.535 54.5121C134.804 56.0338 133.819 57.466 132.297 57.824C132.118 57.8837 131.939 57.9135 131.76 57.9135C130.507 57.9135 129.254 56.9289 129.075 55.5863V55.5863ZM6.62383 45.7401C5.19166 45.1135 4.47556 43.5023 5.10213 42.0701C5.72871 40.638 7.33989 39.9219 8.77206 40.5484C10.2042 41.0855 10.9203 42.7862 10.2938 44.2184C9.8462 45.2925 8.77205 45.9191 7.69792 45.9191C7.33988 45.9191 6.98188 45.8594 6.62383 45.7401V45.7401ZM125.494 43.9499C124.868 42.5177 125.494 40.817 126.927 40.2799C128.359 39.6533 130.059 40.3694 130.596 41.8016C131.223 43.2337 130.507 44.845 129.075 45.4715C128.776 45.5909 128.448 45.6506 128.09 45.6506C126.926 45.6506 125.942 45.024 125.494 43.9499V43.9499ZM12.1735 34.1931C10.8308 33.298 10.5623 31.5974 11.3679 30.2547C12.263 29.0015 13.9637 28.6435 15.3063 29.5386C16.5595 30.3442 16.9176 32.1344 16.0225 33.3876C15.4854 34.1932 14.5903 34.6407 13.6952 34.6407C13.1581 34.6407 12.6509 34.4915 12.1735 34.1931ZM119.676 33.2085C118.781 31.9554 119.139 30.1651 120.392 29.27C121.735 28.4644 123.436 28.733 124.331 30.0757C125.136 31.3288 124.868 33.119 123.525 33.9246C123.048 34.2827 122.541 34.4617 122.003 34.4617C121.108 34.4617 120.213 34.0141 119.676 33.2085ZM19.7819 23.9889C18.7078 22.9148 18.7078 21.1246 19.7819 19.9609C20.9455 18.8868 22.6462 18.8868 23.8099 19.9609C24.884 21.1246 24.884 22.8253 23.8099 23.9889C23.2728 24.526 22.5568 24.7945 21.8407 24.7945C21.1246 24.7945 20.4085 24.526 19.7819 23.9889ZM111.889 23.8099C110.815 22.7358 110.815 20.9455 111.889 19.7819C112.963 18.7078 114.753 18.7078 115.827 19.7819C116.901 20.856 116.901 22.6463 115.827 23.7204C115.29 24.347 114.574 24.6155 113.858 24.6155C113.142 24.6155 112.426 24.347 111.889 23.8099ZM29.3596 15.4854C28.4645 14.1427 28.8225 12.442 30.0757 11.5469C31.3288 10.6518 33.119 11.0098 34.0142 12.263C34.8198 13.6056 34.4617 15.3063 33.2085 16.2015C32.761 16.47 32.224 16.649 31.6869 16.649C30.7918 16.649 29.8967 16.2015 29.3596 15.4854ZM102.401 16.0224C101.147 15.2168 100.789 13.4266 101.684 12.1735C102.49 10.8308 104.28 10.5622 105.533 11.3678C106.787 12.263 107.145 13.9637 106.339 15.3063C105.802 16.1119 104.907 16.5595 104.012 16.5595C103.475 16.47 102.938 16.3805 102.401 16.0224V16.0224ZM40.2799 8.86155C39.6533 7.51889 40.3694 5.8182 41.8016 5.19162C43.2337 4.65456 44.845 5.28115 45.4716 6.71332C46.0982 8.1455 45.382 9.84618 43.9499 10.3832C43.5918 10.5623 43.2338 10.6518 42.8758 10.6518C41.8016 10.6518 40.7275 10.0252 40.2799 8.86155V8.86155ZM91.6592 10.2938C90.2271 9.75669 89.5109 8.05595 90.1375 6.62378C90.6745 5.1916 92.3753 4.56501 93.8075 5.10208C95.2397 5.72866 95.8662 7.33989 95.3292 8.77206C94.8816 9.84619 93.8074 10.5623 92.7333 10.5623C92.3753 10.5623 92.0173 10.4728 91.6592 10.2938V10.2938ZM52.3639 4.65453C52.0059 3.13284 52.9905 1.70071 54.5122 1.34266C56.0339 1.07413 57.5555 2.05875 57.824 3.58044C58.1821 5.10212 57.1974 6.53426 55.6758 6.8923C55.4967 6.8923 55.2879 6.8923 55.0492 6.8923C53.7961 6.8923 52.6324 5.99719 52.3639 4.65453ZM79.9333 6.80281C78.4116 6.53428 77.427 5.01258 77.785 3.49089C78.0536 1.96921 79.4857 0.984588 81.0074 1.25312C82.5291 1.61116 83.5137 3.04335 83.2452 4.56504C82.9766 5.9077 81.813 6.8923 80.4704 6.8923C80.2913 6.8923 80.1123 6.86248 79.9333 6.80281ZM64.9849 2.86431C64.9849 1.25311 66.2381 0 67.7597 0C69.3709 0 70.6242 1.25311 70.6242 2.86431C70.6242 4.38599 69.3709 5.63918 67.7597 5.63918C66.2381 5.63918 64.9849 4.38599 64.9849 2.86431Z" fill="var(--fill-0, #D6BEEB)"/>
</svg>
