<svg preserveAspectRatio="none" width="100%" height="100%" overflow="visible" style="display: block;" viewBox="0 0 242.201 259.403" fill="none" xmlns="http://www.w3.org/2000/svg">
<path id="Subtract" d="M129.97 255.554C131.044 255.554 131.939 256.449 131.939 257.434C131.939 258.508 131.044 259.403 129.97 259.403H129.701C128.627 259.403 127.733 258.597 127.732 257.523C127.732 256.449 128.627 255.554 129.701 255.554H129.97ZM116.543 254.838C117.617 255.017 118.423 255.912 118.244 256.986C118.155 257.971 117.349 258.776 116.364 258.776C116.305 258.776 116.215 258.746 116.096 258.687C115.111 258.597 114.305 257.702 114.395 256.628C114.484 255.554 115.469 254.749 116.543 254.838ZM143.128 254.838C144.202 254.748 145.187 255.464 145.276 256.538C145.366 257.612 144.56 258.597 143.486 258.687H143.307C142.322 258.686 141.517 257.971 141.428 256.986C141.249 255.912 142.054 254.927 143.128 254.838ZM101.237 254.301C101.416 253.227 102.49 252.6 103.564 252.779C104.549 253.048 105.265 254.032 104.996 255.106C104.817 256.002 104.011 256.628 103.116 256.628H102.759C101.685 256.449 100.969 255.375 101.237 254.301ZM156.107 252.779C157.181 252.511 158.166 253.227 158.435 254.301C158.614 255.285 157.987 256.359 156.913 256.538C156.794 256.598 156.674 256.628 156.555 256.628C155.66 256.628 154.854 256.002 154.675 255.106C154.406 254.032 155.033 252.958 156.107 252.779ZM88.3477 250.631C88.7057 249.646 89.7795 249.109 90.8535 249.467C91.8381 249.735 92.3749 250.81 92.1064 251.884C91.838 252.689 91.033 253.226 90.2275 253.227C90.0485 253.227 89.8393 253.196 89.6006 253.137C88.616 252.779 88.0791 251.705 88.3477 250.631ZM168.817 249.378C169.892 249.02 170.966 249.557 171.234 250.631C171.592 251.615 171.055 252.69 170.07 253.048C169.832 253.107 169.623 253.137 169.444 253.137C168.639 253.137 167.833 252.6 167.564 251.795C167.296 250.721 167.833 249.647 168.817 249.378ZM75.9951 245.708C76.4426 244.723 77.5164 244.275 78.501 244.723C79.4856 245.17 79.9329 246.245 79.4854 247.229C79.2168 248.035 78.5008 248.394 77.6953 248.394C77.4567 248.394 77.2181 248.333 76.9795 248.214C75.9949 247.766 75.5476 246.693 75.9951 245.708ZM64.1797 239.442C64.7168 238.458 65.8803 238.189 66.7754 238.726C67.7598 239.263 68.028 240.426 67.4912 241.321C67.1332 241.948 66.5061 242.307 65.79 242.307C65.4918 242.366 65.1635 242.306 64.8057 242.127V242.038C63.9106 241.501 63.6427 240.337 64.1797 239.442ZM53.0801 232.013C53.7067 231.118 54.8705 230.939 55.7656 231.565C56.5708 232.192 56.8391 233.355 56.2129 234.25C55.7653 234.787 55.2281 235.056 54.6016 235.056C54.1841 235.056 53.7964 234.937 53.4385 234.698C52.6329 234.072 52.4535 232.818 53.0801 232.013ZM42.7861 223.42C43.5022 222.614 44.7559 222.524 45.5615 223.24C46.2775 223.956 46.3664 225.21 45.6504 226.016C45.2924 226.373 44.7556 226.641 44.2188 226.642C43.7712 226.642 43.3235 226.463 42.876 226.104C42.16 225.388 42.0703 224.225 42.7861 223.42ZM33.4775 213.752C34.2831 213.036 35.4462 213.126 36.1621 213.932C36.9676 214.737 36.8786 215.99 36.0732 216.706C35.7153 216.975 35.2674 217.153 34.7305 217.153C34.1934 217.153 33.7454 216.975 33.2979 216.527C32.5818 215.722 32.6719 214.468 33.4775 213.752ZM25.2422 203.279C26.0478 202.653 27.3012 202.832 27.9277 203.728C28.5539 204.623 28.3745 205.786 27.4795 206.412C27.1215 206.651 26.734 206.77 26.3164 206.771C25.7794 206.771 25.153 206.502 24.7949 205.965C24.1683 205.159 24.3471 203.906 25.2422 203.279ZM18.0811 192.001C18.9761 191.464 20.2294 191.732 20.7666 192.717C21.3037 193.612 20.9459 194.776 20.0508 195.313C19.6927 195.492 19.334 195.582 19.0654 195.582C18.3495 195.582 17.7232 195.223 17.3652 194.597C16.8283 193.702 17.186 192.538 18.0811 192.001ZM12.1738 180.007C13.1584 179.559 14.322 180.007 14.7695 180.991C15.217 181.976 14.7696 183.05 13.7852 183.498C13.487 183.617 13.2181 183.677 12.9795 183.677C12.2634 183.677 11.5465 183.229 11.1885 182.513C10.7412 181.528 11.1893 180.365 12.1738 180.007ZM7.6084 167.386C8.593 167.117 9.66733 167.654 10.0254 168.639C10.3834 169.713 9.75695 170.787 8.77246 171.146C8.59345 171.205 8.38418 171.234 8.14551 171.234C7.33991 171.234 6.624 170.697 6.35547 169.892C5.99761 168.818 6.53438 167.744 7.6084 167.386ZM4.29688 154.406C5.37084 154.227 6.35553 154.855 6.62402 155.929C6.80275 157.003 6.17631 157.987 5.10254 158.256C4.98326 158.256 4.86342 158.285 4.74414 158.345C3.84903 158.345 3.04295 157.718 2.77441 156.733C2.59573 155.749 3.31242 154.675 4.29688 154.406ZM2.41699 141.248C3.49102 141.069 4.47593 141.875 4.56543 142.949C4.65489 144.023 3.93835 145.008 2.86426 145.098H2.5957C1.61126 145.098 0.805487 144.381 0.71582 143.308C0.626309 142.233 1.34286 141.338 2.41699 141.248ZM1.96973 127.822C3.04359 127.823 3.8486 128.717 3.84863 129.791C3.84863 130.865 3.04361 131.76 1.96973 131.761C0.895595 131.761 0 130.865 0 129.791C3.63082e-05 128.717 0.895617 127.822 1.96973 127.822ZM2.77441 114.484C3.84849 114.663 4.65484 115.559 4.56543 116.633C4.47592 117.617 3.58032 118.423 2.5957 118.423C2.53616 118.423 2.47653 118.393 2.41699 118.334C1.34286 118.244 0.536798 117.349 0.71582 116.274C0.80556 115.201 1.79007 114.395 2.77441 114.484ZM2.77441 102.849C3.04295 101.775 4.02841 101.147 5.10254 101.326C6.17649 101.595 6.80303 102.58 6.62402 103.654C6.35539 104.549 5.5493 105.176 4.6543 105.176H4.29688C3.22289 104.907 2.59563 103.923 2.77441 102.849ZM6.26562 89.6904C6.62367 88.7058 7.698 88.169 8.68262 88.4375C9.75662 88.7956 10.2936 89.8693 9.93555 90.9434C9.667 91.7489 8.95106 92.2861 8.14551 92.2861C7.90681 92.2861 7.69758 92.256 7.51855 92.1963C6.53425 91.8381 5.90785 90.7643 6.26562 89.6904ZM11.0996 77.0693C11.5472 76.0847 12.7107 75.6374 13.6953 76.085C14.6797 76.5326 15.1272 77.6063 14.6797 78.5908C14.4111 79.3069 13.6952 79.7549 12.8896 79.7549C12.651 79.7549 12.3824 79.6945 12.084 79.5752C11.0995 79.1276 10.7416 78.0539 11.0996 77.0693ZM17.2754 64.9854C17.8125 64.0007 19.0658 63.7325 19.9609 64.2695C20.8559 64.8067 21.2138 65.9702 20.6768 66.8652C20.3187 67.4915 19.6924 67.8495 18.9766 67.8496C18.6782 67.8496 18.3493 67.7601 17.9912 67.5811C17.0964 67.044 16.7386 65.8803 17.2754 64.9854ZM239.263 64.001C240.247 63.4639 241.411 63.8217 241.948 64.7168C242.485 65.6118 242.127 66.8653 241.232 67.4023C240.964 67.5814 240.605 67.5811 240.247 67.5811C239.621 67.581 238.905 67.312 238.547 66.6855C238.01 65.701 238.368 64.5381 239.263 64.001ZM24.7051 53.5273C25.3317 52.722 26.5851 52.5434 27.3906 53.1699C28.2855 53.7966 28.4644 54.9605 27.8379 55.8555C27.4798 56.3923 26.853 56.6602 26.2266 56.6602C25.8686 56.6601 25.5103 56.5414 25.1523 56.3027C24.2573 55.6761 24.0785 54.4224 24.7051 53.5273ZM231.833 52.9014C232.639 52.2748 233.892 52.4536 234.519 53.3486C235.145 54.2437 234.966 55.4076 234.071 56.0342C233.713 56.2729 233.355 56.3926 232.997 56.3926C232.37 56.3926 231.744 56.1233 231.386 55.6758C230.759 54.7808 230.938 53.528 231.833 52.9014ZM33.209 42.9658C33.9251 42.2498 35.1778 42.1599 35.9834 42.876C36.789 43.5921 36.8782 44.8454 36.1621 45.5615V45.6504C35.7146 46.0084 35.1777 46.2773 34.6406 46.2773C34.1931 46.2773 33.7457 46.0982 33.3877 45.7402C32.5821 45.0241 32.4929 43.7714 33.209 42.9658ZM223.24 42.6973C224.046 41.9813 225.209 41.9809 226.015 42.7861C226.641 43.5917 226.642 44.8454 225.836 45.5615C225.478 45.9194 225.03 46.0088 224.493 46.0088C224.046 46.0087 223.509 45.8293 223.062 45.3818C222.346 44.5763 222.435 43.4134 223.24 42.6973ZM42.7861 33.3877C43.5917 32.6716 44.8454 32.7608 45.5615 33.5664C46.2776 34.3719 46.2771 35.5359 45.4717 36.252C45.0241 36.61 44.5764 36.7891 44.1289 36.7891C43.5918 36.7891 43.0543 36.6097 42.6963 36.1621C41.9807 35.3565 42.0702 34.1036 42.7861 33.3877ZM213.573 33.3877C214.289 32.5822 215.542 32.4929 216.348 33.209C217.153 33.925 217.243 35.1778 216.527 35.9834C216.08 36.431 215.632 36.6104 215.095 36.6104C214.558 36.6103 214.11 36.4306 213.752 36.1621C212.947 35.3565 212.857 34.1932 213.573 33.3877ZM53.3486 24.8838C54.2437 24.2575 55.4972 24.4367 56.0342 25.2422C56.7501 26.1373 56.4813 27.391 55.6758 28.0176C55.3178 28.286 54.8697 28.375 54.5117 28.375C53.8854 28.3749 53.3488 28.1062 52.9014 27.5693C52.2748 26.6742 52.543 25.5104 53.3486 24.8838ZM203.101 25.1523C203.727 24.2576 204.981 24.0786 205.786 24.7051C206.681 25.3317 206.86 26.4956 206.233 27.3906C205.875 27.9277 205.249 28.1963 204.622 28.1963C204.264 28.1963 203.906 28.1064 203.548 27.8379C202.653 27.2113 202.474 25.9579 203.101 25.1523ZM64.7168 17.4551C65.7013 16.9182 66.8643 17.1865 67.4014 18.1709C67.9384 19.066 67.5807 20.2295 66.6855 20.7666C66.3872 20.9456 66.0592 21.0351 65.7012 21.0352C65.0746 21.0352 64.358 20.6774 64 20.0508C63.463 19.1557 63.8217 17.9921 64.7168 17.4551ZM191.732 17.9922C192.269 17.0971 193.523 16.7383 194.418 17.2754C195.313 17.8124 195.671 19.0658 195.134 19.9609C194.776 20.5875 194.149 20.9453 193.433 20.9453C193.075 20.9452 192.746 20.8557 192.448 20.6768C191.553 20.1396 191.196 18.9766 191.732 17.9922ZM76.8008 11.2783C77.7852 10.8311 78.9489 11.2784 79.3965 12.2627C79.844 13.2473 79.3958 14.322 78.4111 14.7695C78.1129 14.8888 77.8441 14.9482 77.6055 14.9482C76.8896 14.9481 76.1734 14.5905 75.8154 13.7852C75.3679 12.8005 75.8162 11.7259 76.8008 11.2783ZM179.738 12.1738C180.186 11.1892 181.349 10.7419 182.334 11.1895C183.318 11.5476 183.766 12.7108 183.318 13.6953C182.96 14.4114 182.244 14.8593 181.528 14.8594C181.23 14.8594 180.961 14.799 180.723 14.6797C179.738 14.2321 179.291 13.1584 179.738 12.1738ZM89.5107 6.35547C90.4953 5.99745 91.5696 6.62389 91.9277 7.6084C92.2858 8.6825 91.6594 9.75716 90.6748 10.1152C90.4958 10.1749 90.2865 10.2041 90.0479 10.2041C89.2423 10.204 88.5263 9.66689 88.2578 8.86133C87.9 7.78737 88.4368 6.71353 89.5107 6.35547ZM167.206 7.51953C167.475 6.53499 168.638 5.99725 169.623 6.26562C170.697 6.62367 171.234 7.69833 170.876 8.77246C170.607 9.57778 169.892 10.1151 168.997 10.1152C168.818 10.1152 168.639 10.085 168.46 10.0254C167.386 9.6674 166.848 8.59349 167.206 7.51953ZM102.579 2.86426C103.653 2.59575 104.639 3.31179 104.907 4.38574C105.086 5.37036 104.459 6.445 103.385 6.62402C103.266 6.68355 103.146 6.71382 103.027 6.71387C102.132 6.71387 101.326 6.08652 101.058 5.19141C100.879 4.11754 101.505 3.04343 102.579 2.86426ZM154.228 4.29688C154.407 3.22274 155.481 2.59637 156.555 2.77539C157.539 3.04398 158.255 4.02846 157.986 5.10254C157.807 5.99736 157.002 6.62386 156.107 6.62402H155.749C154.675 6.3555 153.959 5.37097 154.228 4.29688ZM116.006 0.71582C117.08 0.626309 118.065 1.4327 118.154 2.50684C118.244 3.49134 117.438 4.47591 116.364 4.56543C116.305 4.62495 116.245 4.65419 116.186 4.6543C115.201 4.6543 114.395 3.84888 114.306 2.86426C114.127 1.79028 114.932 0.894907 116.006 0.71582ZM143.128 0.71582C144.202 0.805323 144.918 1.79024 144.829 2.86426C144.74 3.84878 143.934 4.56528 142.949 4.56543H142.681C141.607 4.47592 140.89 3.4911 140.979 2.41699C141.069 1.3429 142.054 0.626365 143.128 0.71582ZM129.522 0C130.597 0.000106798 131.491 0.895659 131.491 1.96973C131.491 3.04365 130.596 3.93837 129.522 3.93848C128.448 3.93848 127.643 3.04371 127.643 1.96973C127.643 0.895595 128.448 0 129.522 0Z" fill="var(--fill-0, #D6BEEB)"/>
</svg>
