<svg preserveAspectRatio="none" width="100%" height="100%" overflow="visible" style="display: block;" viewBox="0 0 309.998 352.047" fill="none" xmlns="http://www.w3.org/2000/svg">
<path id="Subtract" d="M176.516 349.451C177.232 349.451 177.769 349.988 177.769 350.704C177.768 351.42 177.232 352.047 176.516 352.047H176.068C175.352 352.047 174.726 351.42 174.726 350.704C174.726 349.988 175.352 349.451 176.068 349.451H176.516ZM162.463 348.914C163.179 349.004 163.715 349.63 163.626 350.346C163.626 350.972 163 351.51 162.373 351.51H162.283C161.567 351.42 161.03 350.793 161.03 350.077C161.12 349.361 161.747 348.825 162.463 348.914ZM190.121 348.914C190.748 348.825 191.464 349.361 191.464 350.077C191.553 350.793 191.017 351.42 190.301 351.51H190.211C189.495 351.51 188.958 350.972 188.868 350.256C188.868 349.54 189.405 348.914 190.121 348.914ZM148.946 347.303C149.662 347.482 150.11 348.108 150.021 348.824C149.931 349.451 149.394 349.898 148.768 349.898H148.499C147.783 349.809 147.335 349.093 147.425 348.377C147.604 347.75 148.23 347.213 148.946 347.303ZM133.998 345.691C134.177 344.975 134.893 344.528 135.609 344.707C136.236 344.886 136.683 345.602 136.504 346.229C136.414 346.855 135.877 347.213 135.251 347.213H134.982C134.267 347.034 133.819 346.318 133.998 345.691ZM120.84 341.842C121.019 341.126 121.825 340.769 122.451 341.037C123.167 341.216 123.525 341.932 123.347 342.647C123.168 343.185 122.63 343.543 122.093 343.543C121.914 343.543 121.765 343.513 121.646 343.453C121.019 343.274 120.661 342.558 120.84 341.842ZM108.04 337.009C108.309 336.293 109.024 336.025 109.74 336.293C110.367 336.561 110.636 337.367 110.367 337.993C110.188 338.441 109.74 338.799 109.203 338.799C109.024 338.799 108.845 338.769 108.666 338.709C108.04 338.44 107.772 337.635 108.04 337.009ZM95.5977 331.101C95.8663 330.474 96.6723 330.205 97.2988 330.563C97.9254 330.922 98.1933 331.638 97.9248 332.354C97.6563 332.802 97.2091 333.07 96.7617 333.07C96.5231 333.07 96.3138 333.011 96.1348 332.892C95.5082 332.534 95.2396 331.817 95.5977 331.101ZM83.6934 324.298C84.0515 323.761 84.857 323.582 85.4834 323.94C86.0202 324.299 86.2883 325.104 85.8408 325.73C85.6617 326.088 85.2141 326.268 84.7666 326.268C84.4983 326.268 84.3192 326.267 84.0508 326.088C83.514 325.73 83.3354 324.924 83.6934 324.298ZM72.3252 316.601C72.7727 316.064 73.5782 315.884 74.1152 316.332C74.7416 316.78 74.8313 317.585 74.3838 318.122C74.1153 318.48 73.7573 318.659 73.3994 318.659C73.1011 318.659 72.8324 318.57 72.5938 318.391C72.0567 318.033 71.8778 317.227 72.3252 316.601ZM61.584 308.007C62.0316 307.47 62.8374 307.471 63.4639 307.918C64.0005 308.366 64.0002 309.171 63.5527 309.708C63.2842 310.066 62.9263 310.155 62.5684 310.155C62.27 310.155 62.0014 310.066 61.7627 309.887C61.2257 309.439 61.1365 308.633 61.584 308.007ZM51.5586 298.698C52.0957 298.161 52.9014 298.161 53.4385 298.698C53.9752 299.146 53.9753 299.951 53.4385 300.488C53.1699 300.757 52.8115 300.847 52.543 300.847C52.185 300.847 51.8271 300.757 51.5586 300.488C51.111 299.951 51.1111 299.146 51.5586 298.698ZM42.3389 288.494C42.8759 288.047 43.7712 288.136 44.2188 288.673C44.6661 289.21 44.5768 290.015 44.04 290.463C43.8015 290.701 43.5326 290.821 43.2344 290.821C42.7868 290.821 42.428 290.642 42.249 290.373C41.8019 289.836 41.8021 288.942 42.3389 288.494ZM33.9248 277.663C34.5514 277.305 35.3568 277.395 35.7148 277.932C36.1624 278.558 36.0729 279.364 35.4463 279.812C35.2077 279.99 34.9691 280.05 34.7305 279.99C34.2829 279.99 33.9248 279.811 33.6562 279.453C33.2088 278.916 33.3878 278.111 33.9248 277.663ZM26.4062 266.205C27.0328 265.847 27.8383 266.027 28.1963 266.653C28.5541 267.28 28.3753 268.085 27.749 268.443C27.57 268.533 27.3011 268.622 27.1221 268.622C26.6745 268.622 26.2265 268.444 25.958 267.996C25.6 267.37 25.7797 266.653 26.4062 266.205ZM19.7822 254.211C20.4088 253.943 21.2139 254.122 21.4824 254.838C21.8405 255.464 21.5719 256.18 20.9453 256.538C20.7664 256.657 20.5579 256.718 20.3193 256.718C19.8718 256.718 19.4241 256.449 19.2451 256.001C18.8873 255.374 19.1557 254.569 19.7822 254.211ZM14.1426 241.77C14.7692 241.501 15.4857 241.769 15.8438 242.485C16.112 243.112 15.7541 243.827 15.1279 244.186C14.949 244.245 14.7697 244.275 14.5908 244.275C14.1433 244.275 13.6058 243.917 13.4268 243.47C13.1583 242.754 13.4268 242.038 14.1426 241.77ZM9.48828 228.88C10.1149 228.611 10.8311 228.969 11.0996 229.686C11.2784 230.401 10.9203 231.117 10.2939 231.296C10.1151 231.356 9.96598 231.386 9.84668 231.386C9.30961 231.386 8.7718 231.027 8.59277 230.49C8.41408 229.774 8.77245 229.059 9.48828 228.88ZM5.81836 215.632C6.53436 215.453 7.25056 215.9 7.42969 216.616C7.60869 217.243 7.16128 217.96 6.44531 218.139C6.32614 218.139 6.23643 218.168 6.17676 218.228C5.55023 218.228 5.01305 217.78 4.83398 217.243C4.74447 216.527 5.19179 215.811 5.81836 215.632ZM3.22266 202.116C3.93856 202.027 4.65437 202.563 4.74414 203.189C4.83365 203.906 4.38601 204.622 3.66992 204.712H3.49121C2.86474 204.712 2.32792 204.264 2.23828 203.638C2.05926 202.922 2.59609 202.295 3.22266 202.116ZM1.79004 188.51C2.50613 188.51 3.13281 188.958 3.13281 189.764C3.22203 190.39 2.68549 191.016 1.96973 191.105H1.87988C1.16383 191.105 0.626663 190.569 0.537109 189.942C0.537109 189.226 1.07411 188.599 1.79004 188.51ZM1.34277 174.814C2.05876 174.814 2.59555 175.352 2.5957 176.157C2.5957 176.784 2.05886 177.411 1.34277 177.411C0.626712 177.411 0 176.784 0 176.157C0.000172874 175.352 0.626811 174.814 1.34277 174.814ZM1.96973 161.12C2.68563 161.12 3.22225 161.836 3.13281 162.552C3.13281 163.178 2.50646 163.716 1.87988 163.716H1.79004C1.07411 163.626 0.537109 162.999 0.537109 162.283C0.626687 161.567 1.25369 161.031 1.96973 161.12ZM3.66992 147.514C4.2965 147.603 4.83365 148.32 4.74414 148.946C4.65459 149.662 4.02792 150.11 3.40137 150.11C3.34181 150.11 3.28222 150.08 3.22266 150.021C2.50657 149.931 2.05893 149.304 2.14844 148.588C2.23811 147.872 2.95401 147.424 3.66992 147.514ZM4.83398 135.072C5.01301 134.356 5.63938 133.909 6.35547 134.088C7.07147 134.267 7.51885 134.893 7.33984 135.609C7.16074 136.236 6.62389 136.594 6.08691 136.594H5.81836C5.10234 136.415 4.65509 135.699 4.83398 135.072ZM8.59277 121.735C8.77179 121.019 9.48805 120.661 10.2041 120.93C10.8306 121.109 11.278 121.824 11.0098 122.54C10.8307 123.077 10.2939 123.436 9.75684 123.436C9.63749 123.436 9.51779 123.405 9.39844 123.346C8.68283 123.167 8.32466 122.451 8.59277 121.735ZM13.3369 108.756C13.6054 108.04 14.4115 107.772 15.0381 108.04C15.6645 108.309 16.0223 109.114 15.7539 109.74C15.4854 110.277 15.038 110.546 14.501 110.546C14.3817 110.546 14.2327 110.516 14.0537 110.456C13.4272 110.188 13.0685 109.382 13.3369 108.756ZM19.1553 96.1348C19.4238 95.5977 20.2299 95.3291 20.8564 95.5977C21.4828 95.9557 21.7513 96.6718 21.3936 97.3877C21.2146 97.8352 20.7668 98.1044 20.3193 98.1045C20.0806 98.1045 19.8714 98.0442 19.6924 97.9248C19.066 97.5667 18.7973 96.8507 19.1553 96.1348ZM25.8691 84.1406C26.2272 83.5141 27.0326 83.3344 27.6592 83.6924C28.2858 84.0504 28.4645 84.8568 28.1064 85.4834C27.8379 85.8413 27.3902 86.1094 27.0322 86.1094C26.7936 86.1093 26.555 86.0499 26.3164 85.9307C25.6899 85.4831 25.5112 84.7672 25.8691 84.1406ZM33.5664 72.5938C34.014 72.0567 34.8204 71.9672 35.3574 72.3252C35.9835 72.7728 36.0733 73.5783 35.626 74.1152C35.447 74.4733 34.9987 74.6523 34.6406 74.6523C34.3424 74.6523 34.0736 74.5929 33.835 74.4736C33.2979 74.0261 33.1189 73.2197 33.5664 72.6826V72.5938ZM42.1602 61.7627C42.6077 61.2257 43.4132 61.1365 43.9502 61.584C44.4869 62.121 44.5762 62.9259 44.1289 63.4629C43.8604 63.7314 43.5025 63.9111 43.1445 63.9111C42.8462 63.9111 42.5474 63.8216 42.249 63.6426C41.712 63.1055 41.6231 62.2998 42.1602 61.7627ZM307.918 61.4043C308.455 60.8675 309.261 60.9572 309.798 61.4941C309.885 61.599 309.951 61.7146 309.998 61.8359L309.333 63.5283C309.159 63.6032 308.986 63.6426 308.812 63.6426C308.455 63.6425 308.007 63.4628 307.828 63.1943C307.291 62.6573 307.381 61.8518 307.918 61.4043ZM51.4688 51.6475C52.0057 51.1106 52.8116 51.1107 53.3486 51.6475C53.8857 52.095 53.8857 52.9909 53.3486 53.4385C53.0801 53.7068 52.7216 53.7959 52.4531 53.7959C52.0953 53.7958 51.7372 53.7068 51.4688 53.4385C51.0212 52.9909 51.0212 52.095 51.4688 51.6475ZM298.52 51.3789C299.056 50.8424 299.862 50.8424 300.398 51.3789C300.846 51.916 300.846 52.7224 300.398 53.1699C300.13 53.4382 299.772 53.6172 299.414 53.6172C299.146 53.6171 298.788 53.4382 298.52 53.1699C298.072 52.7224 298.072 51.916 298.52 51.3789ZM61.6729 42.249C62.2099 41.8015 63.0163 41.8018 63.4639 42.3389C63.9111 42.876 63.8211 43.7713 63.2842 44.2188C63.0456 44.3976 62.7768 44.4873 62.4785 44.4873C62.1206 44.4873 61.7626 44.397 61.4941 44.0391C61.0468 43.502 61.136 42.6965 61.6729 42.249ZM288.404 42.1602C288.852 41.6232 289.657 41.5332 290.194 41.9805C290.731 42.428 290.821 43.3233 290.374 43.8604C290.105 44.1289 289.747 44.3076 289.389 44.3076C289.031 44.3076 288.762 44.2184 288.494 43.9502C287.957 43.5027 287.957 42.6972 288.404 42.1602ZM72.5039 33.6562C73.041 33.2087 73.8464 33.3878 74.2939 33.9248C74.7415 34.5514 74.5625 35.3568 74.0254 35.7148C73.7569 35.8938 73.4882 35.9834 73.2197 35.9834C72.8617 35.9833 72.4139 35.8042 72.1455 35.4463C71.7877 34.9093 71.8776 34.1038 72.5039 33.6562ZM277.573 33.7461C277.931 33.1195 278.738 33.03 279.364 33.4775C279.901 33.8357 280.079 34.6412 279.632 35.2676C279.363 35.6253 279.006 35.8046 278.559 35.8047C278.32 35.8047 278.08 35.7152 277.842 35.5361C277.215 35.0887 277.126 34.2831 277.573 33.7461ZM83.9609 25.958C84.5875 25.6 85.3939 25.7797 85.752 26.4062C86.1096 27.0327 85.9301 27.7489 85.3037 28.1963C85.1248 28.2857 84.8566 28.3749 84.6777 28.375C84.2302 28.375 83.7822 28.1956 83.5137 27.748C83.156 27.1216 83.3347 26.3161 83.9609 25.958ZM266.026 26.2266C266.474 25.6 267.28 25.4213 267.817 25.7793C268.444 26.1374 268.623 26.9429 268.265 27.5693C267.996 27.9273 267.638 28.1962 267.19 28.1963C266.952 28.1963 266.713 28.1359 266.475 28.0166C265.848 27.5691 265.668 26.7636 266.026 26.2266ZM95.9561 19.2451C96.5826 18.8871 97.3881 19.1557 97.7461 19.7822C98.0145 20.4088 97.8354 21.2139 97.209 21.4824C96.9703 21.6018 96.7611 21.6621 96.582 21.6621C96.1346 21.6619 95.6874 21.3927 95.4189 20.9453C95.061 20.3188 95.3295 19.5133 95.9561 19.1553C95.9561 19.1553 95.9561 19.1854 95.9561 19.2451ZM254.032 19.6025C254.39 18.9762 255.107 18.7081 255.733 18.9766C256.449 19.3347 256.717 20.1402 256.359 20.7666C256.091 21.214 255.644 21.4823 255.196 21.4824C255.017 21.4824 254.808 21.423 254.569 21.3037C253.943 21.0352 253.764 20.2291 254.032 19.6025ZM108.487 13.4268C109.203 13.1582 109.92 13.4265 110.188 14.1426C110.457 14.7691 110.188 15.4854 109.562 15.7539C109.383 15.8733 109.203 15.9326 109.024 15.9326C108.487 15.9326 108.04 15.5745 107.771 15.127C107.593 14.411 107.861 13.6953 108.487 13.4268ZM241.501 13.9639C241.77 13.2478 242.575 12.9795 243.201 13.248C243.917 13.5166 244.186 14.2322 243.917 14.9482C243.738 15.3958 243.201 15.7539 242.754 15.7539C242.575 15.7539 242.396 15.7237 242.217 15.6641C241.59 15.3955 241.232 14.5904 241.501 13.9639ZM121.467 8.59277C122.183 8.41396 122.899 8.77204 123.078 9.39844C123.347 10.1144 122.988 10.831 122.272 11.0996H121.914C121.287 11.0996 120.84 10.7412 120.661 10.2041C120.393 9.57754 120.751 8.8613 121.467 8.59277ZM228.611 9.30957C228.79 8.59348 229.596 8.23537 230.223 8.50391C230.938 8.6831 231.297 9.39928 231.028 10.1152C230.849 10.6521 230.401 11.0098 229.864 11.0098C229.685 11.0098 229.536 10.9796 229.417 10.9199C228.791 10.7409 228.432 10.0255 228.611 9.30957ZM134.804 4.83398C135.43 4.65496 136.146 5.10227 136.325 5.81836C136.504 6.53439 136.057 7.25027 135.341 7.33984C135.281 7.3995 135.192 7.42967 135.072 7.42969C134.446 7.42969 133.998 6.98214 133.819 6.44531C133.64 5.72924 134.088 5.01303 134.804 4.83398ZM215.363 5.72852C215.542 5.01264 216.258 4.5654 216.885 4.74414C217.601 4.92314 218.049 5.63911 217.87 6.26562C217.781 6.8922 217.243 7.33984 216.616 7.33984C216.497 7.33978 216.407 7.30961 216.348 7.25C215.632 7.07076 215.184 6.35494 215.363 5.72852ZM148.319 2.14844C149.035 2.05893 149.662 2.50657 149.752 3.22266C149.931 3.93858 149.394 4.56506 148.768 4.74414H148.499C147.872 4.74414 147.336 4.29649 147.246 3.66992C147.157 2.95399 147.604 2.23821 148.319 2.14844ZM203.369 2.05859C204.085 2.2376 204.533 2.86419 204.443 3.58008C204.354 4.20665 203.816 4.6543 203.189 4.6543H203.011C202.295 4.56465 201.758 3.84881 201.937 3.13281C202.026 2.41677 202.653 1.96909 203.369 2.05859ZM162.015 0.537109C162.731 0.447598 163.358 0.985084 163.447 1.70117C163.447 2.41707 162.91 3.04332 162.283 3.13281H162.104C161.478 3.1328 160.941 2.59589 160.852 1.87988C160.762 1.16388 161.299 0.537262 162.015 0.537109ZM189.674 0.447266C190.39 0.536777 190.927 1.1638 190.838 1.87988C190.748 2.59593 190.211 3.04297 189.584 3.04297H189.405C188.779 3.04292 188.241 2.41705 188.241 1.70117C188.331 0.985084 188.958 0.447266 189.674 0.447266ZM175.8 0C176.605 8.36044e-05 177.142 0.537018 177.143 1.25293C177.143 1.96896 176.605 2.59561 175.8 2.5957C175.173 2.5957 174.547 1.96902 174.547 1.25293C174.547 0.536962 175.173 0 175.8 0Z" fill="var(--fill-0, #D6BEEB)"/>
</svg>
