<svg preserveAspectRatio="none" width="100%" height="100%" overflow="visible" style="display: block;" viewBox="0 0 104.996 104.996" fill="none" xmlns="http://www.w3.org/2000/svg">
<path id="&#60;Compound Path&#62;" d="M49.4995 101.953C49.4995 100.252 50.8422 98.9096 52.5429 98.9096C52.6026 98.9096 52.6622 98.9096 52.7219 98.9096C54.4226 98.9096 55.7653 100.252 55.7653 101.953C55.7653 103.564 54.4226 104.996 52.7219 104.996C52.7219 104.996 52.6921 104.996 52.6324 104.996C52.6324 104.996 52.6026 104.996 52.5429 104.996C50.8422 104.996 49.4995 103.654 49.4995 101.953V101.953ZM38.9372 103.206C37.326 102.759 36.431 101.147 36.789 99.5362C37.2366 97.925 38.9372 96.9403 40.5484 97.3879C42.1596 97.7459 43.0548 99.4466 42.6967 101.058C42.3387 102.4 41.0855 103.296 39.7428 103.296C39.5041 103.296 39.2356 103.266 38.9372 103.206ZM62.5681 101.058C62.2101 99.4466 63.1052 97.746 64.7164 97.2984C66.3276 96.8508 68.0283 97.8354 68.4758 99.4466C68.8339 101.058 67.9388 102.669 66.3276 103.117C66.0293 103.176 65.7607 103.206 65.522 103.206C64.1794 103.206 62.9262 102.4 62.5681 101.058ZM26.3162 97.9249C24.884 97.1193 24.347 95.2396 25.2421 93.8075C26.0477 92.3753 27.8379 91.8382 29.3596 92.7333C30.7918 93.5389 31.2393 95.4187 30.4337 96.8508C29.8966 97.8355 28.8226 98.3725 27.8379 98.3725C27.3009 98.3725 26.7637 98.1935 26.3162 97.9249V97.9249ZM74.8312 96.7613C74.0256 95.3291 74.4731 93.4494 75.9053 92.6438C77.3374 91.8382 79.2172 92.2858 80.0227 93.718C80.9179 95.1501 80.3808 97.0298 78.9487 97.8354C78.4713 98.1338 77.964 98.283 77.4269 98.283C76.3528 98.283 75.3682 97.7459 74.8312 96.7613V96.7613ZM15.4854 89.6004C14.2322 88.4368 14.2322 86.5571 15.4854 85.3039C16.649 84.1403 18.5287 84.1403 19.6924 85.3039C20.856 86.4676 20.856 88.4368 19.6924 89.6004C19.1553 90.227 18.3498 90.4955 17.5442 90.4955C16.8281 90.4955 16.0224 90.227 15.4854 89.6004ZM85.4829 89.5109C84.3193 88.3473 84.3193 86.3781 85.4829 85.2144C86.6465 84.0508 88.6158 84.0508 89.7795 85.2144C90.9431 86.3781 90.9431 88.2578 89.7795 89.4214C89.1529 90.048 88.4368 90.3165 87.6312 90.3165C86.8256 90.3165 86.1095 90.048 85.4829 89.5109V89.5109ZM7.07133 78.7696C6.26573 77.3375 6.71335 75.4577 8.14553 74.6521C9.66721 73.757 11.4574 74.2941 12.3525 75.7262C13.1581 77.1584 12.621 79.0382 11.1888 79.8438C10.7114 80.1421 10.2042 80.2913 9.66717 80.2913C8.68255 80.2913 7.6084 79.7542 7.07133 78.7696ZM93.9864 79.6647C92.5543 78.8591 92.0173 76.9794 92.8229 75.5472C93.6285 74.115 95.5082 73.6675 96.9403 74.4731C98.462 75.2787 98.9096 77.1584 98.104 78.5906C97.567 79.5752 96.4928 80.1123 95.5082 80.1123C94.9711 80.1123 94.4638 79.9631 93.9864 79.6647V79.6647ZM1.79016 66.1486C1.43212 64.4478 2.32725 62.8367 3.93845 62.3891C5.54965 61.9416 7.25042 62.9262 7.69797 64.5374C8.14553 66.1486 7.16089 67.8493 5.54969 68.2073C5.25132 68.3267 4.98276 68.3863 4.74407 68.3863C3.4014 68.3863 2.23772 67.4912 1.79016 66.1486ZM99.6257 68.0283C98.0145 67.6703 97.0298 65.9695 97.4774 64.3583C97.8354 62.7471 99.5361 61.7625 101.147 62.2101C102.759 62.6577 103.743 64.2688 103.296 65.88C102.938 67.2227 101.684 68.1178 100.342 68.1178C100.103 68.1178 99.8644 68.088 99.6257 68.0283ZM0 52.5429C0 50.8422 1.34263 49.4995 3.04334 49.4995C4.74405 49.4995 6.08673 50.8422 6.08673 52.5429C6.08673 54.2436 4.74405 55.5863 3.04334 55.5863C1.43214 55.5863 0 54.2436 0 52.5429V52.5429ZM98.9991 52.3639C98.9991 50.6632 100.342 49.3205 101.953 49.3205C103.654 49.3205 104.996 50.6632 104.996 52.2744C104.996 53.9751 103.654 55.3178 102.042 55.3178C100.342 55.3178 98.9991 53.9751 98.9991 52.3639ZM3.93845 42.6072C2.32725 42.2491 1.34261 40.5485 1.79016 38.9373C2.23772 37.3261 3.849 36.3414 5.4602 36.789C7.16091 37.2365 8.05593 38.9372 7.60838 40.5484C7.25033 41.8911 6.08673 42.7862 4.74407 42.7862C4.4457 42.7862 4.17714 42.7265 3.93845 42.6072V42.6072ZM97.3879 40.3694C96.9403 38.6687 97.925 37.0575 99.5362 36.6099C101.147 36.1624 102.759 37.147 103.206 38.7582C103.654 40.3694 102.669 41.9806 101.058 42.4282C100.819 42.4878 100.58 42.5177 100.342 42.5177C98.9991 42.5177 97.7459 41.7121 97.3879 40.3694ZM8.14553 30.4337C6.71335 29.5386 6.17622 27.7484 7.07133 26.3162C7.87693 24.884 9.66713 24.347 11.1888 25.1526C12.621 26.0477 13.0686 27.8379 12.263 29.2701C11.7259 30.2547 10.6518 30.7917 9.66717 30.7917C9.13011 30.7917 8.59308 30.7023 8.14553 30.4337V30.4337ZM92.7334 29.1805C91.8383 27.7484 92.3753 25.8686 93.8075 24.9735C95.2396 24.1679 97.1193 24.705 97.9249 26.1372C98.7305 27.5694 98.283 29.3596 96.8508 30.2547C96.4033 30.5232 95.8662 30.6128 95.3291 30.6128C94.255 30.6128 93.2704 30.0757 92.7334 29.1805V29.1805ZM15.3959 19.6924C14.1427 18.5288 14.1427 16.5595 15.3959 15.3959C16.5595 14.2323 18.4392 14.2323 19.6029 15.3959C20.856 16.5595 20.856 18.5288 19.6029 19.6924C19.0658 20.319 18.2602 20.5875 17.4546 20.5875C16.7385 20.5875 15.933 20.319 15.3959 19.6924ZM85.3039 19.5134C84.1403 18.3497 84.1403 16.47 85.3039 15.3063C86.4676 14.1427 88.3473 14.1427 89.6005 15.3063C90.7641 16.47 90.7641 18.3497 89.6005 19.5134C88.9739 20.14 88.2578 20.4085 87.4522 20.4085C86.6466 20.4085 85.841 20.14 85.3039 19.5134V19.5134ZM25.1526 11.1889C24.2575 9.75669 24.7945 7.87693 26.2267 7.07133C27.6589 6.17622 29.5386 6.7133 30.3442 8.14547C31.1498 9.57765 30.7023 11.4574 29.2701 12.263C28.733 12.5315 28.1959 12.7106 27.7483 12.7106C26.6742 12.7106 25.6897 12.1735 25.1526 11.1889V11.1889ZM75.6367 12.1735C74.2045 11.3679 73.757 9.48816 74.5626 8.05598C75.3682 6.62381 77.2479 6.08673 78.6801 6.98184C80.1123 7.78744 80.6494 9.66715 79.7543 11.0993C79.2172 12.0839 78.2326 12.621 77.1584 12.621C76.6811 12.621 76.1738 12.4718 75.6367 12.1735V12.1735ZM36.6994 5.46015C36.2519 3.84895 37.2365 2.23777 38.8477 1.79022C40.4589 1.34266 42.1596 2.32725 42.5176 3.93845C42.9652 5.54965 42.0702 7.16088 40.459 7.60843C40.1606 7.6681 39.892 7.69792 39.6533 7.69792C38.3107 7.69792 37.0575 6.80281 36.6994 5.46015ZM64.4478 7.60843C62.8366 7.16088 61.8521 5.46016 62.2996 3.84896C62.7472 2.23776 64.3584 1.34263 65.9696 1.70068C67.6703 2.14823 68.5654 3.84895 68.2073 5.46015C67.7598 6.80281 66.5961 7.69792 65.2534 7.69792C64.9551 7.69792 64.6865 7.6681 64.4478 7.60843V7.60843ZM49.4101 3.04334C49.4101 1.34263 50.7527 0 52.4534 0C54.0646 0 55.4967 1.34263 55.4967 3.04334C55.4967 4.65454 54.0646 5.99724 52.4534 5.99724C50.7527 5.99724 49.4101 4.65454 49.4101 3.04334Z" fill="var(--fill-0, #D6BEEB)"/>
</svg>
