<svg preserveAspectRatio="none" width="100%" height="100%" overflow="visible" style="display: block;" viewBox="0 0 217.505 228.349" fill="none" xmlns="http://www.w3.org/2000/svg">
<path id="Subtract" d="M114.574 224.052C115.738 224.052 116.723 224.947 116.723 226.2C116.722 227.364 115.738 228.349 114.574 228.349H114.216C113.052 228.349 112.068 227.364 112.067 226.2C112.067 224.947 113.052 224.052 114.216 224.052H114.574ZM101.237 223.246C102.401 223.426 103.206 224.5 103.116 225.663C102.937 226.737 102.043 227.543 100.969 227.543H100.7C99.5366 227.364 98.6414 226.29 98.8203 225.126C98.9098 223.963 100.074 223.157 101.237 223.246ZM127.553 223.246C128.716 223.067 129.791 223.873 129.97 225.126C130.059 226.29 129.253 227.364 128.09 227.543H127.821C126.747 227.543 125.762 226.737 125.673 225.663C125.494 224.41 126.389 223.336 127.553 223.246ZM85.752 222.531C86.0205 221.367 87.2729 220.651 88.4365 220.919C89.5107 221.277 90.2275 222.441 89.959 223.605C89.7798 224.589 88.8839 225.215 87.8994 225.215C87.7205 225.215 87.5412 225.186 87.3623 225.126V225.215C86.199 224.857 85.4836 223.694 85.752 222.531ZM140.354 220.919C141.517 220.651 142.681 221.277 142.949 222.441C143.218 223.604 142.501 224.768 141.338 225.126H140.891C139.906 225.126 139.011 224.5 138.742 223.515C138.474 222.351 139.19 221.188 140.354 220.919ZM73.1309 218.412C73.5786 217.339 74.8313 216.712 75.9053 217.159C77.0689 217.607 77.6058 218.861 77.1582 219.935C76.8895 220.83 76.0843 221.366 75.1895 221.367C74.9508 221.367 74.6821 221.307 74.3838 221.188C73.3097 220.83 72.7728 219.576 73.1309 218.412ZM152.795 217.07C153.869 216.622 155.123 217.16 155.57 218.324C156.018 219.398 155.39 220.65 154.316 221.098C154.078 221.158 153.81 221.217 153.512 221.277C152.706 221.277 151.811 220.74 151.542 219.845C151.094 218.681 151.631 217.428 152.795 217.07ZM61.1357 212.864C61.6727 211.79 62.926 211.341 64 211.878C65.0741 212.505 65.5223 213.758 64.9854 214.832C64.5378 215.548 63.8212 215.996 63.0156 215.996C62.6577 215.996 62.3891 215.907 62.0312 215.728C60.9573 215.191 60.599 213.938 61.1357 212.864ZM163.771 214.744C163.752 214.715 163.733 214.685 163.716 214.654C163.179 213.58 163.626 212.326 164.7 211.789C164.791 211.744 164.884 211.706 164.977 211.673L163.771 214.744ZM49.8574 205.881C50.484 204.897 51.8269 204.628 52.8115 205.254C53.7961 205.97 54.0647 207.314 53.3486 208.298C52.9906 208.925 52.2746 209.193 51.5586 209.193C51.1409 209.193 50.7526 209.074 50.3945 208.835C49.4099 208.209 49.1414 206.866 49.8574 205.881ZM39.3848 197.557C40.1902 196.662 41.5326 196.572 42.4277 197.377C43.3228 198.183 43.4124 199.526 42.6963 200.421C42.2488 200.869 41.6225 201.137 40.9961 201.137C40.5485 201.137 40.0114 200.958 39.6533 200.6C39.6533 200.6 39.6533 200.63 39.6533 200.69C38.7583 199.884 38.5793 198.452 39.3848 197.557ZM30.0762 188.159C30.9713 187.353 32.3136 187.442 33.1191 188.337C33.9245 189.143 33.8351 190.575 32.9404 191.38C32.5824 191.738 32.0449 191.917 31.5078 191.917C30.9708 191.917 30.344 191.649 29.8965 191.201C29.091 190.306 29.1811 188.964 30.0762 188.159ZM21.8408 177.685C22.8253 176.969 24.1677 177.238 24.8838 178.222C25.5999 179.207 25.3316 180.549 24.4365 181.176C24.0189 181.474 23.6012 181.623 23.1836 181.623C22.4676 181.623 21.8411 181.266 21.3936 180.729C20.6775 179.744 20.9457 178.401 21.8408 177.685ZM15.0381 166.318C16.0226 165.781 17.3652 166.138 17.9023 167.212C18.5289 168.197 18.0813 169.54 17.0967 170.166C16.7386 170.345 16.3805 170.435 16.0225 170.435C15.3064 170.435 14.5901 169.987 14.1426 169.271C13.6058 168.197 13.9641 166.944 15.0381 166.318ZM9.48828 154.234C10.6519 153.786 11.905 154.323 12.3525 155.487C12.8 156.561 12.263 157.813 11.0996 158.261C10.861 158.38 10.5922 158.441 10.2939 158.441C9.48836 158.441 8.68227 157.904 8.32422 157.098C7.87667 155.934 8.41416 154.681 9.48828 154.234ZM5.45996 141.613C6.6236 141.255 7.78746 141.97 8.14551 143.134C8.41401 144.298 7.78752 145.461 6.62402 145.73C6.44506 145.789 6.26588 145.82 6.08691 145.82C5.10245 145.82 4.20716 145.193 3.93848 144.298C3.66997 143.135 4.38599 141.971 5.45996 141.613ZM3.04297 128.544C4.2065 128.365 5.28078 129.17 5.45996 130.423C5.63898 131.587 4.83356 132.661 3.66992 132.84H3.31152C2.2376 132.84 1.3431 132.124 1.16406 131.05C0.985066 129.887 1.87956 128.724 3.04297 128.544ZM2.05859 115.296C3.31175 115.296 4.29688 116.191 4.29688 117.445C4.38622 118.608 3.40086 119.592 2.2373 119.682H2.14844C0.984795 119.682 0 118.697 0 117.534C0.000226564 116.37 0.895171 115.386 2.05859 115.296ZM2.68555 102.048C3.9386 102.138 4.83331 103.213 4.6543 104.376C4.56458 105.54 3.66934 106.345 2.50586 106.345H2.32715C1.16362 106.255 0.268946 105.181 0.358398 104.018C0.447909 102.854 1.5219 101.959 2.68555 102.048ZM2.32715 90.5911C2.59566 89.4276 3.7593 88.7114 4.92285 88.9798C6.08649 89.2483 6.80305 90.323 6.62402 91.4866C6.35539 92.5606 5.46009 93.2767 4.47559 93.2767C4.29667 93.2767 4.14763 93.2464 4.02832 93.1868C2.86469 92.9183 2.14814 91.8443 2.32715 90.5911ZM5.9082 77.5228C6.26625 76.4486 7.51897 75.8219 8.68262 76.18C9.75661 76.6275 10.3832 77.7909 10.0254 78.9544C9.66739 79.8494 8.86179 80.3869 7.9668 80.387C7.7281 80.387 7.4887 80.3569 7.25 80.2972C6.17616 79.939 5.55026 78.6862 5.9082 77.5228ZM11.0098 64.9905C11.4574 63.9168 12.8001 63.4693 13.874 64.0062C14.9481 64.5432 15.3954 65.7963 14.8584 66.8704C14.5004 67.6759 13.6955 68.1242 12.9795 68.1243C12.6214 68.1243 12.2627 68.0348 11.9941 67.8558C10.9201 67.4082 10.4727 66.0646 11.0098 64.9905ZM214.379 63.7376C215.453 63.2007 216.796 63.6489 217.333 64.723C217.78 65.7969 217.333 67.0502 216.259 67.5872C215.96 67.7066 215.662 67.7659 215.363 67.7659C214.558 67.7659 213.753 67.3179 213.395 66.6019C212.858 65.5277 213.305 64.1852 214.379 63.7376ZM17.5439 53.1751C18.1706 52.1907 19.5135 51.8328 20.498 52.4593C21.4827 53.0859 21.8411 54.4291 21.125 55.5032H21.2139C20.7663 56.1296 20.0499 56.4876 19.334 56.4876C18.9164 56.4875 18.5288 56.3678 18.1709 56.1292C17.1863 55.5026 16.9174 54.1597 17.5439 53.1751ZM207.755 52.1907C208.739 51.5643 210.082 51.8327 210.709 52.9066C211.336 53.8912 211.067 55.2341 210.082 55.8607C209.724 56.0993 209.336 56.219 208.919 56.2191C208.203 56.2191 207.486 55.8612 207.128 55.2347C206.412 54.1605 206.77 52.8173 207.755 52.1907ZM25.4209 42.1653C26.137 41.2703 27.4803 41.0919 28.4648 41.8079C29.3596 42.6135 29.5386 43.9559 28.7334 44.8509C28.2859 45.3879 27.7485 45.6565 27.1221 45.6566C26.585 45.6566 26.137 45.4778 25.6895 45.2093C24.7944 44.4932 24.6153 43.0604 25.4209 42.1653ZM199.788 41.6282C200.683 40.8227 202.026 41.0018 202.832 41.8968C203.548 42.7919 203.458 44.2246 202.474 44.9407C202.116 45.2987 201.578 45.4778 201.131 45.4778C200.504 45.4778 199.878 45.1196 199.431 44.6722C198.715 43.6876 198.803 42.3443 199.788 41.6282ZM34.5508 32.1409C35.3564 31.3354 36.7891 31.3348 37.5947 32.2298C38.4003 33.0354 38.4003 34.4681 37.5947 35.2737C37.1473 35.6317 36.6102 35.8996 36.0732 35.8997C35.4467 35.8997 34.9094 35.6314 34.4619 35.1839C33.6565 34.3784 33.6561 33.036 34.5508 32.1409ZM190.568 31.9612C191.463 31.1557 192.807 31.1557 193.612 31.9612C194.507 32.7668 194.507 34.1101 193.701 35.0052C193.254 35.4524 192.717 35.6312 192.18 35.6312C191.643 35.6311 191.016 35.452 190.658 35.0941C189.763 34.199 189.763 32.8563 190.568 31.9612ZM44.7559 23.2786C45.7404 22.5629 47.0828 22.7424 47.7988 23.7269C48.5147 24.6219 48.336 26.0538 47.3516 26.7698C46.9935 27.0384 46.5452 27.2171 46.0977 27.2171C45.4713 27.2169 44.8449 26.8594 44.3975 26.3226C43.6814 25.4275 43.8607 23.9947 44.7559 23.2786ZM180.364 23.5472C181.08 22.5626 182.424 22.3838 183.408 23.0999C184.303 23.816 184.482 25.1583 183.766 26.1429C183.408 26.6799 182.692 27.0383 182.065 27.0384C181.588 27.0384 181.14 26.8894 180.723 26.5911C179.828 25.875 179.648 24.4423 180.364 23.5472ZM55.9443 15.7601C57.0185 15.1335 58.3614 15.4913 58.8984 16.4759C59.525 17.55 59.1663 18.8034 58.1816 19.43C57.8239 19.6684 57.4662 19.7883 57.1084 19.7884C56.3029 19.7884 55.6761 19.3406 55.2285 18.7142C54.6019 17.6401 54.9597 16.3867 55.9443 15.7601ZM169.176 16.2972C169.802 15.3126 171.145 14.9548 172.13 15.5814C173.204 16.2079 173.562 17.4606 172.936 18.5345C172.488 19.2505 171.772 19.6086 171.056 19.6087C170.698 19.6087 170.339 19.4898 169.981 19.2513C168.907 18.7142 168.549 17.3713 169.176 16.2972ZM68.0283 9.49444C69.1023 9.04695 70.355 9.5837 70.8027 10.6575C71.3398 11.7317 70.8026 12.9847 69.7285 13.5218C69.4304 13.641 69.1624 13.7014 68.9238 13.7015C68.0287 13.7015 67.2223 13.1643 66.8643 12.3587C66.4168 11.2846 66.8648 10.0315 68.0283 9.49444ZM157.271 10.4788C157.718 9.40478 158.971 8.95723 160.135 9.4046C161.209 9.85215 161.656 11.1947 161.209 12.2689C160.851 13.0744 160.046 13.5217 159.24 13.5218C158.942 13.5218 158.643 13.4624 158.345 13.3431C157.271 12.8955 156.823 11.6424 157.271 10.4788ZM80.6494 4.83917C81.813 4.48125 83.0657 5.10831 83.4238 6.27179C83.6924 7.34589 83.0663 8.59926 81.9922 8.95734C81.7536 9.01697 81.5149 9.04617 81.2764 9.0462C80.3813 9.0462 79.5748 8.41983 79.2168 7.52472C78.859 6.3612 79.5754 5.19718 80.6494 4.83917ZM144.739 6.18194C145.097 5.01853 146.261 4.3923 147.425 4.7503C148.499 5.01899 149.214 6.27197 148.856 7.34601C148.588 8.33056 147.693 8.95734 146.798 8.95734C146.559 8.95732 146.35 8.92715 146.171 8.86749C145.008 8.50926 144.381 7.25593 144.739 6.18194ZM93.8076 1.61749C94.9712 1.43854 96.1345 2.15443 96.3135 3.40753C96.582 4.57108 95.7768 5.64475 94.6133 5.91339H94.2549C93.1808 5.91333 92.2855 5.19744 92.1064 4.12335C91.8381 2.9598 92.6441 1.7965 93.8076 1.61749ZM134.267 1.52765C135.43 1.79622 136.235 2.87088 135.967 4.03448C135.788 5.10823 134.893 5.82433 133.819 5.82452H133.461C132.297 5.6455 131.491 4.48133 131.76 3.31769C131.939 2.15416 133.103 1.34864 134.267 1.52765ZM107.234 0.00616355C108.487 -0.0831838 109.472 0.901229 109.562 2.06476C109.651 3.22833 108.756 4.21343 107.503 4.30304C107.503 4.30304 107.473 4.30304 107.413 4.30304C106.249 4.30299 105.354 3.40741 105.265 2.33331C105.175 1.08019 106.071 0.0956729 107.234 0.00616355ZM120.84 0.00616355C120.84 0.00616355 120.81 0.00616355 120.75 0.00616355C122.003 0.0956651 122.898 1.07999 122.809 2.24347C122.719 3.40698 121.825 4.30284 120.661 4.30304C120.661 4.30304 120.631 4.30304 120.571 4.30304C119.408 4.21353 118.423 3.2284 118.513 2.06476C118.602 0.811655 119.587 -0.0833451 120.84 0.00616355Z" fill="var(--fill-0, #D6BEEB)"/>
</svg>
