<svg preserveAspectRatio="none" width="100%" height="100%" overflow="visible" style="display: block;" viewBox="0 0 14.3334 14.3333" fill="none" xmlns="http://www.w3.org/2000/svg">
<g id="Flash Disk 2">
<path id="Vector" d="M5.83335 0.500001V1.49012e-06V0.500001ZM8.50001 0.500002V1V0.500002ZM11.1667 3.16667H10.6667V3.16667H11.1667ZM3.16668 3.16667H2.66668V3.16667H3.16668ZM3.5572 0.890526L3.20365 0.536972L3.20365 0.536972L3.5572 0.890526ZM0.500012 9.5H1.00001H0.500012ZM0.592113 7.72185L0.105928 7.60513L0.592113 7.72185ZM4.83335 5.16667V4.66667V4.66667V5.16667ZM3.05519 5.25877L3.17192 5.74495L3.05519 5.25877ZM4.83334 13.8333V14.3333V14.3333V13.8333ZM3.05519 13.7412L2.93847 14.2274L3.05519 13.7412ZM0.592113 11.2782L1.0783 11.1614L0.592113 11.2782ZM13.8333 9.5H13.3333H13.8333ZM13.7412 11.2782L14.2274 11.3949L13.7412 11.2782ZM9.50001 13.8333V13.3333V13.3333V13.8333ZM11.2782 13.7412L11.1614 13.255L11.2782 13.7412ZM13.7412 7.72185L13.2551 7.83857L13.7412 7.72185ZM9.50001 5.16667V5.66667V5.66667V5.16667ZM11.2782 5.25877L11.3949 4.77258L11.2782 5.25877ZM6.33335 2.5C6.33335 2.22386 6.10949 2 5.83335 2C5.5572 2 5.33335 2.22386 5.33335 2.5H5.83335H6.33335ZM5.33335 3.83333C5.33335 4.10948 5.5572 4.33333 5.83335 4.33333C6.10949 4.33333 6.33335 4.10948 6.33335 3.83333H5.83335H5.33335ZM9.00001 2.5C9.00001 2.22386 8.77615 2 8.50001 2C8.22387 2 8.00001 2.22386 8.00001 2.5H8.50001H9.00001ZM8.00001 3.83333C8.00001 4.10948 8.22387 4.33333 8.50001 4.33333C8.77615 4.33333 9.00001 4.10948 9.00001 3.83333H8.50001H8.00001ZM12.5687 8.03301L12.4907 7.53913V7.53913L12.5687 8.03301ZM2.42529 8.07213L2.49946 7.57766H2.49946L2.42529 8.07213ZM0.833346 7.83334L0.756497 8.3274L0.759176 8.3278L0.833346 7.83334ZM0.576205 7.79334L0.0864372 7.69271L0.576205 7.79334ZM5.83335 0.500001V1L8.50001 1V0.500002V1.60933e-06L5.83335 1.49012e-06V0.500001ZM11.1667 3.16667H10.6667V5.16667H11.1667H11.6667V3.16667H11.1667ZM3.16668 5.16667H3.66668V3.16667H3.16668H2.66668V5.16667H3.16668ZM5.83335 0.500001V1.49012e-06C5.21894 1.49012e-06 4.70784 -0.00106043 4.30369 0.0532756C3.88516 0.109545 3.5073 0.233326 3.20365 0.536972L3.5572 0.890526L3.91076 1.24408C3.99763 1.1572 4.1293 1.08572 4.43694 1.04436C4.75896 1.00106 5.19067 1 5.83335 1V0.500001ZM3.16668 3.16667H3.66668C3.66668 2.52399 3.66774 2.09229 3.71104 1.77026C3.7524 1.46262 3.82388 1.33096 3.91076 1.24408L3.5572 0.890526L3.20365 0.536972C2.9 0.840619 2.77622 1.21849 2.71995 1.63702C2.66562 2.04116 2.66668 2.55226 2.66668 3.16667H3.16668ZM8.50001 0.500002V1C9.14269 1 9.57439 1.00106 9.89642 1.04436C10.2041 1.08572 10.3357 1.1572 10.4226 1.24408L10.7762 0.890526L11.1297 0.536973C10.8261 0.233326 10.4482 0.109546 10.0297 0.0532758C9.62552 -0.00106019 9.11442 1.63913e-06 8.50001 1.60933e-06V0.500002ZM11.1667 3.16667H11.6667C11.6667 2.55226 11.6677 2.04116 11.6134 1.63702C11.5571 1.21849 11.4334 0.840619 11.1297 0.536973L10.7762 0.890526L10.4226 1.24408C10.5095 1.33096 10.581 1.46262 10.6223 1.77026C10.6656 2.09229 10.6667 2.52399 10.6667 3.16667H11.1667ZM9.50001 13.8333V13.3333H4.83334V13.8333V14.3333H9.50001V13.8333ZM4.83335 5.16667V5.66667L9.50001 5.66667V5.16667V4.66667L4.83335 4.66667V5.16667ZM0.592113 7.72185L1.0783 7.83857C1.32702 6.80257 2.13591 5.99368 3.17192 5.74495L3.05519 5.25877L2.93847 4.77258C1.53682 5.10909 0.442435 6.20347 0.105928 7.60513L0.592113 7.72185ZM4.83334 13.8333L4.83335 13.3333C3.87478 13.3333 3.48349 13.3299 3.17192 13.255L3.05519 13.7412L2.93847 14.2274C3.39415 14.3368 3.93254 14.3333 4.83334 14.3333V13.8333ZM0.500012 9.5H1.24574e-05C1.23978e-05 10.4008 -0.00347 10.9392 0.105928 11.3949L0.592113 11.2782L1.0783 11.1614C1.00349 10.8499 1.00001 10.4586 1.00001 9.5H0.500012ZM3.05519 13.7412L3.17192 13.255C2.13591 13.0063 1.32702 12.1974 1.0783 11.1614L0.592113 11.2782L0.105928 11.3949C0.442435 12.7965 1.53682 13.8909 2.93847 14.2274L3.05519 13.7412ZM13.8333 9.5H13.3333C13.3333 10.4586 13.3299 10.8499 13.2551 11.1614L13.7412 11.2782L14.2274 11.3949C14.3368 10.9392 14.3333 10.4008 14.3333 9.5H13.8333ZM9.50001 13.8333V14.3333C10.4008 14.3333 10.9392 14.3368 11.3949 14.2274L11.2782 13.7412L11.1614 13.255C10.8499 13.3299 10.4586 13.3333 9.50001 13.3333V13.8333ZM13.7412 11.2782L13.2551 11.1614C13.0063 12.1974 12.1974 13.0063 11.1614 13.255L11.2782 13.7412L11.3949 14.2274C12.7965 13.8909 13.8909 12.7965 14.2274 11.3949L13.7412 11.2782ZM13.7412 7.72185L14.2274 7.60513C13.8909 6.20347 12.7965 5.10909 11.3949 4.77258L11.2782 5.25877L11.1614 5.74495C12.1974 5.99368 13.0063 6.80257 13.2551 7.83857L13.7412 7.72185ZM5.83335 2.5H5.33335V3.83333H5.83335H6.33335V2.5H5.83335ZM8.50001 2.5H8.00001V3.83333H8.50001H9.00001V2.5H8.50001ZM2.42529 8.07213L2.49946 7.57766L0.907516 7.33887L0.833346 7.83334L0.759176 8.3278L2.35112 8.56659L2.42529 8.07213ZM12.5687 8.03301L12.4907 7.53913C9.18178 8.0616 5.81235 8.07459 2.49946 7.57766L2.42529 8.07213L2.35111 8.56659C5.76491 9.07866 9.23696 9.06528 12.6467 8.5269L12.5687 8.03301ZM0.500012 9.5H1.00001C1.00001 8.60227 1.0026 8.20239 1.06597 7.89397L0.576205 7.79334L0.0864372 7.69271C-0.00257677 8.12592 1.24872e-05 8.65224 1.24574e-05 9.5H0.500012ZM0.576205 7.79334L1.06597 7.89397C1.06987 7.87503 1.07397 7.8566 1.0783 7.83857L0.592113 7.72185L0.105928 7.60513C0.0989739 7.63409 0.0924877 7.66326 0.0864372 7.69271L0.576205 7.79334ZM0.833346 7.83334L0.910194 7.33928L0.653053 7.29928L0.576205 7.79334L0.499358 8.2874L0.756498 8.3274L0.833346 7.83334ZM13.767 7.84382L13.689 7.34994L12.4907 7.53913L12.5687 8.03301L12.6467 8.5269L13.8449 8.3377L13.767 7.84382ZM13.8333 9.5H14.3333C14.3333 8.68868 14.3354 8.17244 14.2588 7.75379L13.767 7.84382L13.2751 7.93385C13.3313 8.24061 13.3333 8.64412 13.3333 9.5H13.8333ZM13.767 7.84382L14.2588 7.75379C14.2496 7.70346 14.2392 7.65403 14.2274 7.60513L13.7412 7.72185L13.2551 7.83857C13.2624 7.86896 13.269 7.90056 13.2751 7.93385L13.767 7.84382ZM9.50001 5.16667V5.66667C10.3645 5.66667 10.7674 5.66884 11.0745 5.72644L11.1667 5.235L11.2589 4.74357C10.8373 4.6645 10.3188 4.66667 9.50001 4.66667V5.16667ZM11.1667 5.235L11.0745 5.72644C11.1047 5.7321 11.1336 5.73827 11.1614 5.74495L11.2782 5.25877L11.3949 4.77258C11.3501 4.76183 11.3048 4.7522 11.2589 4.74357L11.1667 5.235ZM11.1667 5.16667H10.6667V5.235H11.1667H11.6667V5.16667H11.1667ZM4.83335 5.16667V4.66667C4.01453 4.66667 3.4961 4.6645 3.0745 4.74357L3.16668 5.235L3.25885 5.72643C3.56594 5.66884 3.96885 5.66667 4.83335 5.66667V5.16667ZM3.16668 5.235L3.0745 4.74357C3.02852 4.7522 2.98327 4.76183 2.93847 4.77258L3.05519 5.25877L3.17192 5.74495C3.19977 5.73827 3.22863 5.7321 3.25885 5.72643L3.16668 5.235ZM3.16668 5.16667H2.66668V5.235H3.16668H3.66668V5.16667H3.16668Z" fill="var(--stroke-0, #2D264B)"/>
</g>
</svg>
