<svg preserveAspectRatio="none" width="100%" height="100%" overflow="visible" style="display: block;" viewBox="0 0 24 24" fill="none" xmlns="http://www.w3.org/2000/svg">
<g id="airplane-landing-01">
<path id="Vector" d="M6.00195 19.9982H22.002" stroke="var(--stroke-0, #D6BEEB)" stroke-width="1.5" stroke-linecap="round" stroke-linejoin="round"/>
<path id="Vector_2" d="M3.69701 4.0419C3.0791 4.21042 3.007 4.9179 2.827 5.5179C2.67654 6.08216 2.35862 7.33035 2.14237 8.1831C1.981 8.9379 1.9594 9.2379 2.0554 9.7179C2.281 10.6179 3.061 10.9719 4.741 11.4399C5.58568 11.6559 6.181 11.8371 7.081 12.0771C7.23548 12.1265 7.71553 12.2476 8.101 12.3519C8.461 12.4779 8.761 12.4419 8.6938 12.7179C8.64698 12.8276 8.1034 13.4379 7.5994 13.9779C7.261 14.3979 7.033 14.4998 7.033 14.8179C7.033 14.8179 7.021 15.2979 7.69377 15.3579C7.801 15.4179 9.241 15.7779 9.781 15.9339C10.501 16.1139 11.041 15.8979 11.485 15.5979L13.681 14.1579C14.161 13.9419 14.281 14.0331 14.821 14.1771L19.621 15.4779C20.461 15.7779 21.181 15.0579 20.9698 14.2179C20.701 12.7179 20.221 11.8179 19.441 10.8579C18.181 9.3579 16.6448 8.7727 15.541 8.5779C15.0373 8.48901 13.1435 8.33923 11.341 8.2059C9.49345 8.06924 7.74174 7.94901 7.681 7.8579C6.361 7.5579 6.769 5.6199 6.205 4.7739C5.981 4.4379 5.581 4.3779 4.981 4.1979C4.47251 4.06773 4.09568 3.93317 3.69701 4.0419Z" stroke="var(--stroke-0, #D6BEEB)" stroke-width="1.5" stroke-linecap="round"/>
</g>
</svg>
