<svg preserveAspectRatio="none" width="100%" height="100%" overflow="visible" style="display: block;" viewBox="0 0 19 21" fill="none" xmlns="http://www.w3.org/2000/svg">
<g id="Calender 1">
<path id="Vector" d="M2.56107 19.5451L2.85497 19.1406L2.56107 19.5451ZM1.45491 18.4389L1.85942 18.145L1.45491 18.4389ZM17.5451 18.4389L17.1406 18.145L17.5451 18.4389ZM16.4389 19.5451L16.7328 19.9496L16.4389 19.5451ZM16.4389 3.45492L16.7328 3.05041L16.4389 3.45492ZM17.5451 4.56107L17.1406 4.85497V4.85497L17.5451 4.56107ZM2.56107 3.45492L2.85497 3.85942V3.85942L2.56107 3.45492ZM1.45491 4.56107L1.85942 4.85497V4.85497L1.45491 4.56107ZM16.7178 14.5616L16.6396 14.0677V14.0677L16.7178 14.5616ZM12.5616 18.7178L12.0677 18.6396V18.6396L12.5616 18.7178ZM6.5 12C6.22386 12 6 12.2239 6 12.5C6 12.7761 6.22386 13 6.5 13V12.5V12ZM12.5 13C12.7761 13 13 12.7761 13 12.5C13 12.2239 12.7761 12 12.5 12V12.5V13ZM12 3.5C12 3.77614 12.2239 4 12.5 4C12.7761 4 13 3.77614 13 3.5H12.5H12ZM13 0.5C13 0.223858 12.7761 0 12.5 0C12.2239 0 12 0.223858 12 0.5H12.5H13ZM6 3.5C6 3.77614 6.22386 4 6.5 4C6.77614 4 7 3.77614 7 3.5H6.5H6ZM7 0.5C7 0.223858 6.77614 0 6.5 0C6.22386 0 6 0.223858 6 0.5H6.5H7ZM18.4711 14.5L18.9708 14.5171V14.5171L18.4711 14.5ZM0.528928 8.5L0.0292217 8.48288L0.528928 8.5ZM18.4711 8.5L18.9708 8.48288L18.4711 8.5ZM9.5 20.5V20C7.614 20 6.23966 19.9993 5.17112 19.8835C4.11193 19.7688 3.41269 19.5458 2.85497 19.1406L2.56107 19.5451L2.26718 19.9496C3.02378 20.4993 3.91914 20.7538 5.0634 20.8777C6.19831 21.0007 7.63627 21 9.5 21V20.5ZM0.5 11.5H5.96046e-08C5.96046e-08 13.3637 -0.000686228 14.8017 0.122273 15.9366C0.246247 17.0809 0.500702 17.9762 1.05041 18.7328L1.45491 18.4389L1.85942 18.145C1.45421 17.5873 1.23121 16.8881 1.11646 15.8289C1.00069 14.7603 1 13.386 1 11.5H0.5ZM2.56107 19.5451L2.85497 19.1406C2.47294 18.863 2.13698 18.5271 1.85942 18.145L1.45491 18.4389L1.05041 18.7328C1.38964 19.1997 1.80026 19.6104 2.26718 19.9496L2.56107 19.5451ZM17.5451 18.4389L17.1406 18.145C16.863 18.5271 16.5271 18.863 16.145 19.1406L16.4389 19.5451L16.7328 19.9496C17.1997 19.6104 17.6104 19.1997 17.9496 18.7328L17.5451 18.4389ZM16.4389 3.45492L16.145 3.85942C16.5271 4.13698 16.863 4.47294 17.1406 4.85497L17.5451 4.56107L17.9496 4.26718C17.6104 3.80026 17.1997 3.38964 16.7328 3.05041L16.4389 3.45492ZM2.56107 3.45492L2.26718 3.05041C1.80026 3.38964 1.38964 3.80026 1.05041 4.26718L1.45491 4.56107L1.85942 4.85497C2.13698 4.47294 2.47294 4.13698 2.85497 3.85942L2.56107 3.45492ZM16.7178 14.5616L16.6396 14.0677C14.2862 14.4405 12.4405 16.2862 12.0677 18.6396L12.5616 18.7178L13.0554 18.796C13.3604 16.8705 14.8705 15.3604 16.796 15.0554L16.7178 14.5616ZM6.5 12.5V13H12.5V12.5V12H6.5V12.5ZM18.4711 14.5L18.4711 14C17.5796 14 17.0727 13.9991 16.6396 14.0677L16.7178 14.5616L16.796 15.0554C17.1322 15.0022 17.543 15 18.4711 15L18.4711 14.5ZM18.5 11.5H18C18 12.6717 17.9999 13.6489 17.9714 14.4829L18.4711 14.5L18.9708 14.5171C19.0001 13.6624 19 12.6662 19 11.5H18.5ZM18.4711 14.5L17.9714 14.4829C17.9077 16.3409 17.7014 17.3731 17.1406 18.145L17.5451 18.4389L17.9496 18.7328C18.7032 17.6955 18.9067 16.3875 18.9708 14.5171L18.4711 14.5ZM12.5 20.4711L13 20.4711C13 19.543 13.0022 19.1322 13.0554 18.796L12.5616 18.7178L12.0677 18.6396C11.9991 19.0727 12 19.5796 12 20.4711L12.5 20.4711ZM9.5 20.5V21C10.6662 21 11.6624 21.0001 12.5171 20.9708L12.5 20.4711L12.4829 19.9714C11.6489 19.9999 10.6717 20 9.5 20V20.5ZM12.5 20.4711L12.5171 20.9708C14.3875 20.9067 15.6955 20.7032 16.7328 19.9496L16.4389 19.5451L16.145 19.1406C15.3731 19.7014 14.3409 19.9077 12.4829 19.9714L12.5 20.4711ZM0.5 11.5H1C1 10.3283 1.00006 9.35108 1.02864 8.51712L0.528928 8.5L0.0292217 8.48288C-6.25849e-05 9.33761 5.96046e-08 10.3338 5.96046e-08 11.5H0.5ZM0.528928 8.5L1.02864 8.51712C1.09229 6.65911 1.2986 5.62687 1.85942 4.85497L1.45491 4.56107L1.05041 4.26718C0.296758 5.30449 0.0933026 6.61252 0.0292217 8.48288L0.528928 8.5ZM0.528928 8.5V9H18.4711V8.5V8H0.528928V8.5ZM18.5 11.5H19C19 10.3338 19.0001 9.33761 18.9708 8.48288L18.4711 8.5L17.9714 8.51712C17.9999 9.35108 18 10.3283 18 11.5H18.5ZM18.4711 8.5L18.9708 8.48288C18.9067 6.61252 18.7032 5.30449 17.9496 4.26718L17.5451 4.56107L17.1406 4.85497C17.7014 5.62687 17.9077 6.65911 17.9714 8.51712L18.4711 8.5ZM12.5 3.5H13V2.52893H12.5H12V3.5H12.5ZM12.5 2.52893H13V0.5H12.5H12V2.52893H12.5ZM9.5 2.5V3C10.6717 3 11.6489 3.00006 12.4829 3.02864L12.5 2.52893L12.5171 2.02922C11.6624 1.99994 10.6662 2 9.5 2V2.5ZM12.5 2.52893L12.4829 3.02864C14.3409 3.09229 15.3731 3.2986 16.145 3.85942L16.4389 3.45492L16.7328 3.05041C15.6955 2.29676 14.3875 2.0933 12.5171 2.02922L12.5 2.52893ZM6.5 3.5H7V2.52893H6.5H6V3.5H6.5ZM6.5 2.52893H7V0.5H6.5H6V2.52893H6.5ZM9.5 2.5V2C8.33384 2 7.33761 1.99994 6.48288 2.02922L6.5 2.52893L6.51712 3.02864C7.35108 3.00006 8.32831 3 9.5 3V2.5ZM6.5 2.52893L6.48288 2.02922C4.61252 2.0933 3.30449 2.29676 2.26718 3.05041L2.56107 3.45492L2.85497 3.85942C3.62687 3.2986 4.65911 3.09229 6.51712 3.02864L6.5 2.52893Z" fill="var(--stroke-0, #D6BEEB)"/>
</g>
</svg>
