<svg preserveAspectRatio="none" width="100%" height="100%" overflow="visible" style="display: block;" viewBox="0 0 20.5088 13.4978" fill="none" xmlns="http://www.w3.org/2000/svg">
<path id="Vector" d="M2.44889 0.789828C1.83098 0.958348 1.75888 1.66583 1.57888 2.26583C1.42842 2.83009 1.1105 4.07828 0.894248 4.93103C0.732878 5.68583 0.711278 5.98583 0.807278 6.46583C1.03288 7.36583 1.81288 7.71983 3.49288 8.18783C4.33756 8.40383 4.93288 8.58503 5.83288 8.82503C5.98736 8.87443 6.46741 8.99553 6.85288 9.09983C7.21288 9.22583 7.51288 9.18983 7.44568 9.46583C7.39886 9.57553 6.85528 10.1858 6.35128 10.7258C6.01288 11.1458 5.78488 11.2477 5.78488 11.5658C5.78488 11.5658 5.77288 12.0458 6.44565 12.1058C6.55288 12.1658 7.99288 12.5258 8.53288 12.6818C9.2529 12.8618 9.7929 12.6458 10.2369 12.3458L12.4329 10.9058C12.9129 10.6898 13.0329 10.781 13.5729 10.925L18.3729 12.2258C19.2129 12.5258 19.9329 11.8058 19.7217 10.9658C19.4529 9.46583 18.9729 8.56583 18.1929 7.60583C16.9329 6.10583 15.3967 5.52063 14.2929 5.32583C13.7892 5.23694 11.8954 5.08716 10.0929 4.95383C8.24533 4.81717 6.49362 4.69694 6.43288 4.60583C5.11288 4.30583 5.52088 2.36783 4.95688 1.52183C4.73288 1.18583 4.33288 1.12583 3.73288 0.945827C3.22439 0.815657 2.84756 0.681098 2.44889 0.789828Z" stroke="var(--stroke-0, #D6BEEB)" stroke-width="1.5" stroke-linecap="round"/>
</svg>
