<svg preserveAspectRatio="none" width="100%" height="100%" overflow="visible" style="display: block;" viewBox="0 0 19 18" fill="none" xmlns="http://www.w3.org/2000/svg">
<g id="star">
<path id="Star 1" d="M8.54894 5.92705C8.8483 5.00574 10.1517 5.00574 10.4511 5.92705L10.9593 7.49139C11.0932 7.90341 11.4772 8.18237 11.9104 8.18237H13.5552C14.524 8.18237 14.9267 9.42199 14.143 9.99139L12.8123 10.9582C12.4618 11.2128 12.3152 11.6642 12.449 12.0762L12.9573 13.6406C13.2567 14.5619 12.2022 15.328 11.4185 14.7586L10.0878 13.7918C9.7373 13.5372 9.2627 13.5372 8.91221 13.7918L7.58151 14.7586C6.7978 15.328 5.74332 14.5619 6.04267 13.6406L6.55095 12.0762C6.68483 11.6642 6.53817 11.2128 6.18768 10.9582L4.85698 9.99139C4.07326 9.42199 4.47604 8.18237 5.44476 8.18237H7.0896C7.52283 8.18237 7.90678 7.90341 8.04066 7.49139L8.54894 5.92705Z" fill="var(--fill-0, #7B2CBF)"/>
</g>
</svg>
