<svg preserveAspectRatio="none" width="100%" height="100%" overflow="visible" style="display: block;" viewBox="0 0 18.1667 18.7917" fill="none" xmlns="http://www.w3.org/2000/svg">
<g id="Time Circle 5">
<path id="Vector" d="M9.83333 6.37503C9.83333 5.96081 9.49755 5.62503 9.08333 5.62503C8.66912 5.62503 8.33333 5.96081 8.33333 6.37503H9.08333L9.83333 6.37503ZM6.58333 9.79169C6.16912 9.79169 5.83333 10.1275 5.83333 10.5417C5.83333 10.9559 6.16912 11.2917 6.58333 11.2917V10.5417V9.79169ZM1.11481 1.83104C0.791366 2.0898 0.738925 2.56177 0.997682 2.88522C1.25644 3.20866 1.72841 3.2611 2.05185 3.00235L1.58333 2.41669L1.11481 1.83104ZM4.13519 1.33568C4.45863 1.07692 4.51108 0.604953 4.25232 0.281506C3.99356 -0.0419401 3.52159 -0.0943811 3.19815 0.164376L3.66667 0.750028L4.13519 1.33568ZM16.1148 3.00235C16.4383 3.2611 16.9102 3.20866 17.169 2.88522C17.4277 2.56177 17.3753 2.0898 17.0519 1.83104L16.5833 2.41669L16.1148 3.00235ZM14.9685 0.164376C14.6451 -0.0943811 14.1731 -0.0419401 13.9143 0.281506C13.6556 0.604953 13.708 1.07692 14.0315 1.33568L14.5 0.750028L14.9685 0.164376ZM9.08333 9.29169H9.83333H9.08333ZM9.08333 6.37503H8.33333L8.33333 9.29169H9.08333H9.83333L9.83333 6.37503L9.08333 6.37503ZM17.4167 9.70836H16.6667C16.6667 13.8965 13.2715 17.2917 9.08333 17.2917V18.0417V18.7917C14.0999 18.7917 18.1667 14.7249 18.1667 9.70836H17.4167ZM9.08333 18.0417V17.2917C4.89517 17.2917 1.5 13.8965 1.5 9.70836H0.75H2.98023e-08C2.98023e-08 14.7249 4.06675 18.7917 9.08333 18.7917V18.0417ZM0.75 9.70836H1.5C1.5 5.5202 4.89517 2.12503 9.08333 2.12503V1.37503V0.625028C4.06675 0.625028 2.98023e-08 4.69177 2.98023e-08 9.70836H0.75ZM9.08333 1.37503V2.12503C13.2715 2.12503 16.6667 5.5202 16.6667 9.70836H17.4167H18.1667C18.1667 4.69177 14.0999 0.625028 9.08333 0.625028V1.37503ZM1.58333 2.41669L2.05185 3.00235L4.13519 1.33568L3.66667 0.750028L3.19815 0.164376L1.11481 1.83104L1.58333 2.41669ZM16.5833 2.41669L17.0519 1.83104L14.9685 0.164376L14.5 0.750028L14.0315 1.33568L16.1148 3.00235L16.5833 2.41669ZM6.58333 10.5417V11.2917H7.83333V10.5417V9.79169H6.58333V10.5417ZM9.08333 9.29169H8.33333C8.33333 9.56784 8.10948 9.79169 7.83333 9.79169V10.5417V11.2917C8.9379 11.2917 9.83333 10.3963 9.83333 9.29169H9.08333Z" fill="var(--stroke-0, #7B2CBF)"/>
</g>
</svg>
